<svg width="4852" height="4236" viewBox="0 0 4852 4236" fill="none" xmlns="http://www.w3.org/2000/svg">
<mask id="mask0_721_1415" style="mask-type:alpha" maskUnits="userSpaceOnUse" x="0" y="0" width="4852" height="4236">
<rect width="4851.13" height="4235.11" fill="#D9D9D9"/>
</mask>
<g mask="url(#mask0_721_1415)">
<path d="M3086.12 638.225H3220.25C3303.39 638.225 3370.78 570.834 3370.78 487.702C3370.78 404.571 3438.17 337.18 3521.3 337.18H3763C3858 337.18 3935.02 414.198 3935.02 509.206V803.37C3935.02 898.377 4012.04 975.395 4107.05 975.395H4920.73H5037.71C5108.01 975.395 5165.01 1032.39 5165.01 1102.69V3318.39C5165.01 3413.39 5087.99 3490.41 4992.98 3490.41H4419.27H3832.67C3744.78 3490.41 3673.54 3419.17 3673.54 3331.29C3673.54 3243.41 3602.3 3172.16 3514.42 3172.16H3076.61C2981.61 3172.16 2904.59 3249.18 2904.59 3344.19V3409.56C2904.59 3504.57 2827.57 3581.59 2732.56 3581.59H2483.98C2400.85 3581.59 2333.46 3514.19 2333.46 3431.06C2333.46 3347.93 2266.07 3280.54 2182.94 3280.54H47.2387C-47.7685 3280.54 -124.787 3203.52 -124.787 3108.52V877.083C-124.787 794.411 -66.1001 723.402 15.7437 711.728C181.623 688.069 435.946 663.56 442 734.559C450.147 830.123 572.624 865.302 595.744 871.107C598.242 871.734 600.717 872.412 603.156 873.235C645.464 887.498 662.431 937.808 636.033 973.815C622.154 992.746 606.049 1014.15 588.496 1036.48C536.588 1102.49 553.156 1199.66 635.752 1214.82C888.068 1261.14 1245.14 1194.54 1307 1125C1325.28 1104.45 1339.5 1081.59 1350.57 1058.7C1388.36 980.522 1453.95 907.237 1540.68 902.872C1638.85 897.932 1758.93 894.626 1817.59 903.562C1843.24 907.471 1847.31 932.594 1857.32 956.542C1892.71 1041.22 2097.68 1062.39 2237.34 981.813C2257.81 970.003 2272.3 950.494 2281.4 928.685L2302.15 878.945C2321.29 833.057 2285.28 787.041 2246.6 755.804C2238.91 749.594 2243.12 743.702 2248.85 735.697L2248.99 735.493C2269.43 706.907 2316.94 663.998 2296.51 607.029C2293.48 598.573 2288.41 591.412 2297.05 588.971C2329.87 579.708 2367.77 563.95 2369.74 529.908L2371.83 493.751C2374.46 448.211 2411.77 412.405 2457.38 411.636L2850.91 405C2916.08 403.901 2969.5 456.427 2969.5 521.604C2969.5 586.012 3021.71 638.225 3086.12 638.225Z" fill="url(#paint0_linear_721_1415)" fill-opacity="0.5"/>
<path d="M213.743 655.774C210.721 655.795 208.07 654.843 205.789 652.917C203.509 650.99 202.355 648.192 202.329 644.523C202.313 642.364 202.616 639.34 203.235 635.45C203.854 631.452 204.579 627.237 205.411 622.806C206.242 618.375 207.075 614.16 207.91 610.16C208.852 606.052 209.53 602.755 209.944 600.27L214.472 577.085L202.978 577.168L203.59 572.307C208.757 570.327 213.865 567.7 218.914 564.425C223.963 561.151 228.416 557.557 232.274 553.644L237.293 553.608L234.17 569.658L246.798 569.567L245.393 576.863L232.604 576.955L221.829 632.078C221.518 633.807 221.259 635.374 221.054 636.779C220.847 638.076 220.694 639.318 220.595 640.506C220.508 643.421 221.062 645.467 222.258 646.646C223.453 647.717 225.613 647.917 228.738 647.247C227.782 649.305 226.552 650.932 225.05 652.131C223.655 653.328 221.988 654.203 220.05 654.757C218.112 655.418 216.009 655.757 213.743 655.774ZM306.609 654.943C303.263 654.968 300.558 654.016 298.493 652.088C296.538 650.267 295.544 647.198 295.513 642.881C295.496 640.506 295.798 637.428 296.418 633.646C297.146 629.863 297.981 625.864 298.922 621.648C299.862 617.323 300.803 613.053 301.744 608.837C302.685 604.621 303.467 600.838 304.091 597.487C304.821 594.028 305.18 591.327 305.166 589.385C305.14 585.823 304.203 583.131 302.355 581.31C300.507 579.38 298.071 578.427 295.049 578.448C290.84 578.479 287.289 579.961 284.396 582.896C281.503 585.831 279.155 589.518 277.352 593.956C275.548 598.286 274.23 602.613 273.398 606.936L264.98 652.005L246.538 654.081L260.414 579.993L275.327 582.476C278.527 577.272 282.438 573.25 287.058 570.411C291.786 567.463 297.064 565.968 302.892 565.926C309.476 565.878 314.507 567.569 317.985 570.998C321.463 574.319 323.224 579.055 323.268 585.207C323.29 588.229 322.992 591.739 322.373 595.737C321.754 599.735 320.921 604.004 319.875 608.545C318.935 612.977 317.995 617.301 317.054 621.517C316.113 625.733 315.277 629.571 314.546 633.03C313.923 636.488 313.619 639.189 313.633 641.131C313.645 642.75 313.978 644.097 314.634 645.172C315.289 646.246 316.589 646.885 318.533 647.086C317.905 649.789 316.462 651.742 314.204 652.946C311.947 654.257 309.415 654.923 306.609 654.943ZM275.346 585.228L259.945 582.263C260.776 577.831 261.605 572.969 262.43 567.674C263.362 562.271 264.08 556.977 264.582 551.792C265.193 546.607 265.538 542.125 265.619 538.347C265.609 537.052 265.547 535.919 265.432 534.949C265.425 533.977 265.311 533.061 265.089 532.199C266.163 531.436 267.454 530.887 268.963 530.552C270.47 530.109 271.98 529.883 273.491 529.872C276.405 529.851 279.055 530.695 281.442 532.405C283.828 534.007 285.037 536.966 285.068 541.283C285.078 542.686 284.877 544.792 284.466 547.602C284.053 550.303 283.482 553.383 282.751 556.842C282.021 560.301 281.182 563.815 280.237 567.384C279.399 570.952 278.56 574.304 277.719 577.44C276.878 580.576 276.087 583.172 275.346 585.228ZM365.509 654.52C359.358 654.564 354.007 653.469 349.458 651.235C345.016 648.893 341.59 645.355 339.182 640.624C336.773 635.892 335.543 629.911 335.491 622.68C335.442 615.88 336.311 609.128 338.097 602.423C339.991 595.61 342.807 589.438 346.545 583.906C350.282 578.375 355.053 573.915 360.857 570.527C366.769 567.139 373.719 565.416 381.705 565.358C385.914 565.328 389.696 565.895 393.05 567.058C396.405 568.221 399.063 570.144 401.025 572.829C402.987 575.513 403.985 579.175 404.018 583.816C404.063 590.076 402.213 595.378 398.466 599.722C394.827 603.958 389.94 607.231 383.804 609.542C377.668 611.745 370.876 612.873 363.429 612.926C362.026 612.936 360.461 612.948 358.734 612.96C357.115 612.864 355.765 612.766 354.685 612.666C354.589 614.393 354.494 616.121 354.398 617.848C354.302 619.468 354.259 620.979 354.269 622.382C354.311 628.211 355.423 632.79 357.606 636.12C359.788 639.342 363.739 640.933 369.459 640.892C374.1 640.858 378.247 639.749 381.901 637.564C385.554 635.271 388.391 632.067 390.413 627.951C391.927 628.372 392.958 629.228 393.507 630.519C394.056 631.81 394.336 633.157 394.346 634.56C394.369 637.798 393.258 640.936 391.014 643.974C388.769 647.013 385.495 649.519 381.192 651.492C376.889 653.466 371.661 654.475 365.509 654.52ZM355.761 604.725C359.43 604.698 363.043 604.295 366.599 603.513C370.263 602.732 373.601 601.52 376.611 599.88C379.621 598.131 381.979 595.955 383.688 593.353C385.503 590.641 386.398 587.505 386.372 583.943C386.35 580.813 385.577 578.498 384.056 576.998C382.641 575.389 380.584 574.595 377.886 574.614C374.864 574.636 372.065 575.627 369.489 577.589C367.02 579.441 364.879 581.885 363.066 584.92C361.253 587.956 359.711 591.205 358.441 594.668C357.278 598.13 356.385 601.482 355.761 604.725Z" fill="#0097B2"/>
<path d="M2437.87 769.055C2430.53 769.055 2423.19 768.505 2415.85 767.404C2408.7 766.486 2402.09 764.835 2396.04 762.45C2390.17 760.064 2385.49 756.945 2382 753.091C2378.51 749.054 2376.77 744.1 2376.77 738.228C2376.95 732.907 2378.33 728.503 2380.9 725.017C2383.28 721.347 2386.77 718.594 2391.36 716.759C2395.95 714.925 2401.18 714.007 2407.05 714.007C2410.72 714.007 2414.48 714.466 2418.33 715.383C2422.37 716.117 2425.67 717.31 2428.24 718.961C2427.32 722.448 2426.68 725.659 2426.31 728.595C2426.13 731.347 2426.04 734.558 2426.04 738.228C2426.22 742.816 2427.78 746.577 2430.72 749.513C2433.84 752.449 2437.97 753.917 2443.1 753.917C2448.61 753.917 2453.01 752.633 2456.32 750.064C2459.62 747.495 2461.27 744.192 2461.27 740.155C2461.45 735.384 2459.43 730.98 2455.21 726.943C2451.18 722.907 2446.04 718.961 2439.8 715.108C2433.75 711.255 2427.51 707.218 2421.08 702.997C2415.76 699.328 2410.9 695.474 2406.5 691.437C2402.28 687.217 2398.88 682.63 2396.31 677.675C2393.74 672.537 2392.46 666.849 2392.46 660.61C2392.64 653.27 2394.84 646.848 2399.06 641.343C2403.29 635.839 2408.88 631.343 2415.85 627.857C2422.83 624.187 2430.53 621.526 2438.97 619.875C2447.42 618.04 2455.95 617.122 2464.57 617.122C2473.2 617.122 2481.64 618.131 2489.89 620.15C2498.34 622.168 2505.22 625.471 2510.54 630.058C2515.86 634.462 2518.52 640.518 2518.52 648.224C2518.34 656.115 2515.68 661.986 2510.54 665.84C2505.4 669.693 2498.7 671.62 2490.45 671.62C2486.96 671.62 2483.29 671.161 2479.44 670.244C2475.58 669.326 2472.19 668.042 2469.25 666.39C2469.99 664.188 2470.63 661.803 2471.18 659.234C2471.73 656.665 2472.1 654.004 2472.28 651.252C2472.46 645.38 2471.18 640.701 2468.43 637.215C2465.67 633.545 2461.64 631.618 2456.32 631.435C2452.28 631.435 2448.7 632.627 2445.58 635.013C2442.46 637.215 2440.81 640.609 2440.63 645.197C2440.44 649.417 2441.91 653.454 2445.03 657.307C2448.33 661.161 2452.55 664.922 2457.69 668.592C2463.01 672.079 2468.61 675.565 2474.48 679.051C2480.9 682.905 2486.68 686.942 2491.82 691.162C2496.96 695.199 2501 699.786 2503.93 704.924C2507.05 709.878 2508.61 715.842 2508.61 722.815C2508.43 731.622 2505.58 739.513 2500.08 746.486C2494.57 753.458 2486.59 758.963 2476.13 763C2465.67 766.853 2452.92 768.872 2437.87 769.055ZM2586.81 768.23C2582.96 768.23 2579.66 767.954 2576.9 767.404C2574.15 767.037 2570.66 766.211 2566.44 764.927L2518.28 760.798L2544.7 622.627L2590.67 617.122L2587.09 638.316C2591.67 632.444 2597.45 627.398 2604.43 623.177C2611.4 618.957 2619.66 616.847 2629.2 616.847C2640.03 616.847 2648.74 619.049 2655.35 623.453C2662.14 627.857 2667 634.095 2669.93 642.169C2673.05 650.243 2674.61 659.968 2674.61 671.345C2674.61 685.107 2672.6 697.951 2668.56 709.878C2664.71 721.622 2658.92 731.898 2651.22 740.705C2643.69 749.33 2634.52 756.119 2623.69 761.073C2612.87 765.844 2600.57 768.23 2586.81 768.23ZM2540.02 818.048C2532.31 818.048 2526.17 816.03 2521.58 811.993C2517.18 807.956 2514.97 801.259 2514.97 791.9C2514.97 789.882 2515.07 787.496 2515.25 784.744C2515.43 782.175 2515.71 779.331 2516.07 776.212C2516.44 773.092 2516.9 769.881 2517.45 766.578C2517.82 763.275 2518.37 759.881 2519.1 756.394L2572.22 762.45C2571.31 767.22 2570.3 772.45 2569.2 778.138C2568.28 784.01 2567.82 789.79 2567.82 795.478C2567.82 798.047 2567.91 800.525 2568.1 802.91C2568.46 805.295 2568.92 807.589 2569.47 809.791C2565.25 812.36 2560.48 814.378 2555.16 815.846C2550.02 817.314 2544.98 818.048 2540.02 818.048ZM2589.29 751.99C2594.61 751.99 2599.2 749.788 2603.05 745.385C2606.9 740.797 2610.12 734.742 2612.68 727.219C2615.25 719.695 2617.27 711.622 2618.74 702.997C2620.39 694.19 2621.49 685.565 2622.04 677.125C2622.78 668.684 2623.14 661.252 2623.14 654.83C2623.14 650.059 2622.5 645.839 2621.22 642.169C2619.93 638.316 2616.9 636.389 2612.13 636.389C2607.36 636.389 2603.33 638.224 2600.02 641.894C2596.9 645.564 2594.43 650.059 2592.59 655.381C2590.76 660.702 2589.38 665.84 2588.46 670.794L2574.98 746.761C2576.99 748.412 2579.29 749.697 2581.86 750.614C2584.61 751.532 2587.09 751.99 2589.29 751.99ZM2742.34 768.505C2733.35 768.505 2725.09 767.312 2717.57 764.927C2710.23 762.541 2703.9 758.963 2698.57 754.192C2693.44 749.421 2689.49 743.458 2686.74 736.302C2683.99 729.145 2682.61 720.796 2682.61 711.255C2682.61 697.676 2684.54 685.198 2688.39 673.822C2692.43 662.262 2698.12 652.261 2705.46 643.821C2712.98 635.38 2722.15 628.866 2732.98 624.278C2743.81 619.508 2756.1 617.122 2769.86 617.122C2779.04 617.122 2787.29 618.315 2794.63 620.7C2801.97 623.086 2808.12 626.664 2813.08 631.435C2818.21 636.022 2822.16 641.802 2824.91 648.775C2827.85 655.748 2829.31 664.005 2829.31 673.547C2829.31 687.125 2827.3 699.695 2823.26 711.255C2819.41 722.631 2813.72 732.632 2806.19 741.256C2798.67 749.88 2789.5 756.578 2778.67 761.349C2768.03 766.119 2755.92 768.505 2742.34 768.505ZM2746.47 751.99C2750.87 751.99 2754.82 749.697 2758.3 745.109C2761.79 740.522 2764.72 734.558 2767.11 727.219C2769.5 719.695 2771.51 711.53 2773.17 702.722C2774.82 693.731 2776.01 684.831 2776.74 676.024C2777.48 667.033 2777.84 658.959 2777.84 651.803C2777.84 646.481 2776.93 642.169 2775.09 638.866C2773.44 635.38 2770.23 633.637 2765.46 633.637C2760.87 633.637 2756.83 635.93 2753.35 640.518C2750.04 644.921 2747.11 650.793 2744.54 658.133C2741.97 665.473 2739.95 673.638 2738.48 682.63C2737.02 691.437 2735.92 700.337 2735.18 709.328C2734.45 718.136 2734.08 726.301 2734.08 733.824C2734.08 739.146 2734.91 743.55 2736.56 747.036C2738.39 750.339 2741.7 751.99 2746.47 751.99ZM2875.67 768.505C2866.68 768.505 2858.98 766.119 2852.55 761.349C2846.13 756.578 2842.92 749.513 2842.92 740.155C2842.92 736.485 2843.29 731.898 2844.02 726.393C2844.94 720.705 2845.95 714.649 2847.05 708.227C2848.15 701.805 2849.25 695.749 2850.35 690.061C2851.64 684.189 2852.55 679.51 2853.1 676.024L2861.09 635.013H2844.85L2845.95 626.756C2856.96 623.453 2867.87 618.957 2878.7 613.269C2889.53 607.58 2900.17 600.699 2910.63 592.626H2923.84L2917.23 622.627H2938.7L2936.23 635.013H2915.03L2899.07 719.237C2898.7 721.622 2898.33 724.007 2897.97 726.393C2897.6 728.595 2897.42 730.797 2897.42 732.999C2897.42 739.788 2899.07 744.1 2902.37 745.935C2905.67 747.77 2910.08 748.045 2915.58 746.761C2913.01 752.816 2909.53 757.495 2905.12 760.798C2900.72 763.917 2895.95 765.936 2890.81 766.853C2885.86 767.954 2880.81 768.505 2875.67 768.505Z" fill="white"/>
<rect x="1203.25" y="55.0508" width="1238.59" height="55.0483" rx="27.5241" transform="rotate(180 1203.25 55.0508)" fill="url(#paint1_linear_721_1415)"/>
<circle cx="1292.7" cy="27.5267" r="27.5241" transform="rotate(180 1292.7 27.5267)" fill="#0097B2"/>
<circle cx="1409.68" cy="27.5267" r="27.5241" transform="rotate(180 1409.68 27.5267)" fill="#0097B2" fill-opacity="0.5"/>
<circle cx="1526.66" cy="27.5267" r="27.5241" transform="rotate(180 1526.66 27.5267)" fill="#0097B2" fill-opacity="0.3"/>
<rect x="4034.8" y="519.533" width="433.505" height="385.338" rx="103.215" fill="#88CED8"/>
<rect x="3009.52" y="3275.38" width="547.042" height="516.077" rx="103.215" fill="#CDE3D1"/>
<rect x="1929.2" y="3364.83" width="313.087" height="337.171" rx="103.215" fill="#A8D7D5" fill-opacity="0.5"/>
<rect x="446.338" y="3364.83" width="1107.85" height="337.171" rx="103.215" fill="#95D2D6" fill-opacity="0.2"/>
<rect x="3004" y="260" width="306.206" height="333.73" rx="103.215" fill="#88CED8" fill-opacity="0.4"/>
<rect x="4588.72" y="144.512" width="292.444" height="278.682" rx="103.215" fill="#88CED8" fill-opacity="0.5"/>
<rect x="1100.89" y="3900.16" width="2471.04" height="333.515" rx="104.55" fill="#95D2D6" fill-opacity="0.15"/>
<rect x="3718.56" y="3624.24" width="1500.82" height="333.515" rx="104.55" fill="#DFE8CF" fill-opacity="0.2"/>
<rect x="-365.76" y="3791.08" width="682.19" height="333.515" rx="104.55" fill="#95D2D6" fill-opacity="0.1"/>
<path d="M877.081 1162.52C838.031 1162.52 801.191 1160.31 766.561 1155.89C731.932 1152.21 703.565 1145.95 681.461 1137.11C659.357 1128.26 646.463 1116.84 642.779 1102.84C654.568 1097.69 663.409 1090.69 669.304 1081.85C675.935 1073 681.093 1060.85 684.777 1045.37C689.197 1029.16 693.618 1008.17 698.039 982.377L757.72 668.5C767.298 614.714 785.718 573.453 812.98 544.718C840.241 515.246 881.871 500.51 937.867 500.51C966.603 500.51 990.917 505.667 1010.81 515.982C1030.7 526.298 1041.76 540.297 1043.97 557.98C1023.34 565.348 1010.07 579.347 1004.18 599.978C998.285 619.871 993.127 641.239 988.707 664.079L979.865 710.498H990.917C1031.44 710.498 1063.49 703.867 1087.07 690.604C1111.38 677.342 1128.7 660.764 1139.01 640.87C1149.33 620.977 1154.49 600.346 1154.49 578.979C1154.49 537.718 1135.7 505.299 1098.12 481.721C1060.54 458.144 1010.07 446.355 946.709 446.355C915.027 446.355 882.976 450.776 850.557 459.617C818.874 467.722 789.771 480.616 763.246 498.299C736.721 515.983 715.354 538.087 699.144 564.611C682.935 591.136 674.83 622.819 674.83 659.659C674.83 681.763 676.672 702.393 680.356 721.55C684.776 740.707 692.881 762.442 704.67 786.757C693.618 798.545 680.356 807.387 664.883 813.281C650.147 818.439 636.516 821.018 623.99 821.018C591.571 821.018 563.941 813.65 541.1 798.914C518.26 784.178 500.945 765.021 489.156 741.443C478.104 717.129 472.578 691.709 472.578 665.185C472.578 610.661 490.998 561.296 527.838 517.088C564.678 472.88 618.464 438.25 689.197 413.199C759.93 387.411 846.136 374.517 947.814 374.517C993.496 374.517 1039.18 377.464 1084.86 383.358C1130.54 389.253 1172.17 399.2 1209.75 413.199C1247.32 427.198 1277.53 445.986 1300.37 469.564C1323.21 493.142 1334.63 522.614 1334.63 557.98C1334.63 583.768 1328.37 607.714 1315.85 629.818C1303.32 651.185 1287.11 670.342 1267.22 687.289C1248.06 703.498 1227.8 716.392 1206.43 725.971C1225.59 731.865 1245.48 741.075 1266.11 753.601C1287.48 765.389 1305.53 781.967 1320.27 803.335C1335 824.702 1342.37 852.7 1342.37 887.33C1342.37 924.907 1334.27 960.273 1318.06 993.429C1301.85 1026.59 1275.69 1056.06 1239.59 1081.85C1204.22 1106.9 1156.7 1126.42 1097.02 1140.42C1037.34 1155.16 964.024 1162.52 877.081 1162.52ZM914.658 1086.27C960.34 1086.27 998.653 1077.79 1029.6 1060.85C1061.28 1043.9 1084.86 1021.43 1100.33 993.429C1115.8 964.694 1123.54 933.38 1123.54 899.487C1123.54 859.7 1109.91 831.333 1082.65 814.387C1056.12 797.44 1017.07 787.862 965.497 785.651L932.341 959.168C924.237 998.955 915.395 1028.43 905.817 1047.58C896.238 1066.74 886.291 1078.53 875.976 1082.95C883.344 1083.69 889.975 1084.42 895.87 1085.16C902.501 1085.9 908.764 1086.27 914.658 1086.27Z" fill="#0097B2"/>
<path d="M1470.17 868.334C1450.02 868.334 1433.17 863.195 1419.6 852.917C1406.44 842.227 1399.87 826.194 1399.87 804.816C1399.87 795.36 1400.89 783.232 1402.95 768.431C1405.01 753.631 1407.68 737.392 1410.97 719.714C1414.67 702.036 1418.37 684.152 1422.07 666.063C1426.18 647.562 1430.08 629.884 1433.78 613.028C1437.9 596.172 1441.39 581.372 1444.27 568.627C1447.15 555.471 1449 545.399 1449.82 538.41C1454.34 514.976 1457.63 495.448 1459.68 479.825C1461.74 464.203 1462.77 450.841 1462.77 439.741C1462.77 433.163 1462.36 427.202 1461.53 421.857C1461.12 416.513 1460.3 411.785 1459.07 407.674C1468.11 402.74 1478.6 398.834 1490.52 395.957C1502.85 392.668 1514.77 391.023 1526.29 391.023C1541.5 391.023 1555.06 394.723 1566.99 402.123C1578.91 409.524 1584.87 423.091 1584.87 442.824C1584.87 447.758 1584.25 454.336 1583.02 462.558C1582.2 470.78 1580.97 480.647 1579.32 492.159C1577.68 503.259 1575.62 515.387 1573.15 528.543C1570.69 541.699 1567.81 555.677 1564.52 570.477C1556.3 610.356 1549.51 643.04 1544.17 668.529C1538.83 694.019 1534.51 714.575 1531.22 730.197C1528.34 745.409 1526.08 756.92 1524.44 764.731C1523.2 772.543 1522.38 778.093 1521.97 781.382C1521.56 784.671 1521.35 787.549 1521.35 790.015C1521.35 797.827 1523.61 805.021 1528.14 811.599C1532.66 818.177 1540.06 821.877 1550.34 822.699C1547.05 832.977 1541.09 841.611 1532.45 848.6C1524.23 855.178 1514.57 860.111 1503.47 863.4C1492.78 866.689 1481.68 868.334 1470.17 868.334ZM1721.58 868.334C1701.44 868.334 1682.94 865.661 1666.08 860.317C1649.64 854.972 1635.45 846.955 1623.53 836.266C1612.02 825.577 1603.18 812.216 1597.01 796.182C1590.85 780.148 1587.76 761.442 1587.76 740.064C1587.76 709.641 1592.08 681.685 1600.71 656.196C1609.76 630.295 1622.5 607.889 1638.95 588.977C1655.8 570.066 1676.36 555.471 1700.61 545.193C1724.87 534.504 1752.42 529.16 1783.25 529.16C1803.81 529.16 1822.31 531.832 1838.75 537.176C1855.2 542.521 1868.97 550.538 1880.07 561.227C1891.58 571.505 1900.42 584.455 1906.59 600.078C1913.16 615.7 1916.45 634.201 1916.45 655.579C1916.45 686.002 1911.93 714.164 1902.89 740.064C1894.25 765.554 1881.51 787.96 1864.65 807.282C1847.8 826.605 1827.24 841.611 1802.98 852.3C1779.14 862.989 1752 868.334 1721.58 868.334ZM1730.83 831.333C1740.7 831.333 1749.54 826.194 1757.35 815.916C1765.16 805.638 1771.74 792.276 1777.08 775.832C1782.43 758.976 1786.95 740.681 1790.65 720.947C1794.35 700.802 1797.02 680.863 1798.67 661.129C1800.31 640.984 1801.13 622.895 1801.13 606.861C1801.13 594.939 1799.08 585.277 1794.97 577.877C1791.27 570.066 1784.07 566.16 1773.38 566.16C1763.1 566.16 1754.06 571.299 1746.25 581.577C1738.85 591.444 1732.27 604.6 1726.51 621.045C1720.76 637.49 1716.24 655.785 1712.95 675.929C1709.66 695.663 1707.19 715.602 1705.55 735.747C1703.9 755.481 1703.08 773.776 1703.08 790.632C1703.08 802.554 1704.93 812.421 1708.63 820.233C1712.74 827.633 1720.14 831.333 1730.83 831.333ZM2034.5 979.336C2017.24 979.336 2000.17 978.514 1983.32 976.869C1966.87 975.636 1951.87 973.169 1938.3 969.469C1925.15 965.769 1914.66 960.013 1906.85 952.202C1899.04 944.391 1895.34 934.113 1895.75 921.368C1896.16 905.334 1902.53 892.795 1914.87 883.751C1926.79 875.117 1942.21 870.8 1961.12 870.8C1975.51 870.8 1987.64 873.061 1997.5 877.584C2007.37 882.517 2014.97 888.273 2020.32 894.851C2015.39 898.551 2012.1 902.251 2010.45 905.951C2009.22 909.651 2008.6 913.557 2008.6 917.668C2008.6 927.124 2012.71 933.702 2020.94 937.402C2029.16 941.513 2040.67 943.569 2055.47 943.569C2066.57 943.569 2077.05 941.719 2086.92 938.018C2096.79 934.318 2104.8 928.563 2110.97 920.751C2117.14 912.94 2120.43 903.073 2120.84 891.151C2121.25 879.228 2116.32 871.828 2106.04 868.95C2096.17 866.072 2079.93 864.634 2057.32 864.634C2031.42 864.634 2010.86 862.578 1995.65 858.467C1980.44 854.767 1969.55 849.011 1962.97 841.2C1956.39 832.977 1952.9 822.905 1952.48 810.982C1952.48 794.949 1957.21 780.971 1966.67 769.048C1976.54 756.714 1987.84 746.231 2000.59 737.597C1984.55 731.431 1972.01 721.769 1962.97 708.613C1953.92 695.458 1949.4 678.807 1949.4 658.662C1949.4 629.473 1957.01 605.422 1972.22 586.511C1987.84 567.188 2008.19 552.799 2033.27 543.343C2058.76 533.887 2086.51 529.16 2116.52 529.16C2131.73 529.16 2144.07 530.187 2153.52 532.243C2163.39 533.887 2171.82 535.737 2178.81 537.793C2185.8 539.849 2193.4 540.876 2201.62 540.876C2216.01 540.876 2226.7 536.56 2233.69 527.926C2240.68 519.293 2244.17 509.015 2244.17 497.092C2244.17 487.225 2241.09 479.003 2234.92 472.425C2241.5 465.436 2248.7 460.297 2256.51 457.008C2264.32 453.719 2272.34 452.075 2280.56 452.075C2292.07 452.075 2301.32 454.952 2308.31 460.708C2315.3 466.464 2318.79 475.097 2318.79 486.609C2318.79 499.353 2314.89 512.098 2307.08 524.843C2299.68 537.176 2289.4 547.865 2276.24 556.91C2263.09 565.544 2247.46 570.888 2229.37 572.944C2233.07 579.111 2235.95 585.689 2238.01 592.678C2240.06 599.667 2241.09 607.478 2241.09 616.111C2241.09 644.479 2233.69 668.735 2218.89 688.88C2204.09 709.025 2184.15 724.236 2159.07 734.514C2133.99 744.792 2106.04 749.931 2075.2 749.931C2070.68 749.931 2065.95 749.931 2061.02 749.931C2056.09 749.52 2050.95 749.109 2045.6 748.698C2043.55 750.753 2041.7 753.22 2040.05 756.098C2038.41 758.565 2037.59 761.442 2037.59 764.731C2037.59 770.076 2041.29 773.365 2048.69 774.598C2056.5 775.832 2068.01 776.448 2083.22 776.448H2123.92C2162.98 776.448 2191.14 783.026 2208.41 796.182C2226.08 808.927 2234.72 826.81 2234.31 849.833C2233.9 871.623 2227.52 890.534 2215.19 906.568C2203.27 923.013 2187.44 936.58 2167.71 947.269C2147.97 957.958 2126.59 965.975 2103.57 971.319C2080.55 976.664 2057.53 979.336 2034.5 979.336ZM2083.22 716.63C2095.97 716.63 2106.04 711.08 2113.44 699.98C2120.84 688.88 2126.39 675.107 2130.09 658.662C2133.79 642.218 2135.84 625.978 2136.26 609.945C2135.84 597.2 2133.79 585.894 2130.09 576.027C2126.39 566.16 2118.99 561.227 2107.89 561.227C2098.84 561.227 2090.83 564.927 2083.84 572.327C2077.26 579.316 2071.5 588.772 2066.57 600.694C2062.05 612.206 2058.55 624.539 2056.09 637.695C2054.03 650.44 2053.21 662.774 2053.62 674.696C2053.62 686.619 2055.68 696.691 2059.79 704.913C2063.9 712.725 2071.71 716.63 2083.22 716.63Z" fill="#0097B2"/>
</g>
<defs>
<linearGradient id="paint0_linear_721_1415" x1="2321.42" y1="1095.81" x2="4313.48" y2="4054.66" gradientUnits="userSpaceOnUse">
<stop stop-color="#0097B2"/>
<stop offset="1" stop-color="#BFD1A0"/>
</linearGradient>
<linearGradient id="paint1_linear_721_1415" x1="1203.25" y1="82.5749" x2="2441.84" y2="82.5749" gradientUnits="userSpaceOnUse">
<stop stop-color="#0097B2"/>
<stop offset="1" stop-color="#0097B2" stop-opacity="0.3"/>
</linearGradient>
</defs>
</svg>
