<svg width="1512" height="1320" viewBox="0 0 1512 1320" fill="none" xmlns="http://www.w3.org/2000/svg">
<mask id="mask0_1520_1692" style="mask-type:alpha" maskUnits="userSpaceOnUse" x="0" y="0" width="1512" height="1320">
<rect width="1512" height="1320" fill="#D9D9D9"/>
</mask>
<g mask="url(#mask0_1520_1692)">
<path d="M952.217 198.922H1003.69C1029.6 198.922 1050.6 177.917 1050.6 152.007C1050.6 126.096 1071.61 105.092 1097.52 105.092H1172.85C1202.46 105.092 1226.47 129.097 1226.47 158.709V250.394C1226.47 280.006 1250.47 304.011 1280.09 304.011H1533.69H1570.15C1592.07 304.011 1609.83 321.775 1609.83 343.688V968.862C1609.83 998.474 1585.82 1022.48 1556.21 1022.48H14.7235C-14.8884 1022.48 -38.8936 998.474 -38.8936 968.862V282.564C-38.8936 252.952 -14.8884 228.947 14.7235 228.947H147.158C176.769 228.947 200.775 252.952 200.775 282.564V343.688C200.775 373.299 224.78 397.305 254.392 397.305H351.438C381.05 397.305 405.055 373.299 405.055 343.688C405.055 314.076 429.061 290.071 458.672 290.071H514.166C528.824 290.071 540.706 301.953 540.706 316.611C540.706 331.269 552.589 343.151 567.247 343.151H617.915C647.527 343.151 671.532 319.146 671.532 289.534V158.709C671.532 129.097 695.537 105.092 725.149 105.092H858.387C884.298 105.092 905.302 126.096 905.302 152.007C905.302 177.917 926.307 198.922 952.217 198.922Z" fill="url(#paint0_linear_1520_1692)" fill-opacity="0.5"/>
<path d="M90.216 152.955V158.617H78.3774V178.691C78.3774 183.838 78.4632 187.956 84.3825 187.956C86.3556 187.956 88.5003 187.527 90.3018 186.584L90.5592 192.675C88.2429 193.704 85.2404 194.133 82.7526 194.133C73.2302 194.133 71.686 188.986 71.686 180.664V158.617H62.9357V152.955H71.686V141.545H78.3774V152.955H90.216ZM98.4141 193.104V128.248H105.105V158.531H105.277C107.079 155.357 111.883 151.926 118.145 151.926C128.697 151.926 133.415 158.617 133.415 168.311V193.104H126.724V168.997C126.724 162.306 123.807 158.102 117.545 158.102C108.88 158.102 105.105 164.365 105.105 173.544V193.104H98.4141ZM176.881 181.865L181.942 185.812C177.224 191.902 171.562 194.133 164.098 194.133C151.488 194.133 143.767 184.696 143.767 173.029C143.767 160.59 152.517 151.926 164.356 151.926C175.68 151.926 183.4 159.646 183.4 172.944V175.088H150.973C151.488 182.037 156.806 187.956 164.098 187.956C169.846 187.956 173.706 185.897 176.881 181.865ZM150.973 169.426H176.194C175.937 162.649 171.476 158.102 164.098 158.102C156.721 158.102 151.831 162.649 150.973 169.426Z" fill="#0097B2"/>
<path d="M735.443 166.598L727.551 174.405C725.663 172.089 723.176 170.888 720.087 170.888C717.943 170.888 715.369 171.831 715.369 174.319C715.369 180.496 737.073 175.263 737.073 191.134C737.073 201.771 726.779 204.86 717.857 204.86C712.023 204.86 705.589 203.401 701.471 199.198L709.278 190.533C711.68 193.45 714.511 195.08 718.372 195.08C721.288 195.08 724.205 194.308 724.205 192.077C724.205 185.386 702.501 191.048 702.501 175.177C702.501 165.397 711.251 161.108 720.002 161.108C725.492 161.108 731.583 162.481 735.443 166.598ZM744.87 223.39V162.137H756.709V167.628H756.881C758.854 164.625 763.829 161.108 769.663 161.108C782.016 161.108 790.166 170.03 790.166 182.641C790.166 194.222 782.96 204.86 771.121 204.86C765.803 204.86 760.827 203.401 757.91 199.369H757.739V223.39H744.87ZM756.709 182.984C756.709 189.246 760.57 193.536 767.004 193.536C773.438 193.536 777.298 189.246 777.298 182.984C777.298 176.721 773.438 172.432 767.004 172.432C760.57 172.432 756.709 176.721 756.709 182.984ZM796.161 182.984C796.161 169.687 806.456 161.108 819.324 161.108C832.192 161.108 842.486 169.687 842.486 182.984C842.486 196.281 832.192 204.86 819.324 204.86C806.456 204.86 796.161 196.281 796.161 182.984ZM809.029 182.984C809.029 189.246 812.89 193.536 819.324 193.536C825.758 193.536 829.618 189.246 829.618 182.984C829.618 176.721 825.758 172.432 819.324 172.432C812.89 172.432 809.029 176.721 809.029 182.984ZM878.461 162.137V172.432H867.137V186.329C867.137 190.79 867.652 194.05 873.228 194.05C874.601 194.05 877.346 193.879 878.461 192.849V203.573C875.63 204.602 872.456 204.86 869.454 204.86C860.875 204.86 854.269 201.342 854.269 192.249V172.432H846.034V162.137H854.269V149.784H867.137V162.137H878.461Z" fill="white"/>
<path d="M228.655 366.742V111.525H302.994C337.911 111.525 375.925 120.898 375.925 176.411C375.925 204.889 362.127 224.354 341.571 232.645V233.366C367.759 237.692 385.217 262.565 385.217 295.729C385.217 349.079 345.795 366.742 310.315 366.742H228.655ZM272.583 159.108V213.54H304.402C317.918 213.54 331.997 206.331 331.997 185.783C331.997 164.515 316.228 159.108 302.431 159.108H272.583ZM272.583 261.123V319.16H312.005C325.802 319.16 341.29 311.59 341.29 289.24C341.29 265.088 320.171 261.123 305.81 261.123H272.583Z" fill="#0097B2"/>
<path d="M401.303 269.457V131.9H428.615V269.457H401.303Z" fill="#0097B2"/>
<path d="M444.959 225.242C444.959 197.04 466.809 178.844 494.121 178.844C521.433 178.844 543.283 197.04 543.283 225.242C543.283 253.445 521.433 271.641 494.121 271.641C466.809 271.641 444.959 253.445 444.959 225.242ZM472.271 225.242C472.271 238.525 480.465 247.623 494.121 247.623C507.777 247.623 515.971 238.525 515.971 225.242C515.971 211.96 507.777 202.862 494.121 202.862C480.465 202.862 472.271 211.96 472.271 225.242Z" fill="#0097B2"/>
<path d="M652.23 181.028V261.997C652.23 295.295 635.297 313.126 601.066 313.126C585.407 313.126 569.384 310.397 556.638 300.207L571.751 277.645C580.127 284.741 589.413 289.108 600.52 289.108C617.089 289.108 624.918 280.01 624.918 267.456V258.904H624.554C618.364 267.456 607.803 270.549 599.609 270.549C573.39 270.549 556.092 251.626 556.092 224.879C556.092 201.407 571.387 178.844 596.514 178.844C611.991 178.844 622.551 186.304 626.739 192.673H627.103V181.028H652.23ZM583.404 224.697C583.404 236.16 592.872 246.531 605.254 246.531C617.635 246.531 627.103 236.16 627.103 224.697C627.103 213.234 617.635 202.862 605.254 202.862C592.872 202.862 583.404 213.234 583.404 224.697Z" fill="#0097B2"/>
<rect x="375.029" y="17.1582" width="386.043" height="17.1574" rx="8.57872" transform="rotate(180 375.029 17.1582)" fill="url(#paint1_linear_1520_1692)"/>
<circle cx="402.911" cy="8.57948" r="8.57872" transform="rotate(180 402.911 8.57948)" fill="#0097B2"/>
<circle cx="439.37" cy="8.57948" r="8.57872" transform="rotate(180 439.37 8.57948)" fill="#0097B2" fill-opacity="0.5"/>
<circle cx="475.829" cy="8.57948" r="8.57872" transform="rotate(180 475.829 8.57948)" fill="#0097B2" fill-opacity="0.3"/>
</g>
<defs>
<linearGradient id="paint0_linear_1520_1692" x1="723.541" y1="341.542" x2="1344.42" y2="1263.75" gradientUnits="userSpaceOnUse">
<stop stop-color="#0097B2"/>
<stop offset="1" stop-color="#BFD1A0"/>
</linearGradient>
<linearGradient id="paint1_linear_1520_1692" x1="375.029" y1="25.7369" x2="761.072" y2="25.7369" gradientUnits="userSpaceOnUse">
<stop stop-color="#0097B2"/>
<stop offset="1" stop-color="#0097B2" stop-opacity="0.3"/>
</linearGradient>
</defs>
</svg>
