<svg width="1512" height="1320" viewBox="0 0 1512 1320" fill="none" xmlns="http://www.w3.org/2000/svg">
<mask id="mask0_721_1411" style="mask-type:alpha" maskUnits="userSpaceOnUse" x="0" y="0" width="1512" height="1320">
<rect width="1512" height="1320" fill="#D9D9D9"/>
</mask>
<g mask="url(#mask0_721_1411)">
<path d="M952.217 198.92H1003.69C1029.6 198.92 1050.6 177.915 1050.6 152.005C1050.6 126.094 1071.61 105.09 1097.52 105.09H1172.85C1202.46 105.09 1226.47 129.095 1226.47 158.707V250.392C1226.47 280.004 1250.47 304.009 1280.09 304.009H1533.69H1570.15C1592.07 304.009 1609.83 321.773 1609.83 343.686V1034.27C1609.83 1063.88 1585.82 1087.89 1556.21 1087.89H1377.4H1194.57C1167.18 1087.89 1144.97 1065.69 1144.97 1038.29C1144.97 1010.9 1122.77 988.698 1095.37 988.698H958.919C929.307 988.698 905.302 1012.7 905.302 1042.32V1062.69C905.302 1092.3 881.297 1116.31 851.685 1116.31H774.209C748.298 1116.31 727.294 1095.3 727.294 1069.39C727.294 1043.48 706.289 1022.48 680.379 1022.48H14.7235C-14.8884 1022.48 -38.8936 998.472 -38.8936 968.86V282.562C-38.8936 252.95 -14.8884 228.945 14.7235 228.945H147.158C176.769 228.945 200.775 252.95 200.775 282.562V343.686C200.775 373.297 224.78 397.303 254.392 397.303H351.438C381.05 397.303 405.055 373.297 405.055 343.686C405.055 314.074 429.061 290.069 458.672 290.069H514.166C528.824 290.069 540.706 301.951 540.706 316.609C540.706 331.267 552.589 343.149 567.247 343.149H617.915C647.527 343.149 671.532 319.144 671.532 289.532V158.707C671.532 129.095 695.537 105.09 725.149 105.09H858.387C884.298 105.09 905.302 126.094 905.302 152.005C905.302 177.915 926.307 198.92 952.217 198.92Z" fill="url(#paint0_linear_721_1411)" fill-opacity="0.5"/>
<path d="M90.2165 152.953V158.615H78.3779V178.689C78.3779 183.837 78.4637 187.954 84.383 187.954C86.3561 187.954 88.5008 187.525 90.3023 186.582L90.5597 192.673C88.2434 193.702 85.2409 194.131 82.753 194.131C73.2307 194.131 71.6865 188.984 71.6865 180.662V158.615H62.9362V152.953H71.6865V141.543H78.3779V152.953H90.2165ZM98.4146 193.102V128.246H105.106V158.529H105.278C107.079 155.355 111.883 151.924 118.146 151.924C128.697 151.924 133.416 158.615 133.416 168.309V193.102H126.724V168.995C126.724 162.304 123.808 158.1 117.545 158.1C108.881 158.1 105.106 164.363 105.106 173.542V193.102H98.4146ZM176.881 181.863L181.943 185.81C177.224 191.901 171.562 194.131 164.099 194.131C151.488 194.131 143.767 184.694 143.767 173.027C143.767 160.588 152.517 151.924 164.356 151.924C175.68 151.924 183.401 159.645 183.401 172.942V175.086H150.973C151.488 182.035 156.807 187.954 164.099 187.954C169.847 187.954 173.707 185.895 176.881 181.863ZM150.973 169.424H176.195C175.937 162.647 171.476 158.1 164.099 158.1C156.721 158.1 151.831 162.647 150.973 169.424Z" fill="#0097B2"/>
<path d="M735.443 166.596L727.551 174.403C725.663 172.087 723.176 170.886 720.087 170.886C717.943 170.886 715.369 171.829 715.369 174.317C715.369 180.494 737.073 175.261 737.073 191.132C737.073 201.769 726.779 204.858 717.857 204.858C712.023 204.858 705.589 203.399 701.471 199.196L709.278 190.531C711.68 193.448 714.511 195.078 718.372 195.078C721.288 195.078 724.205 194.306 724.205 192.075C724.205 185.384 702.501 191.046 702.501 175.175C702.501 165.395 711.251 161.106 720.002 161.106C725.492 161.106 731.583 162.479 735.443 166.596ZM744.87 223.388V162.136H756.709V167.626H756.881C758.854 164.623 763.829 161.106 769.663 161.106C782.016 161.106 790.166 170.028 790.166 182.639C790.166 194.22 782.96 204.858 771.121 204.858C765.803 204.858 760.827 203.399 757.91 199.367H757.739V223.388H744.87ZM756.709 182.982C756.709 189.244 760.57 193.534 767.004 193.534C773.438 193.534 777.298 189.244 777.298 182.982C777.298 176.719 773.438 172.43 767.004 172.43C760.57 172.43 756.709 176.719 756.709 182.982ZM796.161 182.982C796.161 169.685 806.456 161.106 819.324 161.106C832.192 161.106 842.486 169.685 842.486 182.982C842.486 196.279 832.192 204.858 819.324 204.858C806.456 204.858 796.161 196.279 796.161 182.982ZM809.029 182.982C809.029 189.244 812.89 193.534 819.324 193.534C825.758 193.534 829.618 189.244 829.618 182.982C829.618 176.719 825.758 172.43 819.324 172.43C812.89 172.43 809.029 176.719 809.029 182.982ZM878.461 162.136V172.43H867.137V186.328C867.137 190.788 867.652 194.048 873.228 194.048C874.601 194.048 877.346 193.877 878.461 192.847V203.571C875.63 204.6 872.456 204.858 869.454 204.858C860.875 204.858 854.269 201.34 854.269 192.247V172.43H846.034V162.136H854.269V149.782H867.137V162.136H878.461Z" fill="white"/>
<path d="M228.655 366.74V111.523H302.994C337.911 111.523 375.925 120.896 375.925 176.409C375.925 204.887 362.127 224.352 341.571 232.643V233.364C367.759 237.69 385.217 262.563 385.217 295.727C385.217 349.077 345.795 366.74 310.315 366.74H228.655ZM272.583 159.106V213.538H304.402C317.918 213.538 331.997 206.329 331.997 185.781C331.997 164.513 316.228 159.106 302.431 159.106H272.583ZM272.583 261.121V319.158H312.005C325.802 319.158 341.29 311.588 341.29 289.238C341.29 265.086 320.171 261.121 305.81 261.121H272.583Z" fill="#0097B2"/>
<path d="M401.302 269.455V131.898H428.614V269.455H401.302Z" fill="#0097B2"/>
<path d="M444.959 225.241C444.959 197.038 466.808 178.842 494.12 178.842C521.432 178.842 543.282 197.038 543.282 225.241C543.282 253.443 521.432 271.639 494.12 271.639C466.808 271.639 444.959 253.443 444.959 225.241ZM472.271 225.241C472.271 238.523 480.464 247.621 494.12 247.621C507.776 247.621 515.97 238.523 515.97 225.241C515.97 211.958 507.776 202.86 494.12 202.86C480.464 202.86 472.271 211.958 472.271 225.241Z" fill="#0097B2"/>
<path d="M652.23 181.026V261.995C652.23 295.293 635.296 313.124 601.065 313.124C585.407 313.124 569.383 310.395 556.638 300.205L571.751 277.643C580.126 284.739 589.412 289.106 600.519 289.106C617.088 289.106 624.918 280.008 624.918 267.454V258.902H624.554C618.363 267.454 607.802 270.547 599.609 270.547C573.389 270.547 556.092 251.624 556.092 224.877C556.092 201.405 571.386 178.842 596.513 178.842C611.99 178.842 622.551 186.302 626.739 192.671H627.103V181.026H652.23ZM583.404 224.695C583.404 236.158 592.872 246.529 605.253 246.529C617.635 246.529 627.103 236.158 627.103 224.695C627.103 213.232 617.635 202.86 605.253 202.86C592.872 202.86 583.404 213.232 583.404 224.695Z" fill="#0097B2"/>
<rect x="375.03" y="17.1562" width="386.043" height="17.1574" rx="8.57872" transform="rotate(180 375.03 17.1562)" fill="url(#paint1_linear_721_1411)"/>
<circle cx="402.911" cy="8.57753" r="8.57872" transform="rotate(180 402.911 8.57753)" fill="#0097B2"/>
<circle cx="439.37" cy="8.57753" r="8.57872" transform="rotate(180 439.37 8.57753)" fill="#0097B2" fill-opacity="0.5"/>
<circle cx="475.83" cy="8.57753" r="8.57872" transform="rotate(180 475.83 8.57753)" fill="#0097B2" fill-opacity="0.3"/>
<rect x="1257.57" y="161.926" width="135.115" height="120.102" rx="32.1702" fill="#88CED8"/>
<rect x="938.009" y="1020.87" width="170.502" height="160.851" rx="32.1702" fill="#CDE3D1"/>
<rect x="601.294" y="1048.75" width="97.583" height="105.089" rx="32.1702" fill="#A8D7D5" fill-opacity="0.5"/>
<rect x="139.115" y="1048.75" width="345.294" height="105.089" rx="32.1702" fill="#95D2D6" fill-opacity="0.2"/>
<rect x="938.009" y="79.3555" width="95.4383" height="104.017" rx="32.1702" fill="#88CED8" fill-opacity="0.4"/>
<rect x="1430.21" y="45.0391" width="91.1489" height="86.8596" rx="32.1702" fill="#88CED8" fill-opacity="0.5"/>
<rect x="343.125" y="1215.6" width="770.175" height="103.95" rx="32.5862" fill="#95D2D6" fill-opacity="0.15"/>
<rect x="1159" y="1129.6" width="467.775" height="103.95" rx="32.5862" fill="#DFE8CF" fill-opacity="0.2"/>
<rect x="-114" y="1181.6" width="212.625" height="103.95" rx="32.5862" fill="#95D2D6" fill-opacity="0.1"/>
</g>
<defs>
<linearGradient id="paint0_linear_721_1411" x1="723.541" y1="341.541" x2="1344.43" y2="1263.75" gradientUnits="userSpaceOnUse">
<stop stop-color="#0097B2"/>
<stop offset="1" stop-color="#BFD1A0"/>
</linearGradient>
<linearGradient id="paint1_linear_721_1411" x1="375.03" y1="25.735" x2="761.072" y2="25.735" gradientUnits="userSpaceOnUse">
<stop stop-color="#0097B2"/>
<stop offset="1" stop-color="#0097B2" stop-opacity="0.3"/>
</linearGradient>
</defs>
</svg>
