<svg width="430" height="969" viewBox="0 0 430 969" fill="none" xmlns="http://www.w3.org/2000/svg">
<g clip-path="url(#clip0_814_1500)">
<g opacity="0.5">
<path d="M398 117.215V135.552C398 142.455 403.596 148.052 410.5 148.052C421.27 148.052 430 157.321 430.004 168.09C430.18 618.684 436.335 364.834 436.497 818.748C436.5 828.673 428.454 837.249 418.528 837.249H416.22C407.569 837.249 400.556 844.262 400.556 852.913C400.556 861.563 393.543 868.576 384.893 868.576H335.802C324.756 868.576 315.802 859.622 315.802 848.576V839.845C315.802 828.799 306.847 819.845 295.802 819.845H20C8.95431 819.845 0 810.891 0 799.845L4.85018e-05 185.345C4.93462e-05 174.299 8.95434 165.345 20 165.345H45.1123C56.158 165.345 65.1123 174.299 65.1123 185.345V236.669C65.1123 247.715 74.0666 256.669 85.1123 256.669H142.376C153.421 256.669 162.376 247.715 162.376 236.669V218.501C162.376 207.455 171.33 198.501 182.376 198.501H212.566C220.517 198.501 226.963 204.946 226.963 212.897C226.963 220.848 233.408 227.294 241.359 227.294H269.252C280.298 227.294 289.252 218.34 289.252 207.294V117.948C289.252 106.986 298.077 98.0661 309.039 97.9492L377.787 97.2157C388.915 97.0969 398 106.085 398 117.215Z" fill="url(#paint0_linear_814_1500)"/>
<path d="M0 165.456H19V192.142H0V165.456Z" fill="#0197B2"/>
<path d="M0 793.159H19V819.845H0V793.159Z" fill="#5CB3A9"/>
<path d="M421 810.562H430V837.249H421V810.562Z" fill="#B5CEA1"/>
<path d="M409 148.052H430V174.738H409V148.052Z" fill="#0197B2"/>
</g>
<rect x="115.307" y="51.9248" width="178.307" height="7.92477" rx="3.96238" transform="rotate(-180 115.307 51.9248)" fill="url(#paint1_linear_814_1500)"/>
<circle cx="128.185" cy="47.9624" r="3.96238" transform="rotate(-180 128.185 47.9624)" fill="#0097B2"/>
<circle cx="145.025" cy="47.9624" r="3.96238" transform="rotate(-180 145.025 47.9624)" fill="#0097B2" fill-opacity="0.5"/>
<circle cx="161.865" cy="47.9624" r="3.96238" transform="rotate(-180 161.865 47.9624)" fill="#0097B2" fill-opacity="0.3"/>
<path d="M18.4176 133.48V134.964H15.3157V140.224C15.3157 141.572 15.3382 142.651 16.8891 142.651C17.4061 142.651 17.9681 142.539 18.4401 142.292L18.5075 143.888C17.9006 144.157 17.1139 144.27 16.4621 144.27C13.9671 144.27 13.5625 142.921 13.5625 140.741V134.964H11.2697V133.48H13.5625V130.491H15.3157V133.48H18.4176ZM20.5656 144V127.007H22.3189V134.942H22.3639C22.8359 134.11 24.0946 133.211 25.7355 133.211C28.5003 133.211 29.7365 134.964 29.7365 137.504V144H27.9833V137.684C27.9833 135.931 27.219 134.829 25.5782 134.829C23.3079 134.829 22.3189 136.47 22.3189 138.875V144H20.5656ZM41.1251 141.055L42.4513 142.089C41.2151 143.685 39.7315 144.27 37.776 144.27C34.4718 144.27 32.4488 141.797 32.4488 138.74C32.4488 135.481 34.7415 133.211 37.8434 133.211C40.8105 133.211 42.8335 135.234 42.8335 138.718V139.28H34.3369C34.4718 141.1 35.8654 142.651 37.776 142.651C39.282 142.651 40.2935 142.112 41.1251 141.055ZM34.3369 137.796H40.9453C40.8779 136.02 39.7091 134.829 37.776 134.829C35.8429 134.829 34.5617 136.02 34.3369 137.796Z" fill="#0097B2"/>
<path d="M77 219V108H113.561C130.734 108 149.43 112.076 149.43 136.22C149.43 148.606 142.644 157.072 132.534 160.678V160.992C145.414 162.873 154 173.691 154 188.114C154 211.318 134.612 219 117.162 219H77ZM98.6043 128.695V152.369H114.254C120.901 152.369 127.826 149.233 127.826 140.297C127.826 131.047 120.07 128.695 113.284 128.695H98.6043ZM98.6043 173.064V198.305H117.993C124.779 198.305 132.396 195.013 132.396 185.292C132.396 174.788 122.009 173.064 114.946 173.064H98.6043Z" fill="#0097B2"/>
<path d="M156 175.554V108H169.606V175.554H156Z" fill="#0097B2"/>
<path d="M177.748 153.84C177.748 139.99 188.632 131.054 202.238 131.054C215.843 131.054 226.727 139.99 226.727 153.84C226.727 167.691 215.843 176.627 202.238 176.627C188.632 176.627 177.748 167.691 177.748 153.84ZM191.353 153.84C191.353 160.363 195.435 164.831 202.238 164.831C209.04 164.831 213.122 160.363 213.122 153.84C213.122 147.317 209.04 142.849 202.238 142.849C195.435 142.849 191.353 147.317 191.353 153.84Z" fill="#0097B2"/>
<path d="M281 132.127V171.891C281 188.243 272.565 197 255.512 197C247.712 197 239.73 195.66 233.381 190.656L240.909 179.575C245.081 183.06 249.707 185.205 255.24 185.205C263.494 185.205 267.394 180.737 267.394 174.571V170.371H267.213C264.129 174.571 258.868 176.09 254.787 176.09C241.725 176.09 233.109 166.797 233.109 153.662C233.109 142.135 240.728 131.054 253.245 131.054C260.955 131.054 266.215 134.718 268.302 137.845H268.483V132.127H281ZM246.714 153.572C246.714 159.202 251.431 164.295 257.599 164.295C263.766 164.295 268.483 159.202 268.483 153.572C268.483 147.943 263.766 142.849 257.599 142.849C251.431 142.849 246.714 147.943 246.714 153.572Z" fill="#0097B2"/>
<path d="M317.877 119.989L314.18 123.646C313.296 122.561 312.131 121.998 310.684 121.998C309.68 121.998 308.474 122.44 308.474 123.606C308.474 126.499 318.64 124.048 318.64 131.482C318.64 136.464 313.818 137.911 309.639 137.911C306.907 137.911 303.893 137.228 301.964 135.259L305.621 131.2C306.746 132.567 308.072 133.33 309.88 133.33C311.247 133.33 312.613 132.968 312.613 131.924C312.613 128.789 302.447 131.441 302.447 124.008C302.447 119.427 306.545 117.418 310.644 117.418C313.216 117.418 316.069 118.061 317.877 119.989ZM322.293 146.59V117.9H327.838V120.471H327.918C328.842 119.065 331.173 117.418 333.905 117.418C339.692 117.418 343.509 121.597 343.509 127.504C343.509 132.928 340.134 137.911 334.589 137.911C332.097 137.911 329.767 137.228 328.4 135.339H328.32V146.59H322.293ZM327.838 127.664C327.838 130.598 329.646 132.607 332.66 132.607C335.674 132.607 337.482 130.598 337.482 127.664C337.482 124.731 335.674 122.722 332.66 122.722C329.646 122.722 327.838 124.731 327.838 127.664ZM346.317 127.664C346.317 121.436 351.139 117.418 357.167 117.418C363.194 117.418 368.016 121.436 368.016 127.664C368.016 133.893 363.194 137.911 357.167 137.911C351.139 137.911 346.317 133.893 346.317 127.664ZM352.345 127.664C352.345 130.598 354.153 132.607 357.167 132.607C360.18 132.607 361.989 130.598 361.989 127.664C361.989 124.731 360.18 122.722 357.167 122.722C354.153 122.722 352.345 124.731 352.345 127.664ZM384.867 117.9V122.722H379.563V129.231C379.563 131.321 379.804 132.848 382.416 132.848C383.059 132.848 384.345 132.767 384.867 132.285V137.308C383.541 137.79 382.054 137.911 380.648 137.911C376.629 137.911 373.535 136.263 373.535 132.004V122.722H369.678V117.9H373.535V112.113H379.563V117.9H384.867Z" fill="white"/>
<rect x="406" y="71" width="62.8621" height="55.8774" rx="14.9672" fill="#88CED8"/>
<rect x="354" width="44" height="44" rx="14" fill="#88CED8" fill-opacity="0.5"/>
<rect x="254" y="44" width="32" height="37" rx="10" fill="#88CED8" fill-opacity="0.2"/>
<rect x="232" y="909" width="63" height="60" rx="20" fill="#A8D7D5" fill-opacity="0.5"/>
<rect x="-114" y="909" width="296" height="60" rx="20" fill="#95D2D6" fill-opacity="0.2"/>
<rect x="407" y="847" width="139" height="84" rx="15" fill="#CDE3D1"/>
</g>
<defs>
<linearGradient id="paint0_linear_814_1500" x1="314.015" y1="226.421" x2="665.092" y2="684.131" gradientUnits="userSpaceOnUse">
<stop stop-color="#0097B2"/>
<stop offset="1" stop-color="#BFD1A0"/>
</linearGradient>
<linearGradient id="paint1_linear_814_1500" x1="115.307" y1="55.8872" x2="293.615" y2="55.8872" gradientUnits="userSpaceOnUse">
<stop stop-color="#0097B2"/>
<stop offset="1" stop-color="#0097B2" stop-opacity="0.3"/>
</linearGradient>
<clipPath id="clip0_814_1500">
<rect width="430" height="969" fill="white"/>
</clipPath>
</defs>
</svg>
