<svg width="430" height="969" viewBox="0 0 430 969" fill="none" xmlns="http://www.w3.org/2000/svg">
<g clip-path="url(#clip0_1184_1440)">
<g opacity="0.5">
<path d="M398.001 139.5V143C398.001 151.837 405.165 159 414.001 159C422.838 159 430.001 166.679 430.004 175.516C430.149 630.7 436.335 363.941 436.497 818.74C436.5 828.666 428.454 837.249 418.528 837.249H416.22C407.569 837.249 400.556 844.262 400.556 852.913C400.556 861.564 393.543 868.577 384.893 868.577H335.802C324.756 868.577 315.802 859.622 315.802 848.577V839.846C315.802 828.8 306.847 819.846 295.802 819.846H20C8.95431 819.846 0 810.891 0 799.845L4.85425e-05 184.812C4.93708e-05 173.977 8.63156 165.14 19.4614 165.496C33.246 165.948 51.7084 167.28 65.7573 170.962C76.4154 173.756 76.7731 185.544 70.7569 194.775C69.1676 197.213 67.8056 199.583 66.6399 201.834C61.5796 211.605 68.8076 221.714 79.7873 222.443C107.479 224.279 156.01 224.017 170.312 201.63C172.502 198.201 175.016 195.14 179.064 194.74C189.356 193.724 209.653 193.787 220.23 193.902C224.3 193.946 227.86 196.579 229.147 200.441C229.705 202.115 230.68 203.654 232.19 204.567C246.322 213.109 275.787 205.004 281 196C287.198 183.26 285.097 178.582 282.534 175.598C280.512 173.242 279.925 170.373 282.176 168.235C283.548 166.932 285.175 165.489 286.362 163.895C289.384 159.835 281.373 155.053 285.135 151.666C285.792 151.074 286.584 150.471 287.436 149.881C292.243 146.551 295.366 141.034 294.442 135.26C293.161 127.253 299.346 120 307.454 120H378.501C389.271 120 398.001 128.73 398.001 139.5Z" fill="url(#paint0_linear_1184_1440)"/>
<path d="M0 165.455H19V192.141H0V165.455Z" fill="#0197B2"/>
<path d="M0 793.158H19V819.844H0V793.158Z" fill="#5CB3A9"/>
<path d="M421 810.562H430V837.249H421V810.562Z" fill="#B5CEA1"/>
<path d="M409 159H430V187H409V159Z" fill="#0C9BB1"/>
</g>
<rect x="115.308" y="51.9258" width="178.307" height="7.92477" rx="3.96238" transform="rotate(-180 115.308 51.9258)" fill="url(#paint1_linear_1184_1440)"/>
<circle cx="128.185" cy="47.9634" r="3.96238" transform="rotate(-180 128.185 47.9634)" fill="#0097B2"/>
<circle cx="145.025" cy="47.9634" r="3.96238" transform="rotate(-180 145.025 47.9634)" fill="#0097B2" fill-opacity="0.5"/>
<circle cx="161.865" cy="47.9634" r="3.96238" transform="rotate(-180 161.865 47.9634)" fill="#0097B2" fill-opacity="0.3"/>
<rect x="406" y="71" width="62.8621" height="55.8774" rx="14.9672" fill="#88CED8"/>
<rect x="354" width="44" height="44" rx="14" fill="#88CED8" fill-opacity="0.5"/>
<rect x="254" y="44" width="32" height="37" rx="10" fill="#88CED8" fill-opacity="0.2"/>
<rect x="232" y="909" width="63" height="60" rx="20" fill="#A8D7D5" fill-opacity="0.5"/>
<rect x="-114" y="909" width="296" height="60" rx="20" fill="#95D2D6" fill-opacity="0.2"/>
<rect x="407" y="847" width="139" height="84" rx="15" fill="#CDE3D1"/>
<path d="M105.66 213.569C100.405 213.569 95.4483 213.272 90.7886 212.677C86.1289 212.181 82.3119 211.338 79.3376 210.149C76.3634 208.959 74.6284 207.422 74.1326 205.539C75.7189 204.845 76.9086 203.903 77.7018 202.713C78.5941 201.523 79.2881 199.887 79.7838 197.805C80.3786 195.624 80.9735 192.799 81.5683 189.329L89.5989 147.094C90.8877 139.857 93.3663 134.305 97.0346 130.438C100.703 126.472 106.304 124.49 113.839 124.49C117.706 124.49 120.978 125.184 123.654 126.572C126.331 127.96 127.818 129.843 128.116 132.223C125.34 133.214 123.555 135.098 122.762 137.874C121.969 140.551 121.275 143.426 120.68 146.499L119.49 152.745H120.978C126.43 152.745 130.743 151.853 133.916 150.068C137.187 148.284 139.517 146.053 140.905 143.376C142.293 140.699 142.987 137.923 142.987 135.048C142.987 129.496 140.459 125.134 135.403 121.961C130.346 118.789 123.555 117.203 115.029 117.203C110.766 117.203 106.453 117.797 102.091 118.987C97.8277 120.078 93.9116 121.813 90.3425 124.192C86.7733 126.572 83.8982 129.546 81.7171 133.115C79.5359 136.684 78.4454 140.947 78.4454 145.904C78.4454 148.879 78.6932 151.655 79.1889 154.232C79.7838 156.81 80.8743 159.735 82.4606 163.006C80.9735 164.593 79.1889 165.782 77.1069 166.576C75.1241 167.27 73.2899 167.617 71.6045 167.617C67.2422 167.617 63.5244 166.625 60.451 164.642C57.3775 162.659 55.0477 160.082 53.4614 156.909C51.9743 153.637 51.2307 150.217 51.2307 146.648C51.2307 139.311 53.7093 132.669 58.6664 126.72C63.6235 120.772 70.8609 116.112 80.3786 112.741C89.8963 109.271 101.496 107.536 115.178 107.536C121.325 107.536 127.471 107.933 133.618 108.726C139.765 109.519 145.367 110.857 150.423 112.741C155.479 114.625 159.544 117.153 162.617 120.326C165.691 123.498 167.228 127.464 167.228 132.223C167.228 135.693 166.385 138.915 164.699 141.889C163.014 144.764 160.833 147.342 158.156 149.622C155.578 151.803 152.852 153.538 149.977 154.827C152.554 155.62 155.231 156.86 158.007 158.545C160.882 160.131 163.311 162.362 165.294 165.237C167.277 168.112 168.269 171.88 168.269 176.539C168.269 181.596 167.178 186.354 164.997 190.816C162.816 195.277 159.296 199.243 154.438 202.713C149.679 206.084 143.285 208.711 135.254 210.595C127.224 212.578 117.359 213.569 105.66 213.569ZM110.716 203.308C116.863 203.308 122.019 202.168 126.183 199.887C130.446 197.607 133.618 194.583 135.7 190.816C137.782 186.949 138.823 182.736 138.823 178.175C138.823 172.822 136.989 169.005 133.321 166.724C129.752 164.444 124.497 163.155 117.557 162.858L113.096 186.206C112.005 191.559 110.815 195.525 109.527 198.103C108.238 200.681 106.899 202.267 105.511 202.862C106.503 202.961 107.395 203.06 108.188 203.159C109.08 203.258 109.923 203.308 110.716 203.308Z" fill="#0097B2"/>
<path d="M182.743 185.499C180.295 185.499 178.246 184.874 176.598 183.625C174.999 182.326 174.199 180.377 174.199 177.779C174.199 176.63 174.324 175.156 174.574 173.357C174.824 171.558 175.149 169.585 175.548 167.436C175.998 165.288 176.448 163.114 176.897 160.916C177.397 158.667 177.872 156.519 178.321 154.47C178.821 152.421 179.246 150.623 179.596 149.074C179.945 147.475 180.17 146.251 180.27 145.401C180.82 142.553 181.219 140.18 181.469 138.281C181.719 136.382 181.844 134.758 181.844 133.409C181.844 132.61 181.794 131.885 181.694 131.236C181.644 130.586 181.544 130.012 181.394 129.512C182.494 128.912 183.768 128.438 185.217 128.088C186.716 127.688 188.165 127.488 189.564 127.488C191.413 127.488 193.061 127.938 194.51 128.837C195.959 129.737 196.684 131.386 196.684 133.784C196.684 134.384 196.609 135.183 196.459 136.182C196.359 137.182 196.209 138.381 196.009 139.78C195.81 141.129 195.56 142.603 195.26 144.202C194.96 145.801 194.61 147.5 194.211 149.299C193.211 154.145 192.387 158.118 191.737 161.215C191.088 164.313 190.563 166.812 190.163 168.71C189.814 170.559 189.539 171.958 189.339 172.908C189.189 173.857 189.089 174.531 189.039 174.931C188.989 175.331 188.964 175.681 188.964 175.98C188.964 176.93 189.239 177.804 189.789 178.604C190.338 179.403 191.238 179.853 192.487 179.953C192.087 181.202 191.363 182.251 190.313 183.101C189.314 183.9 188.14 184.5 186.791 184.899C185.492 185.299 184.142 185.499 182.743 185.499ZM213.299 185.499C210.851 185.499 208.602 185.174 206.554 184.525C204.555 183.875 202.831 182.901 201.382 181.602C199.983 180.303 198.909 178.679 198.159 176.73C197.41 174.781 197.035 172.508 197.035 169.91C197.035 166.212 197.56 162.814 198.609 159.716C199.708 156.569 201.257 153.845 203.256 151.547C205.305 149.249 207.803 147.475 210.751 146.226C213.699 144.927 217.047 144.277 220.794 144.277C223.292 144.277 225.541 144.602 227.54 145.251C229.538 145.901 231.212 146.875 232.561 148.174C233.96 149.423 235.034 150.997 235.784 152.896C236.583 154.795 236.983 157.043 236.983 159.642C236.983 163.339 236.434 166.762 235.334 169.91C234.285 173.007 232.736 175.731 230.687 178.079C228.639 180.427 226.141 182.251 223.193 183.55C220.294 184.849 216.997 185.499 213.299 185.499ZM214.423 181.002C215.623 181.002 216.697 180.377 217.646 179.128C218.596 177.879 219.395 176.255 220.045 174.257C220.694 172.208 221.244 169.985 221.694 167.586C222.143 165.138 222.468 162.714 222.668 160.316C222.868 157.868 222.968 155.669 222.968 153.721C222.968 152.272 222.718 151.097 222.218 150.198C221.768 149.249 220.894 148.774 219.595 148.774C218.346 148.774 217.247 149.398 216.297 150.648C215.398 151.847 214.598 153.446 213.899 155.444C213.199 157.443 212.65 159.667 212.25 162.115C211.85 164.513 211.55 166.937 211.351 169.385C211.151 171.783 211.051 174.007 211.051 176.055C211.051 177.504 211.276 178.704 211.725 179.653C212.225 180.552 213.124 181.002 214.423 181.002ZM251.331 198.99C249.232 198.99 247.158 198.89 245.11 198.69C243.111 198.54 241.287 198.24 239.639 197.791C238.04 197.341 236.766 196.641 235.816 195.692C234.867 194.743 234.417 193.494 234.467 191.945C234.517 189.996 235.292 188.472 236.791 187.373C238.24 186.323 240.113 185.799 242.412 185.799C244.161 185.799 245.635 186.074 246.834 186.623C248.033 187.223 248.957 187.922 249.607 188.722C249.007 189.171 248.608 189.621 248.408 190.071C248.258 190.521 248.183 190.995 248.183 191.495C248.183 192.644 248.682 193.444 249.682 193.893C250.681 194.393 252.08 194.643 253.879 194.643C255.228 194.643 256.502 194.418 257.701 193.968C258.901 193.519 259.875 192.819 260.624 191.87C261.374 190.92 261.774 189.721 261.824 188.272C261.874 186.823 261.274 185.924 260.025 185.574C258.826 185.224 256.852 185.049 254.104 185.049C250.956 185.049 248.458 184.799 246.609 184.3C244.76 183.85 243.436 183.151 242.637 182.201C241.837 181.202 241.412 179.978 241.362 178.529C241.362 176.58 241.937 174.881 243.086 173.432C244.285 171.933 245.66 170.659 247.208 169.61C245.26 168.86 243.736 167.686 242.637 166.087C241.537 164.488 240.988 162.465 240.988 160.016C240.988 156.469 241.912 153.546 243.761 151.247C245.66 148.899 248.133 147.15 251.181 146.001C254.279 144.852 257.651 144.277 261.299 144.277C263.148 144.277 264.647 144.402 265.796 144.652C266.995 144.852 268.019 145.076 268.869 145.326C269.718 145.576 270.643 145.701 271.642 145.701C273.391 145.701 274.69 145.176 275.539 144.127C276.389 143.078 276.813 141.829 276.813 140.38C276.813 139.18 276.439 138.181 275.689 137.382C276.489 136.532 277.363 135.908 278.312 135.508C279.262 135.108 280.236 134.908 281.235 134.908C282.634 134.908 283.759 135.258 284.608 135.958C285.458 136.657 285.882 137.706 285.882 139.105C285.882 140.654 285.408 142.203 284.458 143.752C283.559 145.251 282.31 146.55 280.711 147.65C279.112 148.699 277.213 149.349 275.015 149.598C275.464 150.348 275.814 151.147 276.064 151.997C276.314 152.846 276.439 153.795 276.439 154.845C276.439 158.292 275.539 161.24 273.74 163.689C271.942 166.137 269.518 167.986 266.47 169.235C263.422 170.484 260.025 171.109 256.277 171.109C255.728 171.109 255.153 171.109 254.553 171.109C253.954 171.059 253.329 171.009 252.68 170.959C252.43 171.209 252.205 171.508 252.005 171.858C251.805 172.158 251.705 172.508 251.705 172.908C251.705 173.557 252.155 173.957 253.054 174.107C254.004 174.257 255.403 174.332 257.252 174.332H262.198C266.945 174.332 270.368 175.131 272.466 176.73C274.615 178.279 275.664 180.452 275.614 183.251C275.564 185.899 274.79 188.197 273.291 190.146C271.842 192.144 269.918 193.793 267.52 195.092C265.121 196.392 262.523 197.366 259.725 198.015C256.927 198.665 254.129 198.99 251.331 198.99ZM257.252 167.061C258.801 167.061 260.025 166.387 260.924 165.038C261.824 163.689 262.498 162.015 262.948 160.016C263.397 158.018 263.647 156.044 263.697 154.095C263.647 152.546 263.397 151.172 262.948 149.973C262.498 148.774 261.599 148.174 260.25 148.174C259.15 148.174 258.176 148.624 257.327 149.523C256.527 150.373 255.828 151.522 255.228 152.971C254.678 154.37 254.254 155.869 253.954 157.468C253.704 159.017 253.604 160.516 253.654 161.965C253.654 163.414 253.904 164.638 254.404 165.637C254.903 166.587 255.853 167.061 257.252 167.061Z" fill="#0097B2"/>
<path d="M311.431 165.914C310.323 165.914 309.216 165.831 308.108 165.665C307.029 165.526 306.032 165.277 305.118 164.917C304.232 164.557 303.526 164.086 303 163.505C302.474 162.896 302.211 162.148 302.211 161.262C302.239 160.459 302.446 159.795 302.834 159.269C303.194 158.715 303.72 158.3 304.412 158.023C305.104 157.746 305.893 157.607 306.779 157.607C307.333 157.607 307.901 157.677 308.482 157.815C309.091 157.926 309.59 158.106 309.977 158.355C309.839 158.881 309.742 159.366 309.687 159.809C309.659 160.224 309.645 160.708 309.645 161.262C309.673 161.954 309.908 162.522 310.351 162.965C310.822 163.408 311.445 163.629 312.22 163.629C313.051 163.629 313.715 163.436 314.214 163.048C314.712 162.66 314.961 162.162 314.961 161.553C314.989 160.833 314.684 160.168 314.047 159.559C313.438 158.95 312.663 158.355 311.722 157.773C310.808 157.192 309.867 156.583 308.897 155.946C308.095 155.392 307.361 154.811 306.696 154.202C306.059 153.565 305.547 152.873 305.16 152.125C304.772 151.35 304.578 150.492 304.578 149.55C304.606 148.443 304.938 147.474 305.575 146.643C306.212 145.812 307.056 145.134 308.108 144.608C309.161 144.054 310.323 143.653 311.597 143.404C312.871 143.127 314.158 142.988 315.459 142.988C316.761 142.988 318.034 143.141 319.28 143.445C320.554 143.75 321.592 144.248 322.395 144.94C323.198 145.605 323.6 146.518 323.6 147.681C323.572 148.872 323.171 149.758 322.395 150.339C321.62 150.921 320.609 151.211 319.363 151.211C318.837 151.211 318.284 151.142 317.702 151.004C317.121 150.865 316.609 150.672 316.166 150.422C316.276 150.09 316.373 149.73 316.456 149.343C316.539 148.955 316.595 148.553 316.622 148.138C316.65 147.252 316.456 146.546 316.041 146.02C315.626 145.466 315.016 145.176 314.214 145.148C313.604 145.148 313.064 145.328 312.594 145.688C312.123 146.02 311.874 146.532 311.846 147.224C311.819 147.861 312.04 148.47 312.511 149.052C313.009 149.633 313.646 150.201 314.421 150.755C315.224 151.281 316.069 151.807 316.955 152.333C317.924 152.914 318.796 153.523 319.571 154.16C320.346 154.769 320.956 155.462 321.399 156.237C321.869 156.984 322.105 157.884 322.105 158.936C322.077 160.265 321.648 161.456 320.817 162.508C319.986 163.56 318.782 164.391 317.204 165C315.626 165.581 313.701 165.886 311.431 165.914ZM333.904 165.789C333.323 165.789 332.825 165.748 332.409 165.665C331.994 165.609 331.468 165.485 330.831 165.291L323.563 164.668L327.55 143.819L334.486 142.988L333.946 146.186C334.638 145.3 335.51 144.539 336.562 143.902C337.615 143.265 338.861 142.947 340.3 142.947C341.934 142.947 343.249 143.279 344.246 143.943C345.27 144.608 346.004 145.549 346.447 146.768C346.918 147.986 347.153 149.453 347.153 151.17C347.153 153.247 346.848 155.185 346.239 156.984C345.658 158.756 344.786 160.307 343.623 161.636C342.488 162.937 341.103 163.962 339.47 164.709C337.836 165.429 335.981 165.789 333.904 165.789ZM326.844 173.306C325.681 173.306 324.754 173.002 324.061 172.393C323.397 171.783 323.065 170.773 323.065 169.361C323.065 169.056 323.078 168.696 323.106 168.281C323.134 167.893 323.175 167.464 323.231 166.994C323.286 166.523 323.355 166.038 323.438 165.54C323.494 165.042 323.577 164.529 323.688 164.003L331.703 164.917C331.565 165.637 331.413 166.426 331.246 167.284C331.108 168.17 331.039 169.042 331.039 169.901C331.039 170.288 331.053 170.662 331.08 171.022C331.136 171.382 331.205 171.728 331.288 172.06C330.651 172.448 329.931 172.753 329.128 172.974C328.353 173.196 327.592 173.306 326.844 173.306ZM334.278 163.339C335.081 163.339 335.773 163.006 336.355 162.342C336.936 161.65 337.421 160.736 337.808 159.601C338.196 158.466 338.501 157.247 338.722 155.946C338.971 154.617 339.137 153.316 339.22 152.042C339.331 150.768 339.387 149.647 339.387 148.678C339.387 147.958 339.29 147.321 339.096 146.768C338.902 146.186 338.445 145.895 337.725 145.895C337.005 145.895 336.396 146.172 335.898 146.726C335.427 147.28 335.053 147.958 334.777 148.761C334.5 149.564 334.292 150.339 334.154 151.087L332.119 162.55C332.423 162.799 332.769 162.993 333.157 163.131C333.572 163.27 333.946 163.339 334.278 163.339ZM357.372 165.831C356.015 165.831 354.769 165.651 353.634 165.291C352.527 164.931 351.571 164.391 350.769 163.671C349.993 162.951 349.398 162.051 348.983 160.971C348.567 159.892 348.36 158.632 348.36 157.192C348.36 155.143 348.65 153.26 349.232 151.544C349.841 149.799 350.699 148.29 351.807 147.017C352.942 145.743 354.326 144.76 355.96 144.068C357.594 143.348 359.449 142.988 361.525 142.988C362.91 142.988 364.156 143.168 365.263 143.528C366.371 143.888 367.298 144.428 368.046 145.148C368.821 145.84 369.416 146.712 369.832 147.764C370.275 148.817 370.496 150.062 370.496 151.502C370.496 153.551 370.191 155.448 369.582 157.192C369.001 158.909 368.143 160.418 367.007 161.719C365.872 163.02 364.488 164.031 362.854 164.751C361.248 165.471 359.421 165.831 357.372 165.831ZM357.995 163.339C358.66 163.339 359.255 162.993 359.781 162.3C360.307 161.608 360.75 160.708 361.11 159.601C361.47 158.466 361.774 157.234 362.024 155.905C362.273 154.548 362.453 153.205 362.563 151.876C362.674 150.519 362.73 149.301 362.73 148.221C362.73 147.418 362.591 146.768 362.314 146.269C362.065 145.743 361.581 145.48 360.861 145.48C360.169 145.48 359.559 145.826 359.033 146.518C358.535 147.183 358.092 148.069 357.704 149.176C357.317 150.284 357.012 151.516 356.791 152.873C356.569 154.202 356.403 155.545 356.292 156.901C356.181 158.23 356.126 159.462 356.126 160.598C356.126 161.401 356.251 162.065 356.5 162.591C356.777 163.09 357.275 163.339 357.995 163.339ZM377.491 165.831C376.134 165.831 374.972 165.471 374.003 164.751C373.033 164.031 372.549 162.965 372.549 161.553C372.549 160.999 372.604 160.307 372.715 159.476C372.853 158.618 373.006 157.704 373.172 156.735C373.338 155.766 373.504 154.852 373.67 153.994C373.864 153.108 374.003 152.402 374.086 151.876L375.29 145.688H372.84L373.006 144.442C374.667 143.943 376.314 143.265 377.948 142.407C379.582 141.548 381.188 140.51 382.766 139.292H384.759L383.762 143.819H387.002L386.628 145.688H383.43L381.021 158.396C380.966 158.756 380.911 159.116 380.855 159.476C380.8 159.809 380.772 160.141 380.772 160.473C380.772 161.497 381.021 162.148 381.52 162.425C382.018 162.702 382.683 162.743 383.513 162.55C383.126 163.463 382.6 164.169 381.935 164.668C381.271 165.138 380.551 165.443 379.775 165.581C379.028 165.748 378.266 165.831 377.491 165.831Z" fill="white"/>
<path d="M16.587 159.548C16.2435 159.55 15.9421 159.442 15.6829 159.223C15.4237 159.004 15.2926 158.686 15.2896 158.269C15.2878 158.024 15.3221 157.68 15.3926 157.238C15.4629 156.783 15.5453 156.304 15.6398 155.801C15.7344 155.297 15.8291 154.818 15.9239 154.363C16.031 153.896 16.108 153.522 16.1551 153.239L16.6698 150.604L15.3633 150.613L15.4329 150.061C16.0202 149.835 16.6008 149.537 17.1747 149.165C17.7487 148.792 18.2549 148.384 18.6933 147.939L19.2638 147.935L18.9089 149.759L20.3442 149.749L20.1845 150.578L18.7308 150.589L17.5061 156.855C17.4707 157.051 17.4413 157.229 17.4179 157.389C17.3945 157.536 17.3771 157.678 17.3658 157.813C17.3559 158.144 17.4189 158.377 17.5548 158.511C17.6907 158.632 17.9362 158.655 18.2914 158.579C18.1827 158.813 18.0429 158.998 17.8722 159.134C17.7136 159.27 17.5242 159.37 17.3038 159.432C17.0835 159.508 16.8446 159.546 16.587 159.548ZM27.1428 159.454C26.7625 159.456 26.455 159.348 26.2203 159.129C25.998 158.922 25.8851 158.573 25.8816 158.083C25.8796 157.813 25.9139 157.463 25.9844 157.033C26.0672 156.603 26.1621 156.148 26.269 155.669C26.3759 155.177 26.4828 154.692 26.5898 154.213C26.6968 153.734 26.7857 153.304 26.8566 152.923C26.9396 152.53 26.9804 152.223 26.9788 152.002C26.9758 151.597 26.8694 151.291 26.6593 151.084C26.4492 150.865 26.1723 150.756 25.8288 150.759C25.3504 150.762 24.9468 150.931 24.6179 151.264C24.2891 151.598 24.0222 152.017 23.8172 152.521C23.6122 153.014 23.4624 153.505 23.3678 153.997L22.4109 159.12L20.3147 159.356L21.8919 150.934L23.587 151.216C23.9508 150.625 24.3953 150.168 24.9205 149.845C25.4579 149.51 26.0579 149.34 26.7203 149.335C27.4687 149.33 28.0405 149.522 28.4359 149.912C28.8312 150.289 29.0314 150.828 29.0364 151.527C29.0389 151.87 29.005 152.269 28.9346 152.724C28.8643 153.178 28.7696 153.663 28.6507 154.18C28.5439 154.683 28.437 155.175 28.33 155.654C28.2231 156.133 28.1281 156.57 28.045 156.963C27.9742 157.356 27.9396 157.663 27.9412 157.884C27.9426 158.068 27.9805 158.221 28.0549 158.343C28.1294 158.465 28.2772 158.538 28.4982 158.561C28.4268 158.868 28.2628 159.09 28.0061 159.227C27.7495 159.376 27.4618 159.451 27.1428 159.454ZM23.5893 151.529L21.8386 151.192C21.9331 150.689 22.0273 150.136 22.1211 149.534C22.2271 148.92 22.3086 148.318 22.3657 147.729C22.4351 147.139 22.4744 146.63 22.4836 146.2C22.4825 146.053 22.4754 145.924 22.4624 145.814C22.4616 145.704 22.4486 145.6 22.4233 145.502C22.5454 145.415 22.6922 145.352 22.8636 145.314C23.035 145.264 23.2066 145.238 23.3784 145.237C23.7096 145.235 24.0109 145.331 24.2822 145.525C24.5534 145.707 24.6908 146.043 24.6943 146.534C24.6954 146.694 24.6726 146.933 24.6258 147.252C24.579 147.559 24.514 147.91 24.431 148.303C24.3479 148.696 24.2526 149.095 24.1452 149.501C24.0499 149.907 23.9545 150.288 23.8589 150.644C23.7634 151 23.6735 151.296 23.5893 151.529ZM33.8379 159.405C33.1386 159.41 32.5304 159.286 32.0133 159.032C31.5084 158.766 31.1191 158.364 30.8453 157.826C30.5715 157.288 30.4317 156.608 30.4257 155.786C30.4202 155.013 30.5189 154.246 30.722 153.484C30.9373 152.709 31.2573 152.008 31.6822 151.379C32.1071 150.75 32.6494 150.243 33.3091 149.858C33.9811 149.473 34.771 149.277 35.6788 149.271C36.1573 149.267 36.5871 149.332 36.9684 149.464C37.3497 149.596 37.6518 149.815 37.8749 150.12C38.0979 150.425 38.2113 150.841 38.2151 151.369C38.2202 152.08 38.0099 152.683 37.584 153.177C37.1703 153.658 36.6148 154.03 35.9174 154.293C35.2199 154.543 34.4479 154.672 33.6014 154.678C33.4419 154.679 33.2641 154.68 33.0678 154.682C32.8837 154.671 32.7302 154.659 32.6075 154.648C32.5966 154.844 32.5858 155.041 32.5749 155.237C32.564 155.421 32.5591 155.593 32.5602 155.753C32.565 156.415 32.6914 156.935 32.9395 157.314C33.1875 157.68 33.6366 157.861 34.2868 157.856C34.8143 157.853 35.2857 157.727 35.7011 157.478C36.1163 157.218 36.4388 156.853 36.6686 156.385C36.8407 156.433 36.9579 156.531 37.0203 156.677C37.0827 156.824 37.1145 156.977 37.1156 157.137C37.1183 157.505 36.992 157.861 36.7369 158.207C36.4817 158.552 36.1096 158.837 35.6205 159.061C35.1313 159.286 34.5371 159.4 33.8379 159.405ZM32.7298 153.745C33.1469 153.742 33.5576 153.697 33.9618 153.608C34.3783 153.519 34.7576 153.381 35.0998 153.195C35.4419 152.996 35.71 152.749 35.9042 152.453C36.1105 152.145 36.2122 151.788 36.2093 151.383C36.2067 151.027 36.119 150.764 35.946 150.594C35.7852 150.411 35.5514 150.321 35.2447 150.323C34.9012 150.325 34.5831 150.438 34.2902 150.661C34.0096 150.872 33.7662 151.149 33.5601 151.494C33.354 151.839 33.1788 152.209 33.0344 152.602C32.9023 152.996 32.8007 153.377 32.7298 153.745Z" fill="#0097B2"/>
</g>
<defs>
<linearGradient id="paint0_linear_1184_1440" x1="314.015" y1="226.417" x2="665.092" y2="684.127" gradientUnits="userSpaceOnUse">
<stop stop-color="#0097B2"/>
<stop offset="1" stop-color="#BFD1A0"/>
</linearGradient>
<linearGradient id="paint1_linear_1184_1440" x1="115.308" y1="55.8882" x2="293.615" y2="55.8882" gradientUnits="userSpaceOnUse">
<stop stop-color="#0097B2"/>
<stop offset="1" stop-color="#0097B2" stop-opacity="0.3"/>
</linearGradient>
<clipPath id="clip0_1184_1440">
<rect width="430" height="969" fill="white"/>
</clipPath>
</defs>
</svg>
