<svg width="3905" height="1002" viewBox="0 0 3905 1002" fill="none" xmlns="http://www.w3.org/2000/svg">
<path d="M0.809613 977V25.0389H285.86L690.578 686.571H693.267V25.0389H903.021V977H628.728L213.253 299.333H210.564V977H0.809613ZM1105.29 977V25.0389H1752.03V218.658H1315.04V396.142H1727.83V589.762H1315.04V783.381H1776.23V977H1105.29ZM2127.01 977L1844.65 25.0389H2073.22L2225.16 635.477H2227.85L2426.85 25.0389H2621.81L2819.47 651.612H2822.15L2982.16 25.0389H3194.6L2916.27 977H2729.38L2519.62 318.157H2516.94L2307.18 977H2127.01ZM3903.19 100.335L3759.32 257.651C3725.71 214.624 3658.48 194.456 3607.39 194.456C3548.23 194.456 3466.21 221.347 3466.21 292.61C3466.21 466.06 3904.54 354.46 3904.54 687.916C3904.54 900.359 3733.78 1001.2 3537.47 1001.2C3415.11 1001.2 3307.55 964.899 3217.46 881.535L3366.71 717.496C3409.73 773.969 3479.65 807.583 3549.57 807.583C3618.14 807.583 3694.79 775.313 3694.79 708.084C3694.79 533.289 3248.39 627.41 3248.39 310.089C3248.39 107.058 3424.53 0.836444 3611.42 0.836444C3718.99 0.836444 3822.52 29.0725 3903.19 100.335Z" fill="#0097B2" fill-opacity="0.03"/>
</svg>
