<svg width="84" height="64" viewBox="0 0 84 64" fill="none" xmlns="http://www.w3.org/2000/svg">
<path d="M74.1403 36.7626C78.0282 37.8423 80.5164 39.3268 81.605 41.2163C82.8491 43.1058 83.4712 46.2774 83.4712 50.7312C83.0046 59.3688 76.9396 63.4852 65.2761 63.0803C59.9886 62.2705 56.023 60.8534 53.3793 58.829C50.891 56.8045 49.4914 53.1605 49.1804 47.897C49.1804 47.2222 49.1804 45.1977 49.1804 41.8237C49.1804 38.4496 49.4136 35.143 49.8802 31.9039C50.3467 28.5298 51.1243 25.4257 52.2129 22.5915C55.9452 15.4385 60.4551 8.48789 65.7426 1.73976C66.2091 1.19991 66.8312 0.92998 67.6088 0.92998C69.1639 0.92998 70.9523 1.73976 72.974 3.35931C75.1512 4.97886 76.3953 6.05856 76.7063 6.59841C76.2398 7.94804 75.0734 9.56759 73.2073 11.4571C73.0518 11.727 72.1187 12.8742 70.408 14.8986C68.8529 16.7881 67.531 19.015 66.4424 21.5793C65.8204 24.8184 65.5093 27.7201 65.5093 30.2843C65.5093 31.7689 65.6648 32.9161 65.9759 33.7259C66.909 35.0755 69.6304 36.0877 74.1403 36.7626ZM23.5206 34.9406C28.186 36.1552 31.1408 38.1122 32.3849 40.8114C33.7845 43.5107 34.4843 47.2897 34.4843 52.1483C34.4843 55.2524 32.7737 57.8842 29.3523 60.0436C25.931 62.203 22.1987 63.2827 18.1553 63.2827C13.6454 63.2827 9.7576 62.1355 6.49181 59.8412C3.38153 57.4118 1.4376 53.4304 0.660034 47.897C0.660034 47.2222 0.660034 45.1977 0.660034 41.8237C0.660034 38.4496 0.893305 35.143 1.35985 31.9039C1.82639 28.5298 2.60396 25.4257 3.69256 22.5915C6.80283 15.1685 10.924 8.21796 16.0559 1.73976C16.8335 1.06495 17.611 0.727539 18.3886 0.727539C19.1662 0.727539 20.0993 1.06495 21.1879 1.73976L25.3867 3.96664C28.186 5.31626 29.5856 6.19352 29.5856 6.59841C29.4301 7.67811 28.4193 9.23018 26.5531 11.2546C23.1318 15.0336 21.0324 18.5426 20.2548 21.7817C19.9438 23.4013 19.7882 25.4257 19.7882 27.855C19.7882 31.9039 21.0324 34.2657 23.5206 34.9406Z" fill="#808080" fill-opacity="0.1"/>
</svg>
