<svg width="4376" height="1002" viewBox="0 0 4376 1002" fill="none" xmlns="http://www.w3.org/2000/svg">
<path d="M0.809763 977V25.0374H355.779C522.507 25.0374 704.025 59.9964 704.025 267.062C704.025 373.284 638.141 445.891 539.986 476.816V479.505C665.032 495.64 748.396 588.416 748.396 712.118C748.396 911.116 560.155 977 390.738 977H0.809763ZM210.564 202.522V405.554H362.502C427.042 405.554 494.271 378.662 494.271 302.021C494.271 222.691 418.974 202.522 353.09 202.522H210.564ZM210.564 583.038V799.515H398.805C464.69 799.515 538.642 771.279 538.642 687.915C538.642 597.828 437.798 583.038 369.225 583.038H210.564ZM880.753 977V25.0374H1090.51V783.38H1479.09V977H880.753ZM1543.78 501.019C1543.78 195.799 1760.26 0.834937 2057.41 0.834937C2354.56 0.834937 2571.04 195.799 2571.04 501.019C2571.04 806.238 2354.56 1001.2 2057.41 1001.2C1760.26 1001.2 1543.78 806.238 1543.78 501.019ZM1761.6 501.019C1761.6 678.503 1878.58 807.583 2057.41 807.583C2236.24 807.583 2353.22 678.503 2353.22 501.019C2353.22 323.534 2236.24 194.454 2057.41 194.454C1878.58 194.454 1761.6 323.534 1761.6 501.019ZM3575.48 412.276V909.771C3451.78 974.311 3315.98 1001.2 3176.14 1001.2C2878.99 1001.2 2662.51 806.238 2662.51 501.019C2662.51 195.799 2878.99 0.834937 3176.14 0.834937C3326.73 0.834937 3459.85 34.4494 3555.31 123.192L3407.41 284.541C3350.94 225.38 3282.36 194.454 3176.14 194.454C2997.31 194.454 2880.33 323.534 2880.33 501.019C2880.33 678.503 2997.31 807.583 3176.14 807.583C3267.57 807.583 3334.8 782.036 3373.79 760.523V605.896H3203.03V412.276H3575.48ZM4374.59 100.334L4230.72 257.65C4197.11 214.623 4129.88 194.454 4078.78 194.454C4019.62 194.454 3937.6 221.346 3937.6 292.609C3937.6 466.06 4375.94 354.459 4375.94 687.915C4375.94 900.359 4205.17 1001.2 4008.87 1001.2C3886.51 1001.2 3778.94 964.899 3688.86 881.535L3838.1 717.496C3881.13 773.968 3951.05 807.583 4020.97 807.583C4089.54 807.583 4166.18 775.313 4166.18 708.084C4166.18 533.289 3719.78 627.409 3719.78 310.088C3719.78 107.057 3895.92 0.834937 4082.82 0.834937C4190.38 0.834937 4293.92 29.0711 4374.59 100.334Z" fill="#0097B2" fill-opacity="0.03"/>
</svg>
