<svg width="1673" height="1075" viewBox="0 0 1673 1075" fill="none" xmlns="http://www.w3.org/2000/svg">
<path d="M468.551 0H73.3772H54.3103C24.3156 0 0 24.3156 0 54.3104V840.445C0 870.612 24.5864 894.999 54.7532 894.753L544.766 890.757C574.932 890.511 599.519 914.898 599.519 945.066V1020.69C599.519 1050.68 623.834 1075 653.829 1075H1014.26C1037.36 1075 1056.09 1056.27 1056.09 1033.17C1056.09 1010.07 1074.81 991.347 1097.91 991.347H1618.69C1648.68 991.347 1673 967.031 1673 937.036V243.888C1673 213.894 1648.68 189.578 1618.69 189.578H1401.19C1371.19 189.578 1346.88 165.262 1346.88 135.268V132.532C1346.88 102.537 1322.56 78.2213 1292.57 78.2213H546.772C525.172 78.2213 507.661 60.7109 507.661 39.1107C507.661 17.5104 490.151 0 468.551 0Z" fill="#0097B2"/>
<mask id="mask0_455_1344" style="mask-type:alpha" maskUnits="userSpaceOnUse" x="0" y="0" width="1673" height="1075">
<path d="M468.551 0H73.3772H54.3103C24.3156 0 0 24.3156 0 54.3104V840.445C0 870.612 24.5864 894.999 54.7532 894.753L544.766 890.757C574.932 890.511 599.519 914.898 599.519 945.066V1020.69C599.519 1050.68 623.834 1075 653.829 1075H1014.26C1037.36 1075 1056.09 1056.27 1056.09 1033.17C1056.09 1010.07 1074.81 991.347 1097.91 991.347H1618.69C1648.68 991.347 1673 967.031 1673 937.036V243.888C1673 213.894 1648.68 189.578 1618.69 189.578H1401.19C1371.19 189.578 1346.88 165.262 1346.88 135.268V132.532C1346.88 102.537 1322.56 78.2213 1292.57 78.2213H546.772C525.172 78.2213 507.661 60.7109 507.661 39.1107C507.661 17.5104 490.151 0 468.551 0Z" fill="#0097B2"/>
</mask>
<g mask="url(#mask0_455_1344)">
<rect width="1482.01" height="219.487" rx="108.621" transform="matrix(0.868083 -0.496419 0.496875 0.867822 -668.323 788.171)" fill="white" fill-opacity="0.5"/>
<rect width="1315.54" height="160.092" rx="80.0462" transform="matrix(0.868083 -0.496419 0.496875 0.867822 -612.883 1231.43)" fill="white" fill-opacity="0.3"/>
<rect width="333.413" height="160.092" rx="80.0462" transform="matrix(0.868083 -0.496419 0.496875 0.867822 -111.744 169.643)" fill="#BFD1A0" fill-opacity="0.2"/>
</g>
</svg>
