<svg width="200" height="50" viewBox="0 0 200 50" fill="none" xmlns="http://www.w3.org/2000/svg">
<path d="M0 10C0 4.47715 4.47715 0 10 0H190C195.523 0 200 4.47715 200 10V40C200 45.5228 195.523 50 190 50H10C4.47716 50 0 45.5228 0 40V10Z" fill="white"/>
<g clip-path="url(#clip0_147_3980)">
<path d="M23.6667 25.9167H29.1667C29.6708 25.9167 30.0833 25.5042 30.0833 25V17.6667C30.0833 17.1625 29.6708 16.75 29.1667 16.75H23.6667C23.1625 16.75 22.75 17.1625 22.75 17.6667V25C22.75 25.5042 23.1625 25.9167 23.6667 25.9167ZM23.6667 33.25H29.1667C29.6708 33.25 30.0833 32.8375 30.0833 32.3333V28.6667C30.0833 28.1625 29.6708 27.75 29.1667 27.75H23.6667C23.1625 27.75 22.75 28.1625 22.75 28.6667V32.3333C22.75 32.8375 23.1625 33.25 23.6667 33.25ZM32.8333 33.25H38.3333C38.8375 33.25 39.25 32.8375 39.25 32.3333V25C39.25 24.4958 38.8375 24.0833 38.3333 24.0833H32.8333C32.3292 24.0833 31.9167 24.4958 31.9167 25V32.3333C31.9167 32.8375 32.3292 33.25 32.8333 33.25ZM31.9167 17.6667V21.3333C31.9167 21.8375 32.3292 22.25 32.8333 22.25H38.3333C38.8375 22.25 39.25 21.8375 39.25 21.3333V17.6667C39.25 17.1625 38.8375 16.75 38.3333 16.75H32.8333C32.3292 16.75 31.9167 17.1625 31.9167 17.6667Z" fill="#0097B2"/>
</g>
<path d="M63.264 29.5V18.172H67.728C70.704 18.172 73.488 19.996 73.488 23.836C73.488 27.708 70.208 29.5 67.488 29.5H63.264ZM65.28 27.676H66.784C69.312 27.676 71.376 26.588 71.376 23.836C71.376 21.084 69.584 19.996 67.12 19.996H65.28V27.676ZM74.1406 29.5L79.0686 18.172H80.8126L85.6926 29.5H83.3886L82.3326 26.908H77.4206L76.3966 29.5H74.1406ZM78.1086 25.18H81.6286L79.8846 20.572L78.1086 25.18ZM93.9755 19.052L92.5035 20.604C92.0715 19.996 91.3035 19.708 90.5195 19.708C89.5915 19.708 88.6635 20.124 88.6635 21.164C88.6635 23.436 94.0395 22.14 94.0395 26.172C94.0395 28.604 92.1195 29.788 89.8955 29.788C88.4875 29.788 87.1115 29.356 86.1835 28.252L87.7035 26.78C88.1995 27.532 89.0475 27.964 89.9435 27.964C90.8715 27.964 91.9275 27.452 91.9275 26.412C91.9275 23.932 86.5515 25.356 86.5515 21.308C86.5515 18.972 88.6315 17.884 90.7275 17.884C91.9115 17.884 93.0955 18.22 93.9755 19.052ZM96.139 29.5V18.172H98.155V22.684H103.451V18.172H105.467V29.5H103.451V24.508H98.155V29.5H96.139ZM107.998 29.5V18.172H112.414C114.126 18.172 115.886 18.956 115.886 21.02C115.886 22.3 115.086 23.148 113.918 23.5V23.532C115.342 23.692 116.366 24.812 116.366 26.268C116.366 28.732 114.222 29.5 112.078 29.5H107.998ZM110.014 19.9V22.78H111.854C113.198 22.78 113.87 22.204 113.87 21.356C113.87 20.38 113.198 19.9 111.678 19.9H110.014ZM110.014 24.508V27.772H111.87C112.91 27.772 114.35 27.596 114.35 26.108C114.35 24.924 113.582 24.508 111.95 24.508H110.014ZM117.765 23.884C117.765 20.252 120.261 17.884 123.749 17.884C127.285 17.82 129.781 20.188 129.781 23.82C129.781 27.356 127.285 29.724 123.749 29.788C120.261 29.788 117.765 27.42 117.765 23.884ZM119.877 23.756C119.877 26.172 121.429 27.964 123.765 27.964C126.117 27.964 127.669 26.172 127.669 23.756C127.669 21.5 126.117 19.708 123.765 19.708C121.429 19.708 119.877 21.5 119.877 23.756ZM130.438 29.5L135.366 18.172H137.11L141.99 29.5H139.686L138.63 26.908H133.718L132.694 29.5H130.438ZM134.406 25.18H137.926L136.182 20.572L134.406 25.18ZM143.248 29.5V18.172H147.184C149.36 18.172 151.408 18.876 151.408 21.42C151.408 23.052 150.464 24.252 148.784 24.492L151.792 29.5H149.36L146.736 24.7H145.264V29.5H143.248ZM145.264 22.972H146.832C147.968 22.972 149.296 22.876 149.296 21.404C149.296 20.06 148.048 19.9 147.008 19.9H145.264V22.972ZM153.327 29.5V18.172H157.791C160.767 18.172 163.551 19.996 163.551 23.836C163.551 27.708 160.271 29.5 157.551 29.5H153.327ZM155.343 27.676H156.847C159.375 27.676 161.439 26.588 161.439 23.836C161.439 21.084 159.647 19.996 157.183 19.996H155.343V27.676Z" fill="#0097B2"/>
<defs>
<clipPath id="clip0_147_3980">
<rect width="22" height="22" fill="white" transform="translate(20 14)"/>
</clipPath>
</defs>
</svg>
