<svg width="193" height="119" viewBox="0 0 193 119" fill="none" xmlns="http://www.w3.org/2000/svg">
<path d="M79.25 80.0003L69.75 64.5003L19.25 114.5H2.25004C-0.75 114.5 -0.750447 118.5 2.25004 118.5H189.75C193.25 118.5 193.25 114 189.75 114H169.75L138.25 66L125.75 79L150.75 114H144.75L107.25 61.0003V38L115.75 39.5V16L107.25 14.5V3.00033C107.25 -1.00005 102.25 -1.00018 102.25 3.00033V61.0003L55.75 114H49.75L79.25 80.0003Z" fill="#0097B2"/>
<path d="M120.75 39.5L120.25 16C123.05 17.9999 135.75 9 151.75 13.5V37C131.25 32 131.75 37 120.75 39.5Z" fill="#0097B2"/>
</svg>
