<svg width="122" height="126" viewBox="0 0 122 126" fill="none" xmlns="http://www.w3.org/2000/svg">
<path d="M120 63H105" stroke="#0097B2" stroke-width="3" stroke-linecap="round"/>
<path d="M17 63H2" stroke="#0097B2" stroke-width="3" stroke-linecap="round"/>
<path d="M29 94L19 104" stroke="#0097B2" stroke-width="3" stroke-linecap="round"/>
<path d="M102 104L92 94" stroke="#0097B2" stroke-width="3" stroke-linecap="round"/>
<path d="M103 22L93 32" stroke="#0097B2" stroke-width="3" stroke-linecap="round"/>
<path d="M30 30L20 20" stroke="#0097B2" stroke-width="3" stroke-linecap="round"/>
<path d="M62 2L62 19" stroke="#0097B2" stroke-width="3" stroke-linecap="round"/>
<path fill-rule="evenodd" clip-rule="evenodd" d="M49.1497 102.021H74.1497C76.7048 91.4359 80.8586 85.9135 84.277 81.3689C85.5412 79.6881 86.7048 78.1411 87.6497 76.5212C99.1497 61.5212 89.5 33 66.1497 31.0212C28.1504 30.0234 27.6502 64.5212 37.1497 79.5212C43.5196 87.7123 46.5773 95.4876 48.5827 100.587C48.7813 101.092 48.9696 101.571 49.1497 102.021ZM48.1491 107.023H74.1497V113.023C74.1276 113.2 74.1114 113.401 74.0941 113.615C73.9805 115.017 73.8181 117.023 71.6504 117.023H69.1504V121.023C69.1504 121.225 69.1555 121.427 69.1605 121.627V121.627V121.628C69.2055 123.407 69.2463 125.023 65.6504 125.023H54.6504C51.9915 125.023 52.0819 122.824 52.1369 121.488C52.1439 121.317 52.1504 121.16 52.1504 121.023V117.023H50.1504C47.4506 117.023 47.7251 113.453 47.9917 109.985C48.0707 108.957 48.1491 107.938 48.1491 107.023ZM53.2981 43.4701C54.11 43.3054 54.6347 42.5138 54.4701 41.7019C54.3054 40.89 53.5138 40.3653 52.7019 40.5299C46.2492 41.8384 42.3174 45.3765 40.0824 49.3006C37.8796 53.1679 37.3459 57.3626 37.5355 60.1035C37.5926 60.93 38.3089 61.5536 39.1354 61.4964C39.9618 61.4393 40.5855 60.7229 40.5283 59.8965C40.373 57.6515 40.8222 54.0631 42.6892 50.7854C44.5238 47.5643 47.7486 44.5954 53.2981 43.4701Z" fill="#0097B2"/>
</svg>
