<svg width="3828" height="132" viewBox="0 0 3828 132" fill="none" xmlns="http://www.w3.org/2000/svg">
<path d="M845.142 66C845.142 29.5492 874.819 0 911.428 0H3761.71C3798.32 0 3828 29.5492 3828 66C3828 102.451 3798.32 132 3761.71 132H911.428C874.819 132 845.142 102.451 845.142 66Z" fill="url(#paint0_linear_577_1200)"/>
<path d="M696.002 66C696.002 102.451 666.325 132 629.716 132C593.108 132 563.431 102.451 563.431 66C563.431 29.5492 593.108 0 629.716 0C666.325 0 696.002 29.5492 696.002 66Z" fill="#0097B2"/>
<path d="M414.29 66C414.29 102.451 384.613 132 348.005 132C311.396 132 281.719 102.451 281.719 66C281.719 29.5492 311.396 0 348.005 0C384.613 0 414.29 29.5492 414.29 66Z" fill="#0097B2" fill-opacity="0.5"/>
<path d="M132.571 66C132.571 102.451 102.894 132 66.2857 132C29.6771 132 0 102.451 0 66C0 29.5492 29.6771 0 66.2857 0C102.894 0 132.571 29.5492 132.571 66Z" fill="#0097B2" fill-opacity="0.3"/>
<defs>
<linearGradient id="paint0_linear_577_1200" x1="0" y1="66" x2="3828" y2="66" gradientUnits="userSpaceOnUse">
<stop stop-color="#0097B2"/>
<stop offset="1" stop-color="#0097B2" stop-opacity="0.3"/>
</linearGradient>
</defs>
</svg>
