<svg width="896" height="673" viewBox="0 0 896 673" fill="none" xmlns="http://www.w3.org/2000/svg">
<g clip-path="url(#clip0_1488_2208)">
<g opacity="0.7">
<ellipse cx="559.465" cy="336.424" rx="156.478" ry="156.476" fill="white"/>
<ellipse cx="559.465" cy="336.428" rx="205.377" ry="205.375" fill="white" fill-opacity="0.5"/>
<ellipse cx="559.465" cy="336.424" rx="258.188" ry="258.185" fill="white" fill-opacity="0.2"/>
<ellipse cx="559.464" cy="336.423" rx="336.427" ry="336.423" fill="white" fill-opacity="0.1"/>
</g>
<path d="M24.8575 372.459L0.772573 291.258H20.2699L33.2299 343.328H33.4593L50.4335 291.258H67.0636L83.923 344.704H84.1524L97.8005 291.258H115.922L92.1807 372.459H76.2388L58.3471 316.261H58.1177L40.226 372.459H24.8575ZM121.771 285.753H138.974V324.289H139.204C140.809 319.931 146.429 315.343 154.802 315.343C172.235 315.343 175.446 326.812 175.446 341.722V372.459H158.242V345.163C158.242 338.74 158.128 330.482 149.296 330.482C140.351 330.482 138.974 337.478 138.974 344.704V372.459H121.771V285.753ZM222.609 372.459V365.463H222.379C218.594 371.427 211.713 373.835 204.717 373.835C194.28 373.835 184.876 367.871 184.876 356.632C184.876 337.364 208.272 337.02 222.609 337.02C222.609 330.941 217.562 327.042 211.598 327.042C205.979 327.042 201.276 329.565 197.606 333.694L188.431 324.289C194.739 318.325 203.914 315.343 212.975 315.343C233.045 315.343 238.436 325.551 238.436 344.13V372.459H222.609ZM222.609 348.03H218.365C213.089 348.03 201.391 348.489 201.391 356.058C201.391 360.187 205.749 362.137 209.534 362.137C216.301 362.137 222.609 358.581 222.609 351.7V348.03ZM287.192 316.72V330.482H272.053V349.062C272.053 355.026 272.741 359.384 280.196 359.384C282.031 359.384 285.701 359.155 287.192 357.779V372.115C283.407 373.491 279.163 373.835 275.149 373.835C263.68 373.835 254.849 369.133 254.849 356.976V330.482H243.839V316.72H254.849V300.204H272.053V316.72H287.192ZM319.331 291.258L309.009 323.601H294.329L302.816 291.258H319.331ZM363.45 322.683L352.899 333.12C350.375 330.024 347.049 328.418 342.921 328.418C340.053 328.418 336.613 329.68 336.613 333.006C336.613 341.263 365.629 334.267 365.629 355.485C365.629 369.706 351.866 373.835 339.939 373.835C332.14 373.835 323.538 371.886 318.033 366.266L328.47 354.682C331.681 358.581 335.466 360.761 340.627 360.761C344.526 360.761 348.426 359.728 348.426 356.746C348.426 347.801 319.409 355.37 319.409 334.152C319.409 321.078 331.107 315.343 342.806 315.343C350.146 315.343 358.289 317.178 363.45 322.683Z" fill="white"/>
<path d="M429.515 372.459V291.258H453.83L488.351 347.686H488.581V291.258H506.472V372.459H483.076L447.636 314.655H447.407V372.459H429.515ZM561.573 353.994L573.616 362.825C568.11 369.821 559.05 373.835 550.104 373.835C532.9 373.835 519.138 362.366 519.138 344.589C519.138 326.812 532.9 315.343 550.104 315.343C566.161 315.343 576.253 326.812 576.253 344.589V349.98H536.341C537.717 356.517 542.649 360.761 549.301 360.761C554.921 360.761 558.706 357.893 561.573 353.994ZM536.341 338.281H559.05C559.165 332.547 554.692 327.73 548.498 327.73C540.929 327.73 536.8 332.891 536.341 338.281ZM600.478 372.459L580.063 316.72H598.414L609.768 351.7H609.997L619.517 316.72H638.326L648.648 351.7H648.877L659.314 316.72H676.747L656.906 372.459H639.932L628.348 335.414H628.118L617.796 372.459H600.478Z" fill="#0097B2"/>
</g>
<defs>
<clipPath id="clip0_1488_2208">
<rect width="896" height="673" fill="white" transform="translate(0 -0.000488281)"/>
</clipPath>
</defs>
</svg>
