<svg width="2633" height="2633" viewBox="0 0 2633 2633" fill="none" xmlns="http://www.w3.org/2000/svg">
<g opacity="0.7">
<ellipse cx="1211.46" cy="1374.42" rx="156.478" ry="156.476" fill="#0097B2"/>
<ellipse cx="1211.46" cy="1374.43" rx="205.377" ry="205.375" fill="#0097B2" fill-opacity="0.5"/>
<ellipse cx="1211.46" cy="1374.42" rx="258.188" ry="258.185" fill="#0097B2" fill-opacity="0.2"/>
<ellipse cx="1211.46" cy="1374.42" rx="336.427" ry="336.423" fill="#0097B2" fill-opacity="0.1"/>
</g>
<path d="M676.857 1410.46L652.772 1329.26H672.269L685.229 1381.33H685.458L702.432 1329.26H719.063L735.922 1382.7H736.151L749.8 1329.26H767.921L744.18 1410.46H728.238L710.346 1354.26H710.117L692.225 1410.46H676.857ZM773.77 1323.75H790.973V1362.29H791.203C792.808 1357.93 798.428 1353.34 806.801 1353.34C824.234 1353.34 827.445 1364.81 827.445 1379.72V1410.46H810.241V1383.16C810.241 1376.74 810.127 1368.48 801.295 1368.48C792.35 1368.48 790.973 1375.48 790.973 1382.7V1410.46H773.77V1323.75ZM874.608 1410.46V1403.46H874.378C870.594 1409.43 863.712 1411.84 856.716 1411.84C846.279 1411.84 836.875 1405.87 836.875 1394.63C836.875 1375.36 860.271 1375.02 874.608 1375.02C874.608 1368.94 869.561 1365.04 863.597 1365.04C857.978 1365.04 853.275 1367.57 849.605 1371.69L840.43 1362.29C846.738 1356.33 855.913 1353.34 864.974 1353.34C885.044 1353.34 890.435 1363.55 890.435 1382.13V1410.46H874.608ZM874.608 1386.03H870.364C865.088 1386.03 853.39 1386.49 853.39 1394.06C853.39 1398.19 857.748 1400.14 861.533 1400.14C868.3 1400.14 874.608 1396.58 874.608 1389.7V1386.03ZM939.191 1354.72V1368.48H924.052V1387.06C924.052 1393.03 924.74 1397.38 932.195 1397.38C934.03 1397.38 937.7 1397.16 939.191 1395.78V1410.12C935.406 1411.49 931.163 1411.84 927.148 1411.84C915.679 1411.84 906.848 1407.13 906.848 1394.98V1368.48H895.838V1354.72H906.848V1338.2H924.052V1354.72H939.191ZM971.33 1329.26L961.008 1361.6H946.328L954.815 1329.26H971.33ZM1015.45 1360.68L1004.9 1371.12C1002.37 1368.02 999.048 1366.42 994.92 1366.42C992.052 1366.42 988.612 1367.68 988.612 1371.01C988.612 1379.26 1017.63 1372.27 1017.63 1393.49C1017.63 1407.71 1003.87 1411.84 991.938 1411.84C984.139 1411.84 975.537 1409.89 970.032 1404.27L980.469 1392.68C983.68 1396.58 987.465 1398.76 992.626 1398.76C996.525 1398.76 1000.42 1397.73 1000.42 1394.75C1000.42 1385.8 971.408 1393.37 971.408 1372.15C971.408 1359.08 983.106 1353.34 994.805 1353.34C1002.15 1353.34 1010.29 1355.18 1015.45 1360.68Z" fill="black"/>
<path d="M1081.51 1410.46V1329.26H1105.83L1140.35 1385.69H1140.58V1329.26H1158.47V1410.46H1135.07L1099.64 1352.66H1099.41V1410.46H1081.51ZM1213.57 1391.99L1225.61 1400.83C1220.11 1407.82 1211.05 1411.84 1202.1 1411.84C1184.9 1411.84 1171.14 1400.37 1171.14 1382.59C1171.14 1364.81 1184.9 1353.34 1202.1 1353.34C1218.16 1353.34 1228.25 1364.81 1228.25 1382.59V1387.98H1188.34C1189.72 1394.52 1194.65 1398.76 1201.3 1398.76C1206.92 1398.76 1210.7 1395.89 1213.57 1391.99ZM1188.34 1376.28H1211.05C1211.16 1370.55 1206.69 1365.73 1200.5 1365.73C1192.93 1365.73 1188.8 1370.89 1188.34 1376.28ZM1252.48 1410.46L1232.06 1354.72H1250.41L1261.77 1389.7H1262L1271.52 1354.72H1290.32L1300.65 1389.7H1300.88L1311.31 1354.72H1328.75L1308.9 1410.46H1291.93L1280.35 1373.41H1280.12L1269.8 1410.46H1252.48Z" fill="white"/>
</svg>
