<svg width="2633" height="2633" viewBox="0 0 2633 2633" fill="none" xmlns="http://www.w3.org/2000/svg">
<path d="M1525.36 1316.5C1525.36 1431.85 1431.85 1525.35 1316.5 1525.35C1201.15 1525.35 1107.64 1431.85 1107.64 1316.5C1107.64 1201.15 1201.15 1107.64 1316.5 1107.64C1431.85 1107.64 1525.36 1201.15 1525.36 1316.5Z" fill="#0097B2"/>
<path d="M1590.62 1316.5C1590.62 1467.9 1467.89 1590.62 1316.5 1590.62C1165.1 1590.62 1042.38 1467.9 1042.38 1316.5C1042.38 1165.11 1165.1 1042.38 1316.5 1042.38C1467.89 1042.38 1590.62 1165.11 1590.62 1316.5Z" fill="#0097B2" fill-opacity="0.5"/>
<path d="M1661.11 1316.5C1661.11 1506.82 1506.82 1661.11 1316.5 1661.11C1126.18 1661.11 971.888 1506.82 971.888 1316.5C971.888 1126.17 1126.18 971.886 1316.5 971.886C1506.82 971.886 1661.11 1126.17 1661.11 1316.5Z" fill="#0097B2" fill-opacity="0.2"/>
<path d="M1765.54 1316.49C1765.54 1564.49 1564.5 1765.53 1316.5 1765.53C1068.5 1765.53 867.459 1564.49 867.459 1316.49C867.459 1068.5 1068.5 867.455 1316.5 867.455C1564.5 867.455 1765.54 1068.5 1765.54 1316.49Z" fill="#0097B2" fill-opacity="0.1"/>
<path d="M2633 1316.5C2633 2043.58 2043.58 2633 1316.5 2633C589.417 2633 0 2043.58 0 1316.5C0 589.417 589.417 0 1316.5 0C2043.58 0 2633 589.417 2633 1316.5Z" fill="#0097B2" fill-opacity="0.05"/>
<path d="M643.502 1365.67L611.514 1257.82H637.409L654.622 1326.98H654.926L677.47 1257.82H699.557L721.949 1328.81H722.253L740.38 1257.82H764.447L732.916 1365.67H711.743L687.981 1291.03H687.676L663.914 1365.67H643.502Z" fill="black"/>
<path d="M772.215 1250.51H795.064V1301.69H795.368C797.501 1295.9 804.965 1289.81 816.084 1289.81C839.238 1289.81 843.503 1305.04 843.503 1324.84V1365.67H820.654V1329.41C820.654 1320.88 820.502 1309.92 808.773 1309.92C796.892 1309.92 795.064 1319.21 795.064 1328.81V1365.67H772.215V1250.51Z" fill="black"/>
<path d="M906.141 1365.67V1356.38H905.836C900.809 1364.3 891.67 1367.5 882.378 1367.5C868.517 1367.5 856.026 1359.57 856.026 1344.65C856.026 1319.06 887.1 1318.6 906.141 1318.6C906.141 1310.53 899.439 1305.35 891.518 1305.35C884.054 1305.35 877.809 1308.7 872.934 1314.18L860.748 1301.69C869.126 1293.77 881.312 1289.81 893.346 1289.81C920.002 1289.81 927.161 1303.37 927.161 1328.04V1365.67H906.141ZM906.141 1333.22H900.505C893.498 1333.22 877.961 1333.83 877.961 1343.89C877.961 1349.37 883.749 1351.96 888.776 1351.96C897.763 1351.96 906.141 1347.24 906.141 1338.1V1333.22Z" fill="black"/>
<path d="M991.915 1291.64V1309.92H971.809V1334.59C971.809 1342.51 972.723 1348.3 982.624 1348.3C985.061 1348.3 989.935 1348 991.915 1346.17V1365.21C986.889 1367.04 981.253 1367.5 975.921 1367.5C960.689 1367.5 948.96 1361.25 948.96 1345.1V1309.92H934.337V1291.64H948.96V1269.7H971.809V1291.64H991.915Z" fill="black"/>
<path d="M1034.6 1257.82L1020.89 1300.78H1001.39L1012.67 1257.82H1034.6Z" fill="black"/>
<path d="M1093.2 1299.56L1079.18 1313.42C1075.83 1309.31 1071.41 1307.18 1065.93 1307.18C1062.12 1307.18 1057.55 1308.85 1057.55 1313.27C1057.55 1324.24 1096.09 1314.94 1096.09 1343.12C1096.09 1362.01 1077.81 1367.5 1061.97 1367.5C1051.61 1367.5 1040.19 1364.91 1032.88 1357.44L1046.74 1342.06C1051 1347.24 1056.03 1350.13 1062.88 1350.13C1068.06 1350.13 1073.24 1348.76 1073.24 1344.8C1073.24 1332.92 1034.7 1342.97 1034.7 1314.79C1034.7 1297.43 1050.24 1289.81 1065.78 1289.81C1075.53 1289.81 1086.34 1292.25 1093.2 1299.56Z" fill="black"/>
<path d="M1155.77 1365.67V1257.82H1188.06L1233.91 1332.77H1234.22V1257.82H1257.98V1365.67H1226.9L1179.84 1288.9H1179.53V1365.67H1155.77Z" fill="white"/>
<path d="M1331.16 1341.14L1347.15 1352.87C1339.84 1362.16 1327.81 1367.5 1315.93 1367.5C1293.08 1367.5 1274.8 1352.26 1274.8 1328.65C1274.8 1305.04 1293.08 1289.81 1315.93 1289.81C1337.25 1289.81 1350.66 1305.04 1350.66 1328.65V1335.81H1297.65C1299.48 1344.49 1306.02 1350.13 1314.86 1350.13C1322.32 1350.13 1327.35 1346.32 1331.16 1341.14ZM1297.65 1320.27H1327.81C1327.96 1312.66 1322.02 1306.26 1313.79 1306.26C1303.74 1306.26 1298.26 1313.12 1297.65 1320.27Z" fill="white"/>
<path d="M1382.83 1365.67L1355.72 1291.64H1380.09L1395.17 1338.1H1395.47L1408.11 1291.64H1433.1L1446.8 1338.1H1447.11L1460.97 1291.64H1484.12L1457.77 1365.67H1435.23L1419.84 1316.47H1419.54L1405.83 1365.67H1382.83Z" fill="white"/>
<path d="M1582.97 1365.67V1356.38H1582.66C1577.64 1364.3 1568.5 1367.5 1559.21 1367.5C1545.34 1367.5 1532.85 1359.57 1532.85 1344.65C1532.85 1319.06 1563.93 1318.6 1582.97 1318.6C1582.97 1310.53 1576.27 1305.35 1568.34 1305.35C1560.88 1305.35 1554.64 1308.7 1549.76 1314.18L1537.58 1301.69C1545.95 1293.77 1558.14 1289.81 1570.17 1289.81C1596.83 1289.81 1603.99 1303.37 1603.99 1328.04V1365.67H1582.97ZM1582.97 1333.22H1577.33C1570.32 1333.22 1554.79 1333.83 1554.79 1343.89C1554.79 1349.37 1560.58 1351.96 1565.6 1351.96C1574.59 1351.96 1582.97 1347.24 1582.97 1338.1V1333.22Z" fill="black"/>
<path d="M1668.74 1291.64V1309.92H1648.64V1334.59C1648.64 1342.51 1649.55 1348.3 1659.45 1348.3C1661.89 1348.3 1666.76 1348 1668.74 1346.17V1365.21C1663.72 1367.04 1658.08 1367.5 1652.75 1367.5C1637.52 1367.5 1625.79 1361.25 1625.79 1345.1V1309.92H1611.16V1291.64H1625.79V1269.7H1648.64V1291.64H1668.74Z" fill="black"/>
<path d="M646.645 1801.64V1680.25H613.809V1640.45H646.645V1611.92C646.645 1576.76 655.6 1546.91 709.663 1546.91C719.613 1546.91 729.563 1547.58 738.85 1549.9L736.528 1592.02C730.89 1590.03 726.246 1588.7 720.276 1588.7C704.356 1588.7 696.396 1593.68 696.396 1614.91V1640.45H733.211V1680.25H696.396V1801.64H646.645Z" fill="#0097B2"/>
<path d="M907.379 1640.45V1801.64H859.618V1779.75H858.955C852.321 1792.35 836.069 1805.62 811.857 1805.62C761.443 1805.62 752.156 1772.45 752.156 1729.33V1640.45H801.907V1719.38C801.907 1737.96 802.239 1761.84 827.777 1761.84C853.648 1761.84 857.628 1741.61 857.628 1720.71V1640.45H907.379Z" fill="#1A0202"/>
<path d="M943.272 1801.64V1676.27V1550.89H993.023V1801.64H943.272Z" fill="#1A0202"/>
<path d="M1029.43 1801.64V1550.89H1079.18V1801.64H1029.43Z" fill="#1A0202"/>
<path d="M1250.93 1661.24L1225.96 1668.31C1224.39 1664.15 1222.08 1660.1 1219.01 1656.18C1216.03 1652.17 1211.95 1648.88 1206.76 1646.28C1201.58 1643.69 1194.95 1642.4 1186.86 1642.4C1175.79 1642.4 1166.56 1644.95 1159.18 1650.05C1151.88 1655.08 1148.23 1661.48 1148.23 1669.25C1148.23 1676.16 1150.74 1681.62 1155.76 1685.62C1160.79 1689.63 1168.64 1692.96 1179.32 1695.63L1206.18 1702.23C1222.35 1706.16 1234.4 1712.16 1242.33 1720.25C1250.27 1728.26 1254.23 1738.59 1254.23 1751.23C1254.23 1761.59 1251.25 1770.86 1245.28 1779.02C1239.39 1787.19 1231.15 1793.63 1220.54 1798.34C1209.94 1803.05 1197.62 1805.41 1183.56 1805.41C1165.11 1805.41 1149.84 1801.4 1137.74 1793.39C1125.65 1785.38 1118 1773.68 1114.78 1758.29L1141.16 1751.7C1143.67 1761.44 1148.42 1768.74 1155.41 1773.61C1162.48 1778.47 1171.7 1780.91 1183.09 1780.91C1196.05 1780.91 1206.33 1778.16 1213.95 1772.66C1221.64 1767.09 1225.49 1760.41 1225.49 1752.64C1225.49 1746.36 1223.29 1741.1 1218.9 1736.86C1214.5 1732.54 1207.75 1729.32 1198.64 1727.2L1168.49 1720.13C1151.92 1716.21 1139.75 1710.12 1131.97 1701.88C1124.28 1693.55 1120.43 1683.15 1120.43 1670.67C1120.43 1660.46 1123.3 1651.43 1129.03 1643.58C1134.84 1635.72 1142.73 1629.56 1152.7 1625.08C1162.75 1620.61 1174.14 1618.37 1186.86 1618.37C1204.76 1618.37 1218.82 1622.3 1229.03 1630.15C1239.31 1638 1246.61 1648.36 1250.93 1661.24Z" fill="#0097B2"/>
<path d="M1410.09 1727.67V1620.73H1437.88V1801.64H1410.09V1771.02H1408.2C1403.96 1780.2 1397.36 1788.01 1388.41 1794.45C1379.46 1800.81 1368.15 1803.99 1354.49 1803.99C1343.19 1803.99 1333.13 1801.52 1324.34 1796.57C1315.55 1791.55 1308.64 1784.01 1303.61 1773.96C1298.59 1763.83 1296.07 1751.07 1296.07 1735.68V1620.73H1323.87V1733.8C1323.87 1746.99 1327.56 1757.51 1334.94 1765.36C1342.4 1773.21 1351.9 1777.14 1363.44 1777.14C1370.35 1777.14 1377.38 1775.37 1384.53 1771.84C1391.75 1768.31 1397.8 1762.89 1402.67 1755.59C1407.61 1748.28 1410.09 1738.98 1410.09 1727.67Z" fill="#1A0202"/>
<path d="M1488.79 1801.64V1620.73H1516.59V1801.64H1488.79ZM1502.93 1590.57C1497.51 1590.57 1492.84 1588.73 1488.91 1585.04C1485.06 1581.35 1483.14 1576.91 1483.14 1571.73C1483.14 1566.55 1485.06 1562.11 1488.91 1558.42C1492.84 1554.73 1497.51 1552.88 1502.93 1552.88C1508.34 1552.88 1512.98 1554.73 1516.82 1558.42C1520.75 1562.11 1522.71 1566.55 1522.71 1571.73C1522.71 1576.91 1520.75 1581.35 1516.82 1585.04C1512.98 1588.73 1508.34 1590.57 1502.93 1590.57Z" fill="#1A0202"/>
<path d="M1646.18 1620.73V1644.28H1552.42V1620.73H1646.18ZM1579.75 1577.38H1607.55V1749.81C1607.55 1757.67 1608.69 1763.56 1610.96 1767.48C1613.32 1771.33 1616.3 1773.92 1619.91 1775.26C1623.6 1776.51 1627.49 1777.14 1631.57 1777.14C1634.64 1777.14 1637.15 1776.98 1639.11 1776.67C1641.07 1776.28 1642.65 1775.96 1643.82 1775.73L1649.48 1800.7C1647.59 1801.4 1644.96 1802.11 1641.59 1802.82C1638.21 1803.6 1633.93 1803.99 1628.75 1803.99C1620.9 1803.99 1613.2 1802.31 1605.66 1798.93C1598.2 1795.55 1592 1790.41 1587.05 1783.5C1582.18 1776.59 1579.75 1767.87 1579.75 1757.35V1577.38Z" fill="#1A0202"/>
<path d="M1761.9 1805.41C1744.47 1805.41 1729.43 1801.56 1716.79 1793.86C1704.23 1786.09 1694.53 1775.26 1687.7 1761.36C1680.94 1747.38 1677.57 1731.13 1677.57 1712.6C1677.57 1694.06 1680.94 1677.73 1687.7 1663.6C1694.53 1649.39 1704.03 1638.31 1716.2 1630.38C1728.45 1622.37 1742.74 1618.37 1759.07 1618.37C1768.5 1618.37 1777.8 1619.94 1786.99 1623.08C1796.17 1626.22 1804.54 1631.33 1812.07 1638.39C1819.61 1645.38 1825.62 1654.65 1830.1 1666.19C1834.57 1677.73 1836.81 1691.94 1836.81 1708.83V1720.6H1697.36V1696.58H1808.54C1808.54 1686.37 1806.5 1677.26 1802.42 1669.25C1798.41 1661.24 1792.68 1654.92 1785.22 1650.29C1777.84 1645.66 1769.12 1643.34 1759.07 1643.34C1748 1643.34 1738.42 1646.09 1730.33 1651.58C1722.32 1657 1716.16 1664.07 1711.84 1672.79C1707.52 1681.5 1705.36 1690.84 1705.36 1700.82V1716.84C1705.36 1730.5 1707.72 1742.08 1712.43 1751.58C1717.22 1761 1723.86 1768.19 1732.34 1773.14C1740.82 1778 1750.67 1780.44 1761.9 1780.44C1769.2 1780.44 1775.8 1779.42 1781.69 1777.38C1787.65 1775.26 1792.8 1772.11 1797.12 1767.95C1801.43 1763.71 1804.77 1758.45 1807.13 1752.17L1833.98 1759.71C1831.16 1768.82 1826.4 1776.83 1819.73 1783.74C1813.06 1790.57 1804.81 1795.91 1795 1799.75C1785.18 1803.52 1774.15 1805.41 1761.9 1805.41Z" fill="#1A0202"/>
<path d="M1905.35 1776.19C1905.35 1789.93 1894.21 1801.06 1880.47 1801.06C1866.73 1801.06 1855.59 1789.93 1855.59 1776.19C1855.59 1762.45 1866.73 1751.31 1880.47 1751.31C1894.21 1751.31 1905.35 1762.45 1905.35 1776.19Z" fill="#0097B2"/>
</svg>
