<svg width="2633" height="2633" viewBox="0 0 2633 2633" fill="none" xmlns="http://www.w3.org/2000/svg">
<rect width="2633" height="2633" fill="white"/>
<g opacity="0.7">
<ellipse cx="1353.3" cy="1386.69" rx="221.719" ry="221.716" fill="#0097B2"/>
<ellipse cx="1353.31" cy="1386.7" rx="291.006" ry="291.002" fill="#0097B2" fill-opacity="0.5"/>
<ellipse cx="1353.3" cy="1386.69" rx="365.836" ry="365.832" fill="#0097B2" fill-opacity="0.2"/>
<ellipse cx="1353.3" cy="1386.69" rx="476.695" ry="476.689" fill="#0097B2" fill-opacity="0.1"/>
</g>
<path d="M595.802 1437.89L561.675 1322.84H589.301L607.665 1396.61H607.99L632.041 1322.84H655.605L679.494 1398.56H679.819L699.157 1322.84H724.834L691.194 1437.89H668.606L643.254 1358.26H642.929L617.578 1437.89H595.802ZM733.122 1315.03H757.498V1369.64H757.823C760.098 1363.46 768.061 1356.96 779.924 1356.96C804.625 1356.96 809.176 1373.21 809.176 1394.34V1437.89H784.799V1399.21C784.799 1390.11 784.637 1378.41 772.124 1378.41C759.448 1378.41 757.498 1388.33 757.498 1398.56V1437.89H733.122V1315.03ZM876.002 1437.89V1427.98H875.677C870.314 1436.43 860.564 1439.84 850.651 1439.84C835.863 1439.84 822.537 1431.39 822.537 1415.47C822.537 1388.16 855.689 1387.68 876.002 1387.68C876.002 1379.06 868.852 1373.54 860.401 1373.54C852.438 1373.54 845.776 1377.11 840.575 1382.96L827.575 1369.64C836.513 1361.19 849.513 1356.96 862.351 1356.96C890.791 1356.96 898.428 1371.43 898.428 1397.75V1437.89H876.002ZM876.002 1403.28H869.989C862.514 1403.28 845.938 1403.93 845.938 1414.65C845.938 1420.5 852.113 1423.27 857.476 1423.27C867.064 1423.27 876.002 1418.23 876.002 1408.48V1403.28ZM967.512 1358.91V1378.41H946.061V1404.74C946.061 1413.19 947.036 1419.37 957.599 1419.37C960.199 1419.37 965.4 1419.04 967.512 1417.09V1437.4C962.15 1439.35 956.137 1439.84 950.449 1439.84C934.198 1439.84 921.685 1433.18 921.685 1415.95V1378.41H906.084V1358.91H921.685V1335.51H946.061V1358.91H967.512ZM1013.05 1322.84L998.426 1368.66H977.625L989.65 1322.84H1013.05ZM1075.57 1367.36L1060.61 1382.15C1057.04 1377.76 1052.33 1375.49 1046.48 1375.49C1042.41 1375.49 1037.54 1377.28 1037.54 1381.99C1037.54 1393.69 1078.65 1383.78 1078.65 1413.84C1078.65 1433.99 1059.15 1439.84 1042.25 1439.84C1031.2 1439.84 1019.01 1437.08 1011.21 1429.12L1026 1412.7C1030.55 1418.23 1035.91 1421.32 1043.23 1421.32C1048.75 1421.32 1054.28 1419.85 1054.28 1415.63C1054.28 1402.95 1013.16 1413.68 1013.16 1383.61C1013.16 1365.09 1029.74 1356.96 1046.31 1356.96C1056.71 1356.96 1068.25 1359.56 1075.57 1367.36Z" fill="black"/>
<path d="M1169.18 1437.89V1322.84H1203.63L1252.54 1402.79H1252.87V1322.84H1278.22V1437.89H1245.07L1194.85 1355.99H1194.53V1437.89H1169.18ZM1356.29 1411.73L1373.36 1424.24C1365.56 1434.15 1352.72 1439.84 1340.04 1439.84C1315.67 1439.84 1296.16 1423.59 1296.16 1398.4C1296.16 1373.21 1315.67 1356.96 1340.04 1356.96C1362.79 1356.96 1377.09 1373.21 1377.09 1398.4V1406.04H1320.54C1322.49 1415.3 1329.48 1421.32 1338.9 1421.32C1346.87 1421.32 1352.23 1417.25 1356.29 1411.73ZM1320.54 1389.46H1352.72C1352.88 1381.34 1346.54 1374.51 1337.77 1374.51C1327.04 1374.51 1321.19 1381.83 1320.54 1389.46ZM1411.42 1437.89L1382.49 1358.91H1408.49L1424.58 1408.48H1424.91L1438.39 1358.91H1465.05L1479.67 1408.48H1480L1494.79 1358.91H1519.49L1491.37 1437.89H1467.32L1450.91 1385.4H1450.58L1435.96 1437.89H1411.42Z" fill="white"/>
</svg>
