<svg width="2633" height="2633" viewBox="0 0 2633 2633" fill="none" xmlns="http://www.w3.org/2000/svg">
<path d="M1525.24 1316.5C1525.24 1431.85 1431.74 1525.36 1316.4 1525.36C1201.06 1525.36 1107.56 1431.85 1107.56 1316.5C1107.56 1201.15 1201.06 1107.65 1316.4 1107.65C1431.74 1107.65 1525.24 1201.15 1525.24 1316.5Z" fill="#0097B2"/>
<path d="M1590.5 1316.5C1590.5 1467.9 1467.78 1590.63 1316.4 1590.63C1165.02 1590.63 1042.3 1467.9 1042.3 1316.5C1042.3 1165.11 1165.02 1042.38 1316.4 1042.38C1467.78 1042.38 1590.5 1165.11 1590.5 1316.5Z" fill="#0097B2" fill-opacity="0.5"/>
<path d="M1660.98 1316.5C1660.98 1506.82 1506.71 1661.11 1316.4 1661.11C1126.09 1661.11 971.814 1506.82 971.814 1316.5C971.814 1126.18 1126.09 971.888 1316.4 971.888C1506.71 971.888 1660.98 1126.18 1660.98 1316.5Z" fill="#0097B2" fill-opacity="0.2"/>
<path d="M1765.4 1316.5C1765.4 1564.5 1564.38 1765.54 1316.4 1765.54C1068.42 1765.54 867.395 1564.5 867.395 1316.5C867.395 1068.5 1068.42 867.459 1316.4 867.459C1564.38 867.459 1765.4 1068.5 1765.4 1316.5Z" fill="#0097B2" fill-opacity="0.1"/>
<path d="M2632.8 1316.5C2632.8 2043.58 2043.43 2633 1316.4 2633C589.372 2633 0 2043.58 0 1316.5C0 589.417 589.372 0 1316.4 0C2043.43 0 2632.8 589.417 2632.8 1316.5Z" fill="#0097B2" fill-opacity="0.05"/>
<path d="M644.117 1371.5L611.972 1263.11H637.994L655.291 1332.61H655.597L678.251 1263.11H700.446L722.948 1334.45H723.254L741.469 1263.11H765.654L733.969 1371.5H712.692L688.813 1296.49H688.507L664.628 1371.5H644.117Z" fill="black"/>
<path d="M773.461 1255.77H796.421V1307.2H796.727C798.87 1301.38 806.371 1295.26 817.545 1295.26C840.811 1295.26 845.097 1310.57 845.097 1330.47V1371.5H822.137V1335.06C822.137 1326.49 821.984 1315.47 810.197 1315.47C798.258 1315.47 796.421 1324.81 796.421 1334.45V1371.5H773.461V1255.77Z" fill="black"/>
<path d="M908.042 1371.5V1362.16H907.736C902.685 1370.12 893.501 1373.33 884.163 1373.33C870.234 1373.33 857.682 1365.37 857.682 1350.37C857.682 1324.65 888.909 1324.19 908.042 1324.19C908.042 1316.08 901.307 1310.88 893.348 1310.88C885.847 1310.88 879.571 1314.24 874.673 1319.75L862.428 1307.2C870.846 1299.24 883.092 1295.26 895.184 1295.26C921.972 1295.26 929.166 1308.89 929.166 1333.68V1371.5H908.042ZM908.042 1338.89H902.379C895.338 1338.89 879.724 1339.5 879.724 1349.61C879.724 1355.12 885.541 1357.72 890.592 1357.72C899.624 1357.72 908.042 1352.97 908.042 1343.79V1338.89Z" fill="black"/>
<path d="M994.237 1297.1V1315.47H974.032V1340.27C974.032 1348.23 974.951 1354.04 984.9 1354.04C987.349 1354.04 992.247 1353.74 994.237 1351.9V1371.04C989.186 1372.87 983.522 1373.33 978.165 1373.33C962.858 1373.33 951.072 1367.06 951.072 1350.83V1315.47H936.377V1297.1H951.072V1275.05H974.032V1297.1H994.237Z" fill="black"/>
<path d="M1037.13 1263.11L1023.36 1306.28H1003.76L1015.09 1263.11H1037.13Z" fill="black"/>
<path d="M1096.01 1305.06L1081.93 1318.99C1078.56 1314.86 1074.13 1312.71 1068.61 1312.71C1064.79 1312.71 1060.2 1314.4 1060.2 1318.84C1060.2 1329.86 1098.92 1320.52 1098.92 1348.84C1098.92 1367.82 1080.55 1373.33 1064.64 1373.33C1054.23 1373.33 1042.75 1370.73 1035.4 1363.23L1049.33 1347.77C1053.61 1352.97 1058.67 1355.88 1065.55 1355.88C1070.76 1355.88 1075.96 1354.5 1075.96 1350.52C1075.96 1338.58 1037.24 1348.69 1037.24 1320.37C1037.24 1302.92 1052.85 1295.26 1068.46 1295.26C1078.26 1295.26 1089.13 1297.71 1096.01 1305.06Z" fill="black"/>
<path d="M1158.89 1371.5V1263.11H1191.34L1237.42 1338.43H1237.72V1263.11H1261.6V1371.5H1230.38L1183.08 1294.34H1182.77V1371.5H1158.89Z" fill="white"/>
<path d="M1335.14 1346.85L1351.21 1358.64C1343.87 1367.97 1331.78 1373.33 1319.84 1373.33C1296.88 1373.33 1278.51 1358.02 1278.51 1334.3C1278.51 1310.57 1296.88 1295.26 1319.84 1295.26C1341.27 1295.26 1354.74 1310.57 1354.74 1334.3V1341.49H1301.47C1303.3 1350.22 1309.89 1355.88 1318.76 1355.88C1326.26 1355.88 1331.32 1352.05 1335.14 1346.85ZM1301.47 1325.88H1331.78C1331.93 1318.22 1325.96 1311.79 1317.69 1311.79C1307.59 1311.79 1302.08 1318.68 1301.47 1325.88Z" fill="white"/>
<path d="M1387.07 1371.5L1359.82 1297.1H1384.31L1399.47 1343.79H1399.77L1412.48 1297.1H1437.58L1451.36 1343.79H1451.66L1465.59 1297.1H1488.86L1462.38 1371.5H1439.72L1424.26 1322.05H1423.96L1410.18 1371.5H1387.07Z" fill="white"/>
<path d="M1588.19 1371.5V1362.16H1587.88C1582.83 1370.12 1573.64 1373.33 1564.31 1373.33C1550.38 1373.33 1537.83 1365.37 1537.83 1350.37C1537.83 1324.65 1569.05 1324.19 1588.19 1324.19C1588.19 1316.08 1581.45 1310.88 1573.49 1310.88C1565.99 1310.88 1559.72 1314.24 1554.82 1319.75L1542.57 1307.2C1550.99 1299.24 1563.24 1295.26 1575.33 1295.26C1602.12 1295.26 1609.31 1308.89 1609.31 1333.68V1371.5H1588.19ZM1588.19 1338.89H1582.52C1575.48 1338.89 1559.87 1339.5 1559.87 1349.61C1559.87 1355.12 1565.68 1357.72 1570.74 1357.72C1579.77 1357.72 1588.19 1352.97 1588.19 1343.79V1338.89Z" fill="black"/>
<path d="M1674.38 1297.1V1315.47H1654.18V1340.27C1654.18 1348.23 1655.09 1354.04 1665.04 1354.04C1667.49 1354.04 1672.39 1353.74 1674.38 1351.9V1371.04C1669.33 1372.87 1663.67 1373.33 1658.31 1373.33C1643 1373.33 1631.22 1367.06 1631.22 1350.83V1315.47H1616.52V1297.1H1631.22V1275.05H1654.18V1297.1H1674.38Z" fill="black"/>
<path d="M1767.66 1390.33V1311.31H1746.29V1285.41H1767.66V1266.84C1767.66 1243.96 1773.49 1224.53 1808.67 1224.53C1815.15 1224.53 1821.63 1224.96 1827.67 1226.47L1826.16 1253.89C1822.49 1252.59 1819.47 1251.73 1815.58 1251.73C1805.22 1251.73 1800.04 1254.97 1800.04 1268.79V1285.41H1824V1311.31H1800.04V1390.33H1767.66Z" fill="#0097B2"/>
<path d="M1937.36 1285.41V1390.33H1906.27V1376.08H1905.84C1901.52 1384.28 1890.95 1392.92 1875.19 1392.92C1842.38 1392.92 1836.33 1371.33 1836.33 1343.27V1285.41H1868.71V1336.79C1868.71 1348.88 1868.93 1364.42 1885.55 1364.42C1902.39 1364.42 1904.98 1351.25 1904.98 1337.65V1285.41H1937.36Z" fill="#1A0202"/>
<path d="M1960.72 1390.33V1227.12H1993.1V1390.33H1960.72Z" fill="#1A0202"/>
<path d="M2016.79 1390.33V1227.12H2049.17V1390.33H2016.79Z" fill="#1A0202"/>
<path d="M2160.96 1298.95L2144.71 1303.55C2143.68 1300.84 2142.18 1298.2 2140.18 1295.65C2138.24 1293.04 2135.58 1290.9 2132.21 1289.21C2128.84 1287.52 2124.52 1286.68 2119.25 1286.68C2112.05 1286.68 2106.04 1288.34 2101.24 1291.66C2096.49 1294.93 2094.11 1299.1 2094.11 1304.16C2094.11 1308.66 2095.75 1312.21 2099.02 1314.81C2102.29 1317.42 2107.4 1319.59 2114.35 1321.33L2131.83 1325.62C2142.35 1328.18 2150.2 1332.09 2155.36 1337.35C2160.52 1342.57 2163.1 1349.29 2163.1 1357.52C2163.1 1364.26 2161.16 1370.29 2157.28 1375.61C2153.44 1380.92 2148.08 1385.11 2141.18 1388.18C2134.28 1391.25 2126.26 1392.78 2117.11 1392.78C2105.1 1392.78 2095.16 1390.17 2087.29 1384.96C2079.42 1379.75 2074.44 1372.13 2072.34 1362.12L2089.51 1357.82C2091.15 1364.16 2094.24 1368.91 2098.79 1372.08C2103.39 1375.25 2109.39 1376.84 2116.8 1376.84C2125.23 1376.84 2131.93 1375.05 2136.89 1371.47C2141.89 1367.84 2144.4 1363.5 2144.4 1358.44C2144.4 1354.35 2142.97 1350.92 2140.11 1348.16C2137.24 1345.35 2132.85 1343.26 2126.92 1341.88L2107.3 1337.28C2096.51 1334.72 2088.59 1330.76 2083.53 1325.39C2078.52 1319.98 2076.02 1313.2 2076.02 1305.08C2076.02 1298.43 2077.89 1292.56 2081.62 1287.45C2085.4 1282.33 2090.53 1278.32 2097.02 1275.41C2103.57 1272.5 2110.98 1271.04 2119.25 1271.04C2130.91 1271.04 2140.05 1273.6 2146.7 1278.71C2153.39 1283.82 2158.15 1290.56 2160.96 1298.95Z" fill="#0097B2"/>
<path d="M2264.54 1342.18V1272.57H2282.63V1390.33H2264.54V1370.4H2263.31C2260.55 1376.38 2256.26 1381.46 2250.44 1385.65C2244.61 1389.79 2237.25 1391.86 2228.36 1391.86C2221 1391.86 2214.46 1390.25 2208.73 1387.03C2203.01 1383.76 2198.51 1378.85 2195.24 1372.31C2191.97 1365.72 2190.34 1357.41 2190.34 1347.4V1272.57H2208.43V1346.17C2208.43 1354.76 2210.83 1361.6 2215.63 1366.72C2220.49 1371.83 2226.67 1374.38 2234.18 1374.38C2238.68 1374.38 2243.25 1373.23 2247.91 1370.93C2252.61 1368.63 2256.54 1365.11 2259.71 1360.35C2262.93 1355.6 2264.54 1349.54 2264.54 1342.18Z" fill="#1A0202"/>
<path d="M2315.77 1390.33V1272.57H2333.86V1390.33H2315.77ZM2324.97 1252.95C2321.44 1252.95 2318.4 1251.75 2315.84 1249.34C2313.34 1246.94 2312.09 1244.05 2312.09 1240.68C2312.09 1237.31 2313.34 1234.42 2315.84 1232.02C2318.4 1229.62 2321.44 1228.42 2324.97 1228.42C2328.49 1228.42 2331.51 1229.62 2334.01 1232.02C2336.57 1234.42 2337.84 1237.31 2337.84 1240.68C2337.84 1244.05 2336.57 1246.94 2334.01 1249.34C2331.51 1251.75 2328.49 1252.95 2324.97 1252.95Z" fill="#1A0202"/>
<path d="M2418.2 1272.57V1287.91H2357.18V1272.57H2418.2ZM2374.97 1244.36H2393.06V1356.6C2393.06 1361.71 2393.8 1365.54 2395.28 1368.1C2396.81 1370.6 2398.75 1372.29 2401.11 1373.16C2403.51 1373.97 2406.04 1374.38 2408.69 1374.38C2410.69 1374.38 2412.32 1374.28 2413.6 1374.08C2414.88 1373.82 2415.9 1373.62 2416.67 1373.46L2420.35 1389.71C2419.12 1390.17 2417.41 1390.63 2415.21 1391.09C2413.01 1391.61 2410.23 1391.86 2406.85 1391.86C2401.74 1391.86 2396.74 1390.76 2391.83 1388.56C2386.97 1386.37 2382.94 1383.02 2379.72 1378.52C2376.55 1374.02 2374.97 1368.35 2374.97 1361.5V1244.36Z" fill="#1A0202"/>
<path d="M2493.52 1392.78C2482.17 1392.78 2472.38 1390.28 2464.16 1385.27C2455.98 1380.21 2449.67 1373.16 2445.22 1364.11C2440.83 1355.01 2438.63 1344.43 2438.63 1332.37C2438.63 1320.31 2440.83 1309.68 2445.22 1300.48C2449.67 1291.23 2455.85 1284.02 2463.77 1278.86C2471.75 1273.65 2481.05 1271.04 2491.68 1271.04C2497.81 1271.04 2503.86 1272.06 2509.84 1274.11C2515.82 1276.15 2521.27 1279.47 2526.17 1284.07C2531.08 1288.62 2534.99 1294.65 2537.9 1302.17C2540.81 1309.68 2542.27 1318.93 2542.27 1329.92V1337.58H2451.51V1321.94H2523.87C2523.87 1315.3 2522.54 1309.37 2519.89 1304.16C2517.28 1298.95 2513.55 1294.83 2508.69 1291.82C2503.89 1288.8 2498.22 1287.29 2491.68 1287.29C2484.47 1287.29 2478.24 1289.08 2472.97 1292.66C2467.76 1296.19 2463.75 1300.79 2460.94 1306.46C2458.13 1312.13 2456.72 1318.21 2456.72 1324.7V1335.13C2456.72 1344.02 2458.25 1351.56 2461.32 1357.75C2464.44 1363.88 2468.76 1368.56 2474.27 1371.78C2479.79 1374.94 2486.21 1376.53 2493.52 1376.53C2498.27 1376.53 2502.56 1375.86 2506.39 1374.54C2510.28 1373.16 2513.63 1371.11 2516.44 1368.4C2519.25 1365.64 2521.42 1362.22 2522.95 1358.13L2540.43 1363.04C2538.59 1368.96 2535.5 1374.18 2531.16 1378.68C2526.81 1383.12 2521.45 1386.6 2515.06 1389.1C2508.67 1391.55 2501.49 1392.78 2493.52 1392.78Z" fill="#1A0202"/>
<path d="M2586.88 1374.5C2586.88 1383.44 2579.63 1390.69 2570.69 1390.69C2561.75 1390.69 2554.5 1383.44 2554.5 1374.5C2554.5 1365.55 2561.75 1358.3 2570.69 1358.3C2579.63 1358.3 2586.88 1365.55 2586.88 1374.5Z" fill="#0097B2"/>
</svg>
