<svg width="1449" height="1614" viewBox="0 0 1449 1614" fill="none" xmlns="http://www.w3.org/2000/svg">
<path d="M1046.5 887.7H805C760.725 887.7 724.5 924.015 724.5 968.4V1210.5C724.5 1254.88 760.725 1291.2 805 1291.2H1046.5C1090.78 1291.2 1127 1254.88 1127 1210.5V968.4C1127 924.015 1090.78 887.7 1046.5 887.7ZM1046.5 80.7V161.4H402.5V80.7C402.5 36.315 366.275 0 322 0C277.725 0 241.5 36.315 241.5 80.7V161.4H161C71.645 161.4 0.804999 234.03 0.804999 322.8L0 1452.6C0 1541.37 71.645 1614 161 1614H1288C1376.55 1614 1449 1541.37 1449 1452.6V322.8C1449 234.03 1376.55 161.4 1288 161.4H1207.5V80.7C1207.5 36.315 1171.28 0 1127 0C1082.72 0 1046.5 36.315 1046.5 80.7ZM1207.5 1452.6H241.5C197.225 1452.6 161 1416.28 161 1371.9V564.9H1288V1371.9C1288 1416.28 1251.78 1452.6 1207.5 1452.6Z" fill="white"/>
</svg>
