<svg width="2696" height="2696" viewBox="0 0 2696 2696" fill="none" xmlns="http://www.w3.org/2000/svg">
<path d="M2426.4 0H269.6C121.32 0 1.348 121.32 1.348 269.6L0 2696L539.2 2156.8H2426.4C2574.68 2156.8 2696 2035.48 2696 1887.2V269.6C2696 121.32 2574.68 0 2426.4 0ZM2022 1617.6H674C599.86 1617.6 539.2 1556.94 539.2 1482.8C539.2 1408.66 599.86 1348 674 1348H2022C2096.14 1348 2156.8 1408.66 2156.8 1482.8C2156.8 1556.94 2096.14 1617.6 2022 1617.6ZM2022 1213.2H674C599.86 1213.2 539.2 1152.54 539.2 1078.4C539.2 1004.26 599.86 943.6 674 943.6H2022C2096.14 943.6 2156.8 1004.26 2156.8 1078.4C2156.8 1152.54 2096.14 1213.2 2022 1213.2ZM2022 808.8H674C599.86 808.8 539.2 748.14 539.2 674C539.2 599.86 599.86 539.2 674 539.2H2022C2096.14 539.2 2156.8 599.86 2156.8 674C2156.8 748.14 2096.14 808.8 2022 808.8Z" fill="#0097B2"/>
</svg>
