<svg width="3378" height="3378" viewBox="0 0 3378 3378" fill="none" xmlns="http://www.w3.org/2000/svg">
<path d="M187.667 1876.67H1313.67C1416.88 1876.67 1501.33 1792.22 1501.33 1689V187.667C1501.33 84.45 1416.88 0 1313.67 0H187.667C84.45 0 0 84.45 0 187.667V1689C0 1792.22 84.45 1876.67 187.667 1876.67ZM187.667 3378H1313.67C1416.88 3378 1501.33 3293.55 1501.33 3190.33V2439.67C1501.33 2336.45 1416.88 2252 1313.67 2252H187.667C84.45 2252 0 2336.45 0 2439.67V3190.33C0 3293.55 84.45 3378 187.667 3378ZM2064.33 3378H3190.33C3293.55 3378 3378 3293.55 3378 3190.33V1689C3378 1585.78 3293.55 1501.33 3190.33 1501.33H2064.33C1961.12 1501.33 1876.67 1585.78 1876.67 1689V3190.33C1876.67 3293.55 1961.12 3378 2064.33 3378ZM1876.67 187.667V938.333C1876.67 1041.55 1961.12 1126 2064.33 1126H3190.33C3293.55 1126 3378 1041.55 3378 938.333V187.667C3378 84.45 3293.55 0 3190.33 0H2064.33C1961.12 0 1876.67 84.45 1876.67 187.667Z" fill="white"/>
</svg>
