<svg width="2918" height="2988" viewBox="0 0 2918 2988" fill="none" xmlns="http://www.w3.org/2000/svg">
<path d="M2046.34 2203.65C2015.9 2167.68 2000.68 2126.85 2000.68 2081.14C2000.68 2035.55 2015.9 1997.53 2046.34 1967.1L2353.49 1660H1162.22C1115.18 1660 1075.77 1644.06 1044 1612.19C1012.13 1580.43 996.188 1541.03 996.188 1494C996.188 1446.97 1012.13 1407.51 1044 1375.64C1075.77 1343.88 1115.18 1328 1162.22 1328H2353.49L2046.34 1020.9C2013.13 987.7 1996.53 948.303 1996.53 902.708C1996.53 857.003 2013.13 817.55 2046.34 784.35C2076.77 751.15 2114.85 734.55 2160.57 734.55C2206.17 734.55 2244.19 749.767 2274.63 780.2L2872.34 1377.8C2888.94 1394.4 2900.73 1412.38 2907.71 1431.75C2914.57 1451.12 2918 1471.87 2918 1494C2918 1516.13 2914.57 1536.88 2907.71 1556.25C2900.73 1575.62 2888.94 1593.6 2872.34 1610.2L2274.63 2207.8C2238.66 2243.77 2199.25 2259.65 2156.41 2255.44C2113.47 2251.35 2076.77 2234.08 2046.34 2203.65ZM332.063 2988C240.745 2988 162.545 2955.52 97.4603 2890.56C32.4868 2825.49 0 2747.3 0 2656V332C0 240.7 32.4868 162.514 97.4603 97.442C162.545 32.4806 240.745 0 332.063 0H1328.25C1375.29 0 1414.75 15.8807 1446.63 47.642C1478.4 79.514 1494.28 118.967 1494.28 166C1494.28 213.033 1478.4 252.431 1446.63 284.192C1414.75 316.064 1375.29 332 1328.25 332H332.063V2656H1328.25C1375.29 2656 1414.75 2671.94 1446.63 2703.81C1478.4 2735.57 1494.28 2774.97 1494.28 2822C1494.28 2869.03 1478.4 2908.43 1446.63 2940.19C1414.75 2972.06 1375.29 2988 1328.25 2988H332.063Z" fill="#0097B2"/>
</svg>
