<svg width="2564" height="2239" viewBox="0 0 2564 2239" fill="none" xmlns="http://www.w3.org/2000/svg">
<path d="M156.244 1599.29C110.84 1599.29 73.4479 1583.93 44.0688 1553.23C14.6896 1522.63 0 1484.67 0 1439.36C0 1394.04 15.3306 1356.03 45.9918 1325.33C76.7598 1294.73 114.846 1279.43 160.25 1279.43H2407.76C2453.16 1279.43 2490.55 1294.73 2519.93 1325.33C2549.31 1356.03 2564 1394.04 2564 1439.36C2564 1484.67 2548.62 1522.63 2517.85 1553.23C2487.19 1583.93 2449.15 1599.29 2403.75 1599.29H156.244ZM156.244 2239C110.84 2239 73.4479 2223.65 44.0688 2192.94C14.6896 2162.34 0 2124.38 0 2079.07C0 2033.76 15.3306 1995.8 45.9918 1965.2C76.7598 1934.5 114.846 1919.14 160.25 1919.14H2407.76C2453.16 1919.14 2490.55 1934.5 2519.93 1965.2C2549.31 1995.8 2564 2033.76 2564 2079.07C2564 2124.38 2548.62 2162.34 2517.85 2192.94C2487.19 2223.65 2449.15 2239 2403.75 2239H156.244ZM156.244 959.571C110.84 959.571 73.4479 944.218 44.0688 913.512C14.6896 882.912 0 844.956 0 799.643C0 754.33 15.3306 716.32 45.9918 685.614C76.7598 655.014 114.846 639.714 160.25 639.714H2407.76C2453.16 639.714 2490.55 655.014 2519.93 685.614C2549.31 716.32 2564 754.33 2564 799.643C2564 844.956 2548.62 882.912 2517.85 913.512C2487.19 944.218 2449.15 959.571 2403.75 959.571H156.244ZM156.244 319.857C110.84 319.857 73.4479 304.557 44.0688 273.958C14.6896 243.251 0 205.242 0 159.929C0 114.615 15.3306 76.6058 45.9918 45.8995C76.7598 15.2999 114.846 0 160.25 0H2407.76C2453.16 0 2490.55 15.2999 2519.93 45.8995C2549.31 76.6058 2564 114.615 2564 159.929C2564 205.242 2548.62 243.251 2517.85 273.958C2487.19 304.557 2449.15 319.857 2403.75 319.857H156.244Z" fill="#0097B2"/>
</svg>
