<svg width="3273" height="3007" viewBox="0 0 3273 3007" fill="none" xmlns="http://www.w3.org/2000/svg">
<path d="M2945.7 0H327.3C147.285 0 1.6365 135.315 1.6365 300.7L0 3007L654.6 2405.6H2945.7C3125.71 2405.6 3273 2270.29 3273 2104.9V300.7C3273 135.315 3125.71 0 2945.7 0ZM2454.75 1804.2H818.25C728.242 1804.2 654.6 1736.54 654.6 1653.85C654.6 1571.16 728.242 1503.5 818.25 1503.5H2454.75C2544.76 1503.5 2618.4 1571.16 2618.4 1653.85C2618.4 1736.54 2544.76 1804.2 2454.75 1804.2ZM2454.75 1353.15H818.25C728.242 1353.15 654.6 1285.49 654.6 1202.8C654.6 1120.11 728.242 1052.45 818.25 1052.45H2454.75C2544.76 1052.45 2618.4 1120.11 2618.4 1202.8C2618.4 1285.49 2544.76 1353.15 2454.75 1353.15ZM2454.75 902.1H818.25C728.242 902.1 654.6 834.443 654.6 751.75C654.6 669.058 728.242 601.4 818.25 601.4H2454.75C2544.76 601.4 2618.4 669.058 2618.4 751.75C2618.4 834.443 2544.76 902.1 2454.75 902.1Z" fill="white"/>
</svg>
