<svg width="3297" height="2899" viewBox="0 0 3297 2899" fill="none" xmlns="http://www.w3.org/2000/svg">
<path d="M3156.88 71.3105L3021.7 206.512L2865.09 48.2274C2800.8 -16.0758 2696.95 -16.0758 2631.01 48.2274L2472.75 206.512L2314.49 48.2274C2250.2 -16.0758 2144.7 -16.0758 2080.41 48.2274L1923.8 206.512L1765.54 48.2274C1701.25 -16.0758 1597.4 -16.0758 1533.11 48.2274L1374.85 206.512L1216.59 48.2274C1152.3 -16.0758 1048.45 -16.0758 982.506 48.2274L824.25 206.512L665.994 48.2274C601.703 -16.0758 496.198 -16.0758 431.907 48.2274L275.3 206.512L140.122 71.3105C89.019 20.1978 0 56.4714 0 130.667V2569.24C0 2750.61 148.365 2899 329.7 2899H2967.3C3148.64 2899 3297 2750.61 3297 2569.24V130.667C3297 56.4714 3207.98 20.1978 3156.88 71.3105ZM1483.65 2569.24H329.7V1579.96H1483.65V2569.24ZM2967.3 2569.24H1813.35V2239.48H2967.3V2569.24ZM2967.3 1909.72H1813.35V1579.96H2967.3V1909.72ZM2967.3 1250.2H329.7V755.562H2967.3V1250.2Z" fill="#0097B2"/>
</svg>
