<svg width="996" height="1280" viewBox="0 0 996 1280" fill="none" xmlns="http://www.w3.org/2000/svg">
<path d="M72.0294 1137.76C72.0294 1215.93 135.994 1279.88 214.172 1279.88H782.744C860.922 1279.88 924.887 1215.93 924.887 1137.76V427.208C924.887 349.047 860.922 285.097 782.744 285.097H214.172C135.994 285.097 72.0294 349.047 72.0294 427.208V1137.76ZM924.887 71.9306H747.208L696.747 21.4811C683.954 8.69111 665.476 0.875 646.997 0.875H349.919C331.44 0.875 312.962 8.69111 300.169 21.4811L249.708 71.9306H72.0294C32.9401 71.9306 0.958008 103.906 0.958008 142.986C0.958008 182.067 32.9401 214.042 72.0294 214.042H924.887C963.976 214.042 995.958 182.067 995.958 142.986C995.958 103.906 963.976 71.9306 924.887 71.9306Z" fill="black"/>
</svg>
