<svg width="1739" height="1932" viewBox="0 0 1739 1932" fill="none" xmlns="http://www.w3.org/2000/svg">
<path d="M1255.94 1062.6H966.111C912.975 1062.6 869.5 1106.07 869.5 1159.2V1449C869.5 1502.13 912.975 1545.6 966.111 1545.6H1255.94C1309.08 1545.6 1352.56 1502.13 1352.56 1449V1159.2C1352.56 1106.07 1309.08 1062.6 1255.94 1062.6ZM1255.94 96.6V193.2H483.056V96.6C483.056 43.47 439.581 0 386.444 0C333.308 0 289.833 43.47 289.833 96.6V193.2H193.222C85.9839 193.2 0.96611 280.14 0.96611 386.4L0 1738.8C0 1845.06 85.9839 1932 193.222 1932H1545.78C1652.05 1932 1739 1845.06 1739 1738.8V386.4C1739 280.14 1652.05 193.2 1545.78 193.2H1449.17V96.6C1449.17 43.47 1405.69 0 1352.56 0C1299.42 0 1255.94 43.47 1255.94 96.6ZM1449.17 1738.8H289.833C236.697 1738.8 193.222 1695.33 193.222 1642.2V676.2H1545.78V1642.2C1545.78 1695.33 1502.3 1738.8 1449.17 1738.8Z" fill="#0097B2"/>
</svg>
