<svg width="2363" height="2419" viewBox="0 0 2363 2419" fill="none" xmlns="http://www.w3.org/2000/svg">
<path d="M1657.13 1784.01C1632.48 1754.89 1620.15 1721.84 1620.15 1684.83C1620.15 1647.92 1632.48 1617.15 1657.13 1592.51L1905.86 1343.89H941.166C903.072 1343.89 871.162 1330.99 845.436 1305.18C819.622 1279.47 806.714 1247.58 806.714 1209.5C806.714 1171.42 819.622 1139.48 845.436 1113.68C871.162 1087.97 903.072 1075.11 941.166 1075.11H1905.86L1657.13 826.492C1630.23 799.614 1616.79 767.719 1616.79 730.807C1616.79 693.805 1630.23 661.865 1657.13 634.988C1681.77 608.11 1712.61 594.671 1749.63 594.671C1786.56 594.671 1817.35 606.99 1842 631.628L2326.03 1115.43C2339.47 1128.87 2349.02 1143.43 2354.66 1159.1C2360.22 1174.78 2363 1191.58 2363 1209.5C2363 1227.42 2360.22 1244.22 2354.66 1259.9C2349.02 1275.57 2339.47 1290.13 2326.03 1303.57L1842 1787.37C1812.87 1816.49 1780.96 1829.35 1746.27 1825.94C1711.49 1822.63 1681.77 1808.65 1657.13 1784.01ZM268.905 2419C194.956 2419 131.629 2392.7 78.9235 2340.11C26.3078 2287.43 0 2224.14 0 2150.22V268.778C0 194.864 26.3078 131.567 78.9235 78.8863C131.629 26.2954 194.956 0 268.905 0H1075.62C1113.71 0 1145.67 12.8565 1171.48 38.5696C1197.21 64.3723 1210.07 96.312 1210.07 134.389C1210.07 172.466 1197.21 204.361 1171.48 230.074C1145.67 255.876 1113.71 268.778 1075.62 268.778H268.905V2150.22H1075.62C1113.71 2150.22 1145.67 2163.12 1171.48 2188.93C1197.21 2214.64 1210.07 2246.53 1210.07 2284.61C1210.07 2322.69 1197.21 2354.58 1171.48 2380.3C1145.67 2406.1 1113.71 2419 1075.62 2419H268.905Z" fill="white"/>
</svg>
