<svg width="2625" height="2296" viewBox="0 0 2625 2296" fill="none" xmlns="http://www.w3.org/2000/svg">
<path d="M159.961 1640C113.477 1640 75.1953 1624.26 45.1172 1592.77C15.0391 1561.39 0 1522.47 0 1476C0 1429.53 15.6953 1390.56 47.086 1359.07C78.586 1327.69 117.578 1312 164.062 1312H2465.04C2511.52 1312 2549.8 1327.69 2579.88 1359.07C2609.96 1390.56 2625 1429.53 2625 1476C2625 1522.47 2609.25 1561.39 2577.75 1592.77C2546.36 1624.26 2507.42 1640 2460.94 1640H159.961ZM159.961 2296C113.477 2296 75.1953 2280.26 45.1172 2248.77C15.0391 2217.39 0 2178.47 0 2132C0 2085.53 15.6953 2046.61 47.086 2015.23C78.586 1983.74 117.578 1968 164.062 1968H2465.04C2511.52 1968 2549.8 1983.74 2579.88 2015.23C2609.96 2046.61 2625 2085.53 2625 2132C2625 2178.47 2609.25 2217.39 2577.75 2248.77C2546.36 2280.26 2507.42 2296 2460.94 2296H159.961ZM159.961 984C113.477 984 75.1953 968.256 45.1172 936.768C15.0391 905.389 0 866.467 0 820C0 773.533 15.6953 734.556 47.086 703.068C78.586 671.689 117.578 656 164.062 656H2465.04C2511.52 656 2549.8 671.689 2579.88 703.068C2609.96 734.556 2625 773.533 2625 820C2625 866.467 2609.25 905.389 2577.75 936.768C2546.36 968.256 2507.42 984 2460.94 984H159.961ZM159.961 328C113.477 328 75.1953 312.311 45.1172 280.932C15.0391 249.444 0 210.467 0 164C0 117.533 15.6953 78.556 47.086 47.068C78.586 15.6894 117.578 0 164.062 0H2465.04C2511.52 0 2549.8 15.6894 2579.88 47.068C2609.96 78.556 2625 117.533 2625 164C2625 210.467 2609.25 249.444 2577.75 280.932C2546.36 312.311 2507.42 328 2460.94 328H159.961Z" fill="white"/>
</svg>
