<svg width="2805" height="2477" viewBox="0 0 2805 2477" fill="none" xmlns="http://www.w3.org/2000/svg">
<path d="M2685.79 60.93L2570.78 176.451L2437.54 41.207C2382.85 -13.7357 2294.49 -13.7357 2238.39 41.207L2103.75 176.451L1969.11 41.207C1914.41 -13.7357 1824.65 -13.7357 1769.95 41.207L1636.72 176.451L1502.08 41.207C1447.38 -13.7357 1359.02 -13.7357 1304.33 41.207L1169.69 176.451L1035.05 41.207C980.348 -13.7357 891.99 -13.7357 835.89 41.207L701.25 176.451L566.61 41.207C511.912 -13.7357 422.152 -13.7357 367.455 41.207L234.218 176.451L119.212 60.93C75.735 17.2576 0 48.251 0 111.646V2195.24C0 2350.21 126.225 2477 280.5 2477H2524.5C2678.78 2477 2805 2350.21 2805 2195.24V111.646C2805 48.251 2729.26 17.2576 2685.79 60.93ZM1262.25 2195.24H280.5V1349.97H1262.25V2195.24ZM2524.5 2195.24H1542.75V1913.48H2524.5V2195.24ZM2524.5 1631.73H1542.75V1349.97H2524.5V1631.73ZM2524.5 1068.21H280.5V645.577H2524.5V1068.21Z" fill="white"/>
</svg>
