<svg width="2933" height="2933" viewBox="0 0 2933 2933" fill="none" xmlns="http://www.w3.org/2000/svg">
<path d="M162.944 1629.44H1140.61C1230.23 1629.44 1303.56 1556.12 1303.56 1466.5V162.944C1303.56 73.325 1230.23 0 1140.61 0H162.944C73.325 0 0 73.325 0 162.944V1466.5C0 1556.12 73.325 1629.44 162.944 1629.44ZM162.944 2933H1140.61C1230.23 2933 1303.56 2859.67 1303.56 2770.06V2118.28C1303.56 2028.66 1230.23 1955.33 1140.61 1955.33H162.944C73.325 1955.33 0 2028.66 0 2118.28V2770.06C0 2859.67 73.325 2933 162.944 2933ZM1792.39 2933H2770.06C2859.67 2933 2933 2859.67 2933 2770.06V1466.5C2933 1376.88 2859.67 1303.56 2770.06 1303.56H1792.39C1702.77 1303.56 1629.44 1376.88 1629.44 1466.5V2770.06C1629.44 2859.67 1702.77 2933 1792.39 2933ZM1629.44 162.944V814.722C1629.44 904.342 1702.77 977.667 1792.39 977.667H2770.06C2859.67 977.667 2933 904.342 2933 814.722V162.944C2933 73.325 2859.67 0 2770.06 0H1792.39C1702.77 0 1629.44 73.325 1629.44 162.944Z" fill="#0097B2"/>
</svg>
