<svg version="1.2" xmlns="http://www.w3.org/2000/svg" viewBox="0 0 1080 1080" width="1080" height="1080">
	<title>New Project</title>
	<style>
		.s0 { fill: #000000 } 
	</style>
	<path id="head 1" fill-rule="evenodd" class="s0" d="m679.3 385c-41.5 0-75-33.5-75-75 0-41.5 33.5-75 75-75 41.4 0 75 33.5 75 75 0 41.5-33.6 75-75 75z"/>
	<path id="head 2" fill-rule="evenodd" class="s0" d="m369.3 229c-41.5 0-75.1-33.5-75.1-75 0-41.5 33.6-75 75-75 41.5 0 75 33.5 75 75 0 41.5-33.5 75-75 75z"/>
	<path id="Color Fill 1" class="s0" d="m254 294c0 0-43.4 2.7-67.7 23.7-23.9 24.7-40.6 80-70.2 92.3-32.4 11.8-56.7-21.1-21.1-56.8 40-49.3 41-81.4 119.3-102.1 51.2-16 54.3-25.8 163.7 35.9 49.3 31.7 45 61.1 105.5 118.9 63.5 60.2 80.4 83.7 80.4 83.7 0 0-44.2 24.3-91.9-19.6-47.7-43.9-82-88-82-88 0 0-24.9 68.8-31 91-6.1 22.2-15.2 43.4 17 86.9 50.3 68.8 41.4 94.3 51.5 145.6 10.4 52.8 12.4 82.9 12.4 82.9 0 0 9.2 49.5-13.7 52.4-22.9 2.9-30 2.4-44.3-58.2-31.1-121 1.7-126.6-104.9-196.6-113-68.1-63.1-114.7-48-173 15.5-59.9 33.1-100.1 25-119z"/>
	<path id="Color Fill 2" class="s0" d="m149 747l55-142 54 48-68 136c0 0-25.6 63.2-53 52-27.4-11.2-21.4-25.8 12-94z"/>
	<path id="Color Fill 3" class="s0" d="m540 527.2c0 0-58.2 6-56-17.2 2.2-23.2 39.4-29.8 99.6-41.2 60.2-11.3 78.2-8.9 155.8-52.5 37.1-25.2 44.1-26.9 118.5-10.3 93.5 9.4 86.1 20.8 117.7 63.3 21.7 32.8 35.1 52.4 14.2 70.7-27.7 11.7-27.6-2.6-52.8-40.8-12.6-16.1-12.6-31.1-89-35.2-31.5-2.5-18.4 4.6-8 25 10.4 20.4 49.2 101.6 61 132 11.8 30.4 49.2 91.3-63.5 96.7-108.2 12.8-134.4 18.2-180.5 50.3-46.1 32.1-107.4 101.2-129 78-18.6-20-6.5-27.7 70.5-112 45.8-50.2 33.4-59.6 106.5-76 73.1-16.4 70.8-18 12-114-26.9-49.2-12.6-39.3-120-22-57.1 9.2-57 5.2-57 5.2z"/>
	<path id="Color Fill 4" class="s0" d="m817.2 841.9c4.7 13.7 20.2 23.2 44.8 62.1 28 44.2 37 58 37 58 0 0 26.1 47.3 45.9 39.3 19.7-8.1 13.2-30.1-8.9-74.3-22.1-44.2-44-93-44-93 0 0-12.8-26.1-0.2-64.6l-78.5 16.5c-1.5 35.3-0.8 42.4 3.9 56z"/>
	<path id="Color Fill 5" class="s0" d="m115 853c0 0 269.6-0.8 337 1 67.4 1.8 146.6-3.3 191.7 72.1 21.8 44.7 10.3 77.7-7.3 74.5-48.7 0.3-12.3-39.9-61.6-75.8-29-27.7-262.7-11.1-365.1-13-68.7-1.3-93.4 4.1-114.3-5.6-29-13.6-17.3-56.1 19.6-53.2z"/>
</svg>