<svg version="1.2" xmlns="http://www.w3.org/2000/svg" viewBox="0 0 1080 1080" width="1080" height="1080">
	<title>New Project</title>
	<style>
		.s0 { fill: #000000 } 
	</style>
	<path id="Shape 1" fill-rule="evenodd" class="s0" d="m540.6 174.2c-36.3 0-65.6-29.3-65.6-65.6 0-36.3 29.3-65.6 65.6-65.6 36.3 0 65.6 29.3 65.6 65.6 0 36.3-29.3 65.6-65.6 65.6z"/>
	<path id="Shape 2" fill-rule="evenodd" class="s0" d="m294 76h494c18.2 0 33 14.8 33 33 0 18.2-14.8 33-33 33h-494c-18.2 0-33-14.8-33-33 0-18.2 14.8-33 33-33z"/>
	<path id="Shape 3" fill-rule="evenodd" class="s0" d="m574 78v494c0 18.2-14.8 33-33 33-18.2 0-33-14.8-33-33v-494c0-18.2 14.8-33 33-33 18.2 0 33 14.8 33 33z"/>
	<path id="Shape 4" fill-rule="evenodd" class="s0" d="m334 86.1l26 15-17.7 30.6 92 159.3h-34.7l-74.6-129.3-74.6 129.3h-34.7l92-159.3-17.7-30.6 26-15 9 15.6z"/>
	<path id="Shape 5" fill-rule="evenodd" class="s0" d="m765 85.1l26 15-17.7 30.6 92.6 160.3h-34.7l-75.2-130.3-75.2 130.3h-34.7l92.6-160.3-17.7-30.6 26-15 9 15.6z"/>
	<path id="Shape 6" fill-rule="evenodd" class="s0" d="m323.3 465c-57.4 0-104-45.2-106.2-102h212.3c-2.2 56.8-48.8 102-106.1 102z"/>
	<path id="Shape 7" fill-rule="evenodd" class="s0" d="m756.3 465c-57.4 0-104-45.2-106.2-102h212.3c-2.2 56.8-48.8 102-106.1 102z"/>
	<path id="Layer 1" class="s0" d="m78 653c0 0 150.8-53.4 173-62 22.2-8.6 36.4-20.8 81 0 44.6 20.8 283 123 283 123 0 0 116.8 39.6 25 107 0 0 29.1 40.1 168.8-37.1 162.7-96.5 178.1-54.9 193.2-18.9 15.1 36-113.3 98-160 124-187.5 94.1-168.5 118.8-254 95-114-44.4-218.1-92.1-276.5-113-58.3-20.9-42.4-39.3-233.7 57.8z"/>
</svg>