<svg version="1.2" xmlns="http://www.w3.org/2000/svg" viewBox="0 0 1080 1080" width="1080" height="1080">
	<title>New Project</title>
	<style>
		.s0 { fill: #000000 } 
	</style>
	<path id="Shape 8" fill-rule="evenodd" class="s0" d="m689.5 931c-157.3 0-284.5-127.2-284.5-284.5 0-157.3 127.2-284.5 284.5-284.5 157.3 0 284.5 127.2 284.5 284.5 0 157.3-127.2 284.5-284.5 284.5zm220.3-284.8c0-121.2-98.1-219.2-219.3-219.2-121.2 0-219.2 98-219.2 219.3 0 121.2 98 219.2 219.2 219.2 121.2 0 219.3-98 219.3-219.3z"/>
	<path id="Shape 9" fill-rule="evenodd" class="s0" d="m389.5 931c-157.3 0-284.5-127.2-284.5-284.5 0-157.3 127.2-284.5 284.5-284.5 157.3 0 284.5 127.2 284.5 284.5 0 157.3-127.2 284.5-284.5 284.5zm220.3-284.8c0-121.2-98.1-219.2-219.3-219.2-121.2 0-219.2 98-219.2 219.3 0 121.2 98 219.2 219.2 219.2 121.2 0 219.3-98 219.3-219.3z"/>
	<path id="Shape 10" fill-rule="evenodd" class="s0" d="m539.5 684c-157.3 0-284.5-127.2-284.5-284.5 0-157.3 127.2-284.5 284.5-284.5 157.3 0 284.5 127.2 284.5 284.5 0 157.3-127.2 284.5-284.5 284.5zm220.3-284.8c0-121.2-98.1-219.2-219.3-219.2-121.2 0-219.2 98-219.2 219.3 0 121.2 98 219.2 219.2 219.2 121.2 0 219.3-98 219.3-219.3z"/>
</svg>