<svg width="3000" height="3000" viewBox="0 0 3000 3000" fill="none" xmlns="http://www.w3.org/2000/svg">
<circle cx="1500" cy="1500" r="1500" fill="#1A0202"/>
<path d="M720.519 2185.63V1426.21H513.157V1177.23H720.519V998.785C720.519 778.846 777.072 592.105 1118.49 592.105C1181.32 592.105 1244.16 596.255 1302.81 610.779L1288.14 874.291C1252.54 861.842 1223.21 853.542 1185.51 853.542C1084.97 853.542 1034.7 884.666 1034.7 1017.46V1177.23H1267.2V1426.21H1034.7V2185.63H720.519Z" fill="#0097B2"/>
<path d="M1321.9 2030.01L1451.77 1930.41C1516.7 2009.26 1587.91 2061.13 1703.11 2061.13C1805.75 2061.13 1918.85 2017.56 1918.85 1911.74C1918.85 1808 1814.12 1781.02 1709.4 1758.2C1522.98 1716.7 1363.79 1677.28 1363.79 1476.01C1363.79 1287.2 1548.12 1189.68 1730.34 1189.68C1868.58 1189.68 1996.35 1241.55 2063.38 1366.04L1927.23 1455.26C1885.34 1386.79 1816.22 1339.07 1719.87 1339.07C1629.8 1339.07 1527.17 1382.64 1527.17 1473.94C1527.17 1554.86 1644.47 1590.13 1774.33 1615.03C1948.18 1648.23 2094.8 1710.48 2094.8 1905.52C2094.8 2125.46 1897.91 2210.53 1703.11 2210.53C1537.64 2210.53 1418.25 2166.95 1321.9 2030.01Z" fill="#0097B2"/>
<circle cx="2333.89" cy="2045.01" r="128.738" fill="#0097B2"/>
</svg>
