<svg width="6796" height="1920" viewBox="0 0 6796 1920" fill="none" xmlns="http://www.w3.org/2000/svg">
<path d="M172.78 1340.95V701.903H0V492.38H172.78V342.221C172.78 157.142 219.901 0 504.377 0C556.735 0 609.092 3.49201 657.959 15.7141L645.742 237.46C616.073 226.984 591.64 219.999 560.225 219.999C476.453 219.999 434.567 246.19 434.567 357.936V492.38H628.29V701.903H434.567V1340.95H172.78Z" fill="#0097B2"/>
<path d="M1544.75 492.38V1340.95H1293.43V1225.71H1289.94C1255.04 1292.06 1169.52 1361.9 1042.12 1361.9C776.84 1361.9 727.973 1187.3 727.973 960.315V492.38H989.761V907.934C989.761 1005.71 991.506 1131.43 1125.89 1131.43C1262.02 1131.43 1282.96 1024.92 1282.96 914.918V492.38H1544.75Z" fill="#0097B2"/>
<path d="M1733.62 1340.95V20.9523H1995.41V1340.95H1733.62Z" fill="#0097B2"/>
<path d="M2186.97 1340.95V20.9523H2448.76V1340.95H2186.97Z" fill="#0097B2"/>
<path d="M3352.51 601.864L3221.12 639.066C3212.86 617.158 3200.67 595.87 3184.56 575.202C3168.86 554.121 3147.37 536.76 3120.1 523.119C3092.83 509.478 3057.92 502.657 3015.36 502.657C2957.1 502.657 2908.56 516.092 2869.72 542.96C2831.29 569.415 2812.08 603.104 2812.08 644.026C2812.08 680.402 2825.3 709.13 2851.74 730.212C2878.19 751.293 2919.5 768.861 2975.7 782.915L3117 817.637C3202.12 838.305 3265.54 869.927 3307.27 912.503C3349 954.665 3369.86 1009.02 3369.86 1075.57C3369.86 1130.14 3354.16 1178.91 3322.76 1221.9C3291.77 1264.89 3248.39 1298.79 3192.61 1323.59C3136.83 1348.39 3071.97 1360.79 2998.01 1360.79C2900.91 1360.79 2820.55 1339.71 2756.92 1297.55C2693.29 1255.38 2653.01 1193.79 2636.07 1112.78L2774.89 1078.05C2788.11 1129.31 2813.11 1167.75 2849.88 1193.38C2887.07 1219.01 2935.62 1231.82 2995.53 1231.82C3063.7 1231.82 3117.83 1217.35 3157.91 1188.42C3198.4 1159.07 3218.64 1123.94 3218.64 1083.01C3218.64 1049.94 3207.07 1022.25 3183.94 999.928C3160.8 977.193 3125.26 960.246 3077.34 949.085L2918.68 911.883C2831.5 891.215 2767.46 859.18 2726.55 815.777C2686.06 771.961 2665.81 717.191 2665.81 651.467C2665.81 597.73 2680.9 550.194 2711.06 508.858C2741.63 467.522 2783.16 435.073 2835.63 411.512C2888.52 387.95 2948.43 376.17 3015.36 376.17C3109.56 376.17 3183.52 396.838 3237.24 438.174C3291.36 479.509 3329.79 534.073 3352.51 601.864Z" fill="#0097B2"/>
<path d="M4189.96 951.565V388.57H4336.23V1340.95H4189.96V1179.74H4180.05C4157.74 1228.1 4123.03 1269.23 4075.93 1303.13C4028.83 1336.61 3969.33 1353.35 3897.44 1353.35C3837.94 1353.35 3785.05 1340.33 3738.78 1314.29C3692.5 1287.83 3656.14 1248.15 3629.7 1195.24C3603.26 1141.92 3590.03 1074.75 3590.03 993.728V388.57H3736.3V983.807C3736.3 1053.25 3755.72 1108.64 3794.56 1149.98C3833.81 1191.31 3883.8 1211.98 3944.54 1211.98C3980.9 1211.98 4017.88 1202.68 4055.48 1184.08C4093.49 1165.48 4125.3 1136.96 4150.92 1098.51C4176.95 1060.07 4189.96 1011.09 4189.96 951.565Z" fill="#1A0202"/>
<path d="M4604.12 1340.95V388.57H4750.38V1340.95H4604.12ZM4678.49 229.841C4649.98 229.841 4625.4 220.127 4604.74 200.699C4584.49 181.271 4574.37 157.916 4574.37 130.635C4574.37 103.353 4584.49 79.9982 4604.74 60.5703C4625.4 41.1424 4649.98 31.4285 4678.49 31.4285C4707 31.4285 4731.38 41.1424 4751.62 60.5703C4772.28 79.9982 4782.61 103.353 4782.61 130.635C4782.61 157.916 4772.28 181.271 4751.62 200.699C4731.38 220.127 4707 229.841 4678.49 229.841Z" fill="#1A0202"/>
<path d="M5432.28 388.57V512.578H4938.95V388.57H5432.28ZM5082.73 160.396H5229V1068.13C5229 1109.47 5234.99 1140.47 5246.97 1161.14C5259.36 1181.39 5275.06 1195.03 5294.07 1202.06C5313.49 1208.67 5333.94 1211.98 5355.43 1211.98C5371.54 1211.98 5384.76 1211.15 5395.09 1209.5C5405.42 1207.43 5413.68 1205.78 5419.88 1204.54L5449.63 1335.99C5439.71 1339.71 5425.87 1343.43 5408.11 1347.15C5390.34 1351.28 5367.82 1353.35 5340.55 1353.35C5299.23 1353.35 5258.74 1344.46 5219.08 1326.69C5179.83 1308.91 5147.19 1281.84 5121.16 1245.46C5095.54 1209.09 5082.73 1163.2 5082.73 1107.81V160.396Z" fill="#1A0202"/>
<path d="M6041.19 1360.79C5949.47 1360.79 5870.35 1340.54 5803.82 1300.03C5737.72 1259.1 5686.69 1202.06 5650.74 1128.9C5615.21 1055.32 5597.44 969.753 5597.44 872.2C5597.44 774.648 5615.21 688.669 5650.74 614.264C5686.69 539.446 5736.68 481.163 5800.73 439.414C5865.18 397.251 5940.38 376.17 6026.32 376.17C6075.9 376.17 6124.86 384.437 6173.2 400.971C6221.54 417.506 6265.55 444.374 6305.21 481.576C6344.88 518.365 6376.48 567.141 6400.03 627.905C6423.59 688.669 6435.36 763.487 6435.36 852.359V914.363H5701.56V787.875H6286.62C6286.62 734.138 6275.88 686.189 6254.39 644.026C6233.32 601.864 6203.16 568.588 6163.91 544.2C6125.07 519.812 6079.21 507.618 6026.32 507.618C5968.06 507.618 5917.65 522.085 5875.1 551.021C5832.95 579.542 5800.52 616.745 5777.79 662.627C5755.07 708.51 5743.71 757.7 5743.71 810.196V894.522C5743.71 966.446 5756.1 1027.42 5780.89 1077.43C5806.1 1127.04 5841.01 1164.86 5885.63 1190.9C5930.26 1216.53 5982.11 1229.34 6041.19 1229.34C6079.62 1229.34 6114.32 1223.97 6145.31 1213.22C6176.71 1202.06 6203.78 1185.53 6226.5 1163.62C6249.23 1141.3 6266.79 1113.6 6279.18 1080.53L6420.49 1120.22C6405.61 1168.17 6380.62 1210.33 6345.5 1246.7C6310.38 1282.67 6266.99 1310.77 6215.35 1331.03C6163.7 1350.87 6105.65 1360.79 6041.19 1360.79Z" fill="#1A0202"/>
<path d="M6796 1205.31C6796 1277.63 6737.4 1336.26 6665.11 1336.26C6592.82 1336.26 6534.21 1277.63 6534.21 1205.31C6534.21 1132.99 6592.82 1074.36 6665.11 1074.36C6737.4 1074.36 6796 1132.99 6796 1205.31Z" fill="#0097B2"/>
<path d="M1327.54 1842.36V1613.33H1471.43V1638.56H1354.7V1710.38H1463.67V1735.61H1354.7V1817.13H1477.25V1842.36H1327.54Z" fill="#0097B2"/>
<path d="M1514.69 1842.36V1726.88C1514.69 1712.96 1513.39 1701 1513.39 1690.97H1537.32C1537.32 1699.05 1537.97 1707.47 1537.97 1715.88H1538.61C1545.41 1701 1564.16 1687.09 1589.06 1687.09C1621.72 1687.09 1632.06 1705.52 1636.91 1715.88C1647.91 1698.08 1661.81 1687.09 1684.77 1687.09C1728.1 1687.09 1742.32 1711.35 1742.32 1750.49V1842.36H1717.1V1751.78C1717.1 1730.76 1709.67 1710.38 1680.24 1710.38C1658.9 1710.38 1641.12 1727.85 1641.12 1755.02V1842.36H1615.89V1756.64C1615.89 1723.32 1607.49 1710.38 1586.79 1710.38C1554.14 1710.38 1539.91 1733.99 1539.91 1768.61V1842.36H1514.69Z" fill="#0097B2"/>
<path d="M1788.74 1916.12V1690.97H1813.97V1712.97H1814.61C1828.52 1696.79 1846.95 1687.09 1868.93 1687.09C1916.47 1687.09 1948.48 1720.73 1948.48 1766.66C1948.48 1811.95 1915.17 1846.24 1872.82 1846.24C1845.65 1846.24 1823.99 1832.66 1814.61 1815.51H1813.97V1916.12H1788.74ZM1813.97 1766.66C1813.97 1798.37 1834.98 1822.95 1867.64 1822.95C1900.3 1822.95 1921.32 1798.37 1921.32 1766.66C1921.32 1734.96 1900.3 1710.38 1867.64 1710.38C1834.98 1710.38 1813.97 1734.96 1813.97 1766.66Z" fill="#0097B2"/>
<path d="M1978.98 1766.66C1978.98 1719.43 2013.25 1687.09 2059.82 1687.09C2106.38 1687.09 2140.65 1719.43 2140.65 1766.66C2140.65 1813.89 2106.38 1846.24 2059.82 1846.24C2013.25 1846.24 1978.98 1813.89 1978.98 1766.66ZM2006.14 1766.66C2006.14 1798.37 2027.16 1822.95 2059.82 1822.95C2092.47 1822.95 2113.49 1798.37 2113.49 1766.66C2113.49 1734.96 2092.47 1710.38 2059.82 1710.38C2027.16 1710.38 2006.14 1734.96 2006.14 1766.66Z" fill="#0097B2"/>
<path d="M2390.84 1690.97L2342.02 1842.36H2317.12L2274.11 1725.9H2273.47L2235.31 1842.36H2209.45L2160.3 1690.97H2188.1L2222.7 1807.42H2223.35L2262.47 1690.97H2288.99L2328.76 1807.42H2329.41L2363.68 1690.97H2390.84Z" fill="#0097B2"/>
<path d="M2535.45 1799.98L2554.53 1814.87C2536.74 1837.83 2515.4 1846.24 2487.27 1846.24C2439.74 1846.24 2410.64 1810.66 2410.64 1766.66C2410.64 1719.76 2443.62 1687.09 2488.24 1687.09C2530.92 1687.09 2560.02 1716.2 2560.02 1766.34V1774.43H2437.8C2439.74 1800.63 2459.78 1822.95 2487.27 1822.95C2508.93 1822.95 2523.48 1815.19 2535.45 1799.98ZM2437.8 1753.08H2532.86C2531.89 1727.52 2515.08 1710.38 2487.27 1710.38C2459.46 1710.38 2441.03 1727.52 2437.8 1753.08Z" fill="#0097B2"/>
<path d="M2599.04 1842.36V1726.88C2599.04 1712.96 2597.75 1701 2597.75 1690.97H2621.67C2621.67 1699.05 2622.32 1707.47 2622.32 1715.88H2622.97C2629.76 1701 2648.51 1687.09 2673.41 1687.09C2676.64 1687.09 2680.2 1687.41 2683.76 1688.7L2682.14 1714.26C2677.94 1712.97 2673.09 1712.32 2668.56 1712.32C2637.84 1712.32 2624.26 1733.99 2624.26 1768.61V1842.36H2599.04Z" fill="#0097B2"/>
<path d="M2714.98 1842.36V1690.97H2740.2V1842.36H2714.98ZM2709.16 1631.77C2709.16 1621.74 2717.24 1613.33 2727.59 1613.33C2737.94 1613.33 2746.02 1621.74 2746.02 1631.77C2746.02 1642.44 2738.26 1650.21 2727.59 1650.21C2716.92 1650.21 2709.16 1642.44 2709.16 1631.77Z" fill="#0097B2"/>
<path d="M2790.4 1842.36V1726.88C2790.4 1712.96 2789.1 1701 2789.1 1690.97H2813.03C2813.03 1699.05 2813.68 1707.47 2813.68 1715.88H2814.32C2821.11 1701 2839.87 1687.09 2864.77 1687.09C2904.54 1687.09 2922.32 1712.32 2922.32 1748.87V1842.36H2897.1V1751.46C2897.1 1726.23 2886.11 1710.38 2862.5 1710.38C2829.84 1710.38 2815.62 1733.99 2815.62 1768.61V1842.36H2790.4Z" fill="#0097B2"/>
<path d="M3121.07 1690.97V1835.57C3121.07 1890.24 3091.65 1920 3038.62 1920C3009.19 1920 2985.59 1912.24 2964.25 1891.21L2982.36 1870.51C2998.2 1887.65 3015.34 1896.71 3038.62 1896.71C3083.89 1896.71 3095.85 1867.59 3095.85 1835.57V1816.16H3095.2C3083.24 1835.57 3061.9 1844.3 3041.85 1844.3C2994.32 1844.3 2961.34 1811.31 2961.34 1766.66C2961.34 1717.17 2993.67 1687.09 3041.85 1687.09C3062.22 1687.09 3085.18 1696.79 3095.2 1716.85H3095.85V1690.97H3121.07ZM2988.5 1766.66C2988.5 1797.4 3012.43 1821.01 3041.85 1821.01C3076.45 1821.01 3095.85 1795.13 3095.85 1766.02C3095.85 1733.35 3073.86 1710.38 3041.85 1710.38C3010.16 1710.38 2988.5 1734.96 2988.5 1766.66Z" fill="#0097B2"/>
<path d="M3240.92 1818.1L3260.97 1802.57C3270.99 1814.86 3281.99 1822.95 3299.77 1822.95C3315.61 1822.95 3333.07 1816.16 3333.07 1799.66C3333.07 1783.49 3316.91 1779.28 3300.74 1775.72C3271.96 1769.25 3247.39 1763.11 3247.39 1731.73C3247.39 1702.29 3275.84 1687.09 3303.97 1687.09C3325.31 1687.09 3345.04 1695.17 3355.39 1714.58L3334.37 1728.49C3327.9 1717.82 3317.23 1710.38 3302.36 1710.38C3288.45 1710.38 3272.61 1717.17 3272.61 1731.4C3272.61 1744.02 3290.72 1749.52 3310.76 1753.4C3337.6 1758.58 3360.24 1768.28 3360.24 1798.69C3360.24 1832.98 3329.84 1846.24 3299.77 1846.24C3274.22 1846.24 3255.79 1839.45 3240.92 1818.1Z" fill="#0097B2"/>
<path d="M3478.19 1690.97V1712.32H3433.56V1788.02C3433.56 1807.42 3433.89 1822.95 3456.2 1822.95C3463.64 1822.95 3471.72 1821.33 3478.51 1817.78L3479.48 1840.74C3470.75 1844.63 3459.43 1846.24 3450.06 1846.24C3414.16 1846.24 3408.34 1826.83 3408.34 1795.46V1712.32H3375.36V1690.97H3408.34V1647.94H3433.56V1690.97H3478.19Z" fill="#0097B2"/>
<path d="M3522.99 1726.88L3507.15 1710.38C3522.67 1694.53 3545.3 1687.09 3567.29 1687.09C3611.91 1687.09 3630.67 1708.44 3630.67 1751.14V1816.16C3630.67 1824.89 3631.64 1834.6 3632.93 1842.36H3608.68C3607.06 1835.57 3607.06 1826.19 3607.06 1819.72H3606.41C3596.39 1835.25 3579.58 1846.24 3556.62 1846.24C3525.9 1846.24 3500.36 1830.72 3500.36 1801.28C3500.36 1751.14 3558.56 1748.23 3595.74 1748.23H3605.44V1743.7C3605.44 1721.7 3591.54 1710.38 3567.94 1710.38C3551.77 1710.38 3534.95 1715.88 3522.99 1726.88ZM3605.44 1769.58H3580.22C3548.21 1769.58 3527.52 1778.31 3527.52 1798.69C3527.52 1817.78 3541.74 1824.89 3560.82 1824.89C3589.92 1824.89 3604.8 1803.87 3605.44 1779.28V1769.58Z" fill="#0097B2"/>
<path d="M3676.76 1842.36V1726.88C3676.76 1712.96 3675.47 1701 3675.47 1690.97H3699.39C3699.39 1699.05 3700.04 1707.47 3700.04 1715.88H3700.69C3707.48 1701 3726.23 1687.09 3751.13 1687.09C3754.36 1687.09 3757.92 1687.41 3761.48 1688.7L3759.86 1714.26C3755.66 1712.97 3750.81 1712.32 3746.28 1712.32C3715.56 1712.32 3701.98 1733.99 3701.98 1768.61V1842.36H3676.76Z" fill="#0097B2"/>
<path d="M3873.21 1690.97V1712.32H3828.59V1788.02C3828.59 1807.42 3828.92 1822.95 3851.23 1822.95C3858.66 1822.95 3866.75 1821.33 3873.54 1817.78L3874.51 1840.74C3865.78 1844.63 3854.46 1846.24 3845.08 1846.24C3809.19 1846.24 3803.37 1826.83 3803.37 1795.46V1712.32H3770.39V1690.97H3803.37V1647.94H3828.59V1690.97H3873.21Z" fill="#0097B2"/>
<path d="M4036.04 1690.97V1806.45C4036.04 1820.36 4037.33 1832.33 4037.33 1842.36H4013.41C4013.41 1834.27 4012.76 1825.86 4012.76 1817.45H4012.11C4005.32 1832.33 3986.57 1846.24 3961.67 1846.24C3921.9 1846.24 3904.11 1821.01 3904.11 1784.46V1690.97H3929.34V1781.87C3929.34 1807.1 3940.33 1822.95 3963.93 1822.95C3996.59 1822.95 4010.82 1799.34 4010.82 1764.72V1690.97H4036.04Z" fill="#0097B2"/>
<path d="M4082.49 1916.12V1690.97H4107.71V1712.97H4108.36C4122.27 1696.79 4140.7 1687.09 4162.68 1687.09C4210.22 1687.09 4242.23 1720.73 4242.23 1766.66C4242.23 1811.95 4208.92 1846.24 4166.56 1846.24C4139.4 1846.24 4117.74 1832.66 4108.36 1815.51H4107.71V1916.12H4082.49ZM4107.71 1766.66C4107.71 1798.37 4128.73 1822.95 4161.39 1822.95C4194.05 1822.95 4215.07 1798.37 4215.07 1766.66C4215.07 1734.96 4194.05 1710.38 4161.39 1710.38C4128.73 1710.38 4107.71 1734.96 4107.71 1766.66Z" fill="#0097B2"/>
<path d="M4264.64 1818.1L4284.69 1802.57C4294.72 1814.86 4305.71 1822.95 4323.49 1822.95C4339.34 1822.95 4356.8 1816.16 4356.8 1799.66C4356.8 1783.49 4340.63 1779.28 4324.46 1775.72C4295.69 1769.25 4271.11 1763.11 4271.11 1731.73C4271.11 1702.29 4299.57 1687.09 4327.7 1687.09C4349.04 1687.09 4368.76 1695.17 4379.11 1714.58L4358.09 1728.49C4351.62 1717.82 4340.95 1710.38 4326.08 1710.38C4312.18 1710.38 4296.33 1717.17 4296.33 1731.4C4296.33 1744.02 4314.44 1749.52 4334.49 1753.4C4361.33 1758.58 4383.96 1768.28 4383.96 1798.69C4383.96 1832.98 4353.57 1846.24 4323.49 1846.24C4297.95 1846.24 4279.52 1839.45 4264.64 1818.1Z" fill="#0097B2"/>
<path d="M4463.43 1809.37L4436.92 1887H4412.02L4434.01 1809.37H4463.43Z" fill="#0097B2"/>
<path d="M4612.06 1842.36V1712.32H4579.08V1690.97H4612.06V1657C4612.06 1620.12 4624.99 1593.92 4665.73 1593.92C4672.2 1593.92 4680.28 1595.21 4685.13 1597.8L4681.58 1620.45C4676.08 1618.51 4670.26 1617.21 4664.44 1617.21C4638.25 1617.21 4637.28 1636.3 4637.28 1662.5V1690.97H4674.14V1712.32H4637.28V1842.36H4612.06Z" fill="#0097B2"/>
<path d="M4833.04 1690.97V1806.45C4833.04 1820.36 4834.34 1832.33 4834.34 1842.36H4810.41C4810.41 1834.27 4809.76 1825.86 4809.76 1817.45H4809.11C4802.32 1832.33 4783.57 1846.24 4758.67 1846.24C4718.9 1846.24 4701.12 1821.01 4701.12 1784.46V1690.97H4726.34V1781.87C4726.34 1807.1 4737.33 1822.95 4760.94 1822.95C4793.59 1822.95 4807.82 1799.34 4807.82 1764.72V1690.97H4833.04Z" fill="#0097B2"/>
<path d="M4996.87 1799.98L5015.95 1814.87C4998.16 1837.83 4976.82 1846.24 4948.69 1846.24C4901.16 1846.24 4872.06 1810.66 4872.06 1766.66C4872.06 1719.76 4905.04 1687.09 4949.66 1687.09C4992.34 1687.09 5021.45 1716.2 5021.45 1766.34V1774.43H4899.22C4901.16 1800.63 4921.21 1822.95 4948.69 1822.95C4970.36 1822.95 4984.91 1815.19 4996.87 1799.98ZM4899.22 1753.08H4994.28C4993.31 1727.52 4976.5 1710.38 4948.69 1710.38C4920.88 1710.38 4902.45 1727.52 4899.22 1753.08Z" fill="#0097B2"/>
<path d="M5062.73 1842.36V1597.8H5087.95V1842.36H5062.73Z" fill="#0097B2"/>
<path d="M5140.4 1842.36V1690.97H5165.63V1842.36H5140.4ZM5134.58 1631.77C5134.58 1621.74 5142.67 1613.33 5153.02 1613.33C5163.36 1613.33 5171.45 1621.74 5171.45 1631.77C5171.45 1642.44 5163.69 1650.21 5153.02 1650.21C5142.34 1650.21 5134.58 1642.44 5134.58 1631.77Z" fill="#0097B2"/>
<path d="M5215.82 1842.36V1726.88C5215.82 1712.96 5214.53 1701 5214.53 1690.97H5238.45C5238.45 1699.05 5239.1 1707.47 5239.1 1715.88H5239.75C5246.54 1701 5265.29 1687.09 5290.19 1687.09C5329.96 1687.09 5347.75 1712.32 5347.75 1748.87V1842.36H5322.52V1751.46C5322.52 1726.23 5311.53 1710.38 5287.93 1710.38C5255.27 1710.38 5241.04 1733.99 5241.04 1768.61V1842.36H5215.82Z" fill="#0097B2"/>
<path d="M5546.5 1690.97V1835.57C5546.5 1890.24 5517.07 1920 5464.04 1920C5434.62 1920 5411.01 1912.24 5389.67 1891.21L5407.78 1870.51C5423.62 1887.65 5440.76 1896.71 5464.04 1896.71C5509.31 1896.71 5521.28 1867.59 5521.28 1835.57V1816.16H5520.63C5508.66 1835.57 5487.32 1844.3 5467.28 1844.3C5419.74 1844.3 5386.76 1811.31 5386.76 1766.66C5386.76 1717.17 5419.1 1687.09 5467.28 1687.09C5487.65 1687.09 5510.6 1696.79 5520.63 1716.85H5521.28V1690.97H5546.5ZM5413.92 1766.66C5413.92 1797.4 5437.85 1821.01 5467.28 1821.01C5501.87 1821.01 5521.28 1795.13 5521.28 1766.02C5521.28 1733.35 5499.29 1710.38 5467.28 1710.38C5435.59 1710.38 5413.92 1734.96 5413.92 1766.66Z" fill="#0097B2"/>
<path d="M5810.88 1711.02L5790.83 1728.82C5780.16 1715.88 5767.88 1710.38 5752.68 1710.38C5718.73 1710.38 5701.59 1735.61 5701.59 1766.66C5701.59 1797.72 5721.96 1822.95 5752.68 1822.95C5769.17 1822.95 5781.78 1817.13 5791.16 1804.19L5809.91 1821.98C5795.36 1838.8 5774.67 1846.24 5752.68 1846.24C5705.79 1846.24 5674.43 1813.25 5674.43 1766.66C5674.43 1720.73 5706.12 1687.09 5752.68 1687.09C5774.99 1687.09 5795.68 1694.53 5810.88 1711.02Z" fill="#0097B2"/>
<path d="M5853.05 1726.88L5837.21 1710.38C5852.73 1694.53 5875.36 1687.09 5897.35 1687.09C5941.97 1687.09 5960.73 1708.44 5960.73 1751.14V1816.16C5960.73 1824.89 5961.7 1834.6 5962.99 1842.36H5938.74C5937.12 1835.57 5937.12 1826.19 5937.12 1819.72H5936.48C5926.45 1835.25 5909.64 1846.24 5886.68 1846.24C5855.96 1846.24 5830.42 1830.72 5830.42 1801.28C5830.42 1751.14 5888.62 1748.23 5925.81 1748.23H5935.51V1743.7C5935.51 1721.7 5921.6 1710.38 5898 1710.38C5881.83 1710.38 5865.02 1715.88 5853.05 1726.88ZM5935.51 1769.58H5910.29C5878.27 1769.58 5857.58 1778.31 5857.58 1798.69C5857.58 1817.78 5871.81 1824.89 5890.88 1824.89C5919.99 1824.89 5934.86 1803.87 5935.51 1779.28V1769.58Z" fill="#0097B2"/>
<path d="M6006.82 1842.36V1726.88C6006.82 1712.96 6005.53 1701 6005.53 1690.97H6029.46C6029.46 1699.05 6030.1 1707.47 6030.1 1715.88H6030.75C6037.54 1701 6056.29 1687.09 6081.19 1687.09C6084.43 1687.09 6087.98 1687.41 6091.54 1688.7L6089.92 1714.26C6085.72 1712.97 6080.87 1712.32 6076.34 1712.32C6045.62 1712.32 6032.04 1733.99 6032.04 1768.61V1842.36H6006.82Z" fill="#0097B2"/>
<path d="M6230.9 1799.98L6249.98 1814.87C6232.19 1837.83 6210.85 1846.24 6182.72 1846.24C6135.19 1846.24 6106.08 1810.66 6106.08 1766.66C6106.08 1719.76 6139.07 1687.09 6183.69 1687.09C6226.37 1687.09 6255.47 1716.2 6255.47 1766.34V1774.43H6133.25C6135.19 1800.63 6155.23 1822.95 6182.72 1822.95C6204.38 1822.95 6218.93 1815.19 6230.9 1799.98ZM6133.25 1753.08H6228.31C6227.34 1727.52 6210.53 1710.38 6182.72 1710.38C6154.91 1710.38 6136.48 1727.52 6133.25 1753.08Z" fill="#0097B2"/>
<path d="M6410.57 1799.98L6429.65 1814.87C6411.86 1837.83 6390.52 1846.24 6362.39 1846.24C6314.86 1846.24 6285.76 1810.66 6285.76 1766.66C6285.76 1719.76 6318.74 1687.09 6363.36 1687.09C6406.04 1687.09 6435.14 1716.2 6435.14 1766.34V1774.43H6312.92C6314.86 1800.63 6334.91 1822.95 6362.39 1822.95C6384.06 1822.95 6398.61 1815.19 6410.57 1799.98ZM6312.92 1753.08H6407.98C6407.01 1727.52 6390.2 1710.38 6362.39 1710.38C6334.58 1710.38 6316.15 1727.52 6312.92 1753.08Z" fill="#0097B2"/>
<path d="M6474.16 1842.36V1726.88C6474.16 1712.96 6472.87 1701 6472.87 1690.97H6496.8C6496.8 1699.05 6497.44 1707.47 6497.44 1715.88H6498.09C6504.88 1701 6523.63 1687.09 6548.53 1687.09C6551.76 1687.09 6555.32 1687.41 6558.88 1688.7L6557.26 1714.26C6553.06 1712.97 6548.21 1712.32 6543.68 1712.32C6512.96 1712.32 6499.38 1733.99 6499.38 1768.61V1842.36H6474.16Z" fill="#0097B2"/>
<path d="M6571.02 1818.1L6591.07 1802.57C6601.1 1814.86 6612.09 1822.95 6629.87 1822.95C6645.72 1822.95 6663.18 1816.16 6663.18 1799.66C6663.18 1783.49 6647.01 1779.28 6630.84 1775.72C6602.07 1769.25 6577.49 1763.11 6577.49 1731.73C6577.49 1702.29 6605.95 1687.09 6634.08 1687.09C6655.42 1687.09 6675.14 1695.17 6685.49 1714.58L6664.47 1728.49C6658 1717.82 6647.33 1710.38 6632.46 1710.38C6618.56 1710.38 6602.71 1717.17 6602.71 1731.4C6602.71 1744.02 6620.82 1749.52 6640.87 1753.4C6667.7 1758.58 6690.34 1768.28 6690.34 1798.69C6690.34 1832.98 6659.94 1846.24 6629.87 1846.24C6604.33 1846.24 6585.9 1839.45 6571.02 1818.1Z" fill="#0097B2"/>
<path d="M6746.53 1805.48C6757.2 1805.48 6765.93 1814.22 6765.93 1824.89C6765.93 1835.57 6756.55 1844.3 6746.53 1844.3C6736.51 1844.3 6727.13 1835.57 6727.13 1824.89C6727.13 1814.22 6735.86 1805.48 6746.53 1805.48Z" fill="#0097B2"/>
</svg>
