<svg width="5563" height="1123" viewBox="0 0 5563 1123" fill="none" xmlns="http://www.w3.org/2000/svg">
<path d="M149.75 1098V576.013H8.55716V404.87H149.75V282.218C149.75 131.041 188.257 2.68377 420.727 2.68377C463.513 2.68377 506.299 5.53612 546.232 15.5194L536.249 196.646C512.003 188.089 492.037 182.384 466.365 182.384C397.908 182.384 363.679 203.777 363.679 295.053V404.87H521.987V576.013H363.679V1098H149.75ZM2748.18 494.299L2640.81 524.687C2634.06 506.792 2624.1 489.403 2610.93 472.521C2598.1 455.302 2580.54 441.121 2558.26 429.978C2535.97 418.836 2507.44 413.265 2472.67 413.265C2425.06 413.265 2385.39 424.239 2353.65 446.185C2322.25 467.794 2306.55 495.312 2306.55 528.738C2306.55 558.451 2317.35 581.917 2338.96 599.136C2360.57 616.356 2394.33 630.706 2440.25 642.185L2555.73 670.547C2625.28 687.429 2677.11 713.259 2711.21 748.036C2745.31 782.475 2762.36 826.875 2762.36 881.235C2762.36 925.803 2749.53 965.645 2723.87 1000.76C2698.55 1035.87 2663.1 1063.56 2617.51 1083.82C2571.93 1104.08 2518.92 1114.21 2458.49 1114.21C2379.14 1114.21 2313.47 1096.99 2261.47 1062.55C2209.48 1028.11 2176.56 977.8 2162.71 911.622L2276.16 883.261C2286.96 925.128 2307.39 956.529 2337.44 977.462C2367.83 998.396 2407.5 1008.86 2456.46 1008.86C2512.17 1008.86 2556.4 997.046 2589.15 973.411C2622.24 949.438 2638.79 920.739 2638.79 887.312C2638.79 860.301 2629.33 837.679 2610.42 819.447C2591.52 800.876 2562.48 787.033 2523.31 777.917L2393.66 747.529C2322.42 730.647 2270.08 704.48 2236.66 669.028C2203.57 633.238 2187.02 588.501 2187.02 534.816C2187.02 490.923 2199.35 452.094 2223.99 418.33C2248.98 384.566 2282.91 358.061 2325.79 338.816C2369.01 319.57 2417.97 309.947 2472.67 309.947C2549.65 309.947 2610.09 326.829 2653.98 360.593C2698.21 394.357 2729.61 438.926 2748.18 494.299Z" fill="#0097B2"/>
<path d="M1270.91 404.87V1098H1065.53V1003.87H1062.68C1034.16 1058.07 964.274 1115.11 860.162 1115.11C643.38 1115.11 603.447 972.495 603.447 787.09V404.87H817.376V744.304C817.376 824.171 818.802 926.857 928.619 926.857C1039.86 926.857 1056.98 839.859 1056.98 750.009V404.87H1270.91ZM1425.25 1098V19.798H1639.17V1098H1425.25ZM1795.72 1098V19.798H2009.65V1098H1795.72ZM3432.54 779.943V320.077H3552.06V1098H3432.54V966.32H3424.43C3406.2 1005.82 3377.84 1039.42 3339.35 1067.11C3300.86 1094.45 3252.24 1108.13 3193.49 1108.13C3144.87 1108.13 3101.65 1097.49 3063.83 1076.22C3026.02 1054.61 2996.31 1022.2 2974.7 978.982C2953.09 935.426 2942.28 880.56 2942.28 814.382V320.077H3061.81V806.279C3061.81 863.002 3077.68 908.246 3109.41 942.01C3141.49 975.774 3182.35 992.656 3231.98 992.656C3261.69 992.656 3291.91 985.059 3322.63 969.865C3353.7 954.672 3379.7 931.374 3400.63 899.974C3421.9 868.573 3432.54 828.563 3432.54 779.943ZM3770.98 1098V320.077H3890.5V1098H3770.98ZM3831.75 190.423C3808.46 190.423 3788.37 182.488 3771.49 166.619C3754.94 150.75 3746.67 131.673 3746.67 109.389C3746.67 87.1047 3754.94 68.028 3771.49 52.1589C3788.37 36.2898 3808.46 28.3553 3831.75 28.3553C3855.05 28.3553 3874.97 36.2898 3891.52 52.1589C3908.4 68.028 3916.84 87.1047 3916.84 109.389C3916.84 131.673 3908.4 150.75 3891.52 166.619C3874.97 182.488 3855.05 190.423 3831.75 190.423ZM4447.74 320.077V421.369H4044.59V320.077H4447.74ZM4162.09 133.699H4281.62V875.157C4281.62 908.921 4286.51 934.244 4296.31 951.126C4306.43 967.671 4319.26 978.813 4334.8 984.553C4350.67 989.955 4367.38 992.656 4384.94 992.656C4398.1 992.656 4408.91 991.981 4417.35 990.63C4425.79 988.942 4432.54 987.592 4437.61 986.579L4461.92 1093.95C4453.81 1096.99 4442.5 1100.03 4427.98 1103.06C4413.47 1106.44 4395.06 1108.13 4372.78 1108.13C4339.02 1108.13 4305.93 1100.87 4273.51 1086.35C4241.44 1071.83 4214.76 1049.72 4193.49 1020.01C4172.56 990.293 4162.09 952.815 4162.09 907.571V133.699ZM4945.33 1114.21C4870.38 1114.21 4805.72 1097.66 4751.36 1064.57C4697.34 1031.15 4655.64 984.553 4626.26 924.79C4597.23 864.69 4582.71 794.799 4582.71 715.116C4582.71 635.433 4597.23 565.203 4626.26 504.428C4655.64 443.315 4696.49 395.708 4748.83 361.606C4801.5 327.167 4862.95 309.947 4933.18 309.947C4973.7 309.947 5013.71 316.7 5053.21 330.206C5092.71 343.711 5128.67 365.658 5161.09 396.046C5193.5 426.096 5219.33 465.937 5238.58 515.57C5257.82 565.203 5267.44 626.316 5267.44 698.909V749.555H4667.79V646.237H5145.89C5145.89 602.344 5137.11 563.178 5119.56 528.738C5102.34 494.299 5077.69 467.119 5045.61 447.198C5013.88 427.277 4976.4 417.317 4933.18 417.317C4885.57 417.317 4844.38 429.134 4809.6 452.769C4775.16 476.066 4748.66 506.454 4730.09 543.932C4711.52 581.41 4702.23 621.589 4702.23 664.47V733.348C4702.23 792.098 4712.36 841.9 4732.62 882.754C4753.22 923.271 4781.75 954.165 4818.21 975.437C4854.68 996.37 4897.05 1006.84 4945.33 1006.84C4976.74 1006.84 5005.1 1002.45 5030.42 993.669C5056.08 984.553 5078.2 971.047 5096.77 953.152C5115.34 934.92 5129.69 912.298 5139.82 885.287L5255.29 917.7C5243.13 956.866 5222.71 991.306 5194.01 1021.02C5165.31 1050.39 5129.85 1073.35 5087.65 1089.9C5045.44 1106.1 4998.01 1114.21 4945.33 1114.21Z" fill="#1A0202"/>
<ellipse cx="5444.54" cy="985.032" rx="106.983" ry="106.949" fill="#0097B2"/>
</svg>
