<svg width="4284" height="1333" viewBox="0 0 4284 1333" fill="none" xmlns="http://www.w3.org/2000/svg">
<path d="M115.336 1063V660.971H6.59064V529.158H115.336V434.692C115.336 318.258 144.994 219.398 324.04 219.398C356.993 219.398 389.946 221.595 420.703 229.284L413.013 368.786C394.34 362.195 378.962 357.802 359.19 357.802C306.465 357.802 280.102 374.278 280.102 444.578V529.158H402.029V660.971H280.102V1063H115.336ZM2116.62 598.035L2033.93 621.44C2028.73 607.657 2021.06 594.265 2010.91 581.262C2001.03 568 1987.51 557.078 1970.35 548.496C1953.18 539.915 1931.21 535.624 1904.42 535.624C1867.76 535.624 1837.2 544.076 1812.76 560.979C1788.57 577.622 1776.48 598.815 1776.48 624.56C1776.48 647.444 1784.8 665.518 1801.45 678.78C1818.09 692.042 1844.09 703.094 1879.46 711.936L1968.4 733.78C2021.97 746.782 2061.88 766.676 2088.15 793.461C2114.41 819.986 2127.54 854.182 2127.54 896.05C2127.54 930.376 2117.66 961.061 2097.9 988.106C2078.4 1015.15 2051.09 1036.48 2015.98 1052.08C1980.88 1067.68 1940.05 1075.48 1893.5 1075.48C1832.39 1075.48 1781.81 1062.22 1741.76 1035.7C1701.72 1009.17 1676.36 970.423 1665.7 919.454L1753.08 897.61C1761.4 929.856 1777.13 954.04 1800.28 970.163C1823.68 986.286 1854.24 994.348 1891.94 994.348C1934.85 994.348 1968.92 985.246 1994.14 967.043C2019.63 948.579 2032.37 926.475 2032.37 900.73C2032.37 879.927 2025.09 862.503 2010.52 848.461C1995.96 834.158 1973.6 823.496 1943.43 816.475L1843.57 793.071C1788.7 780.069 1748.4 759.915 1722.65 732.61C1697.17 705.045 1684.42 670.589 1684.42 629.241C1684.42 595.435 1693.92 565.529 1712.9 539.525C1732.14 513.52 1758.28 493.106 1791.3 478.284C1824.59 463.461 1862.3 456.05 1904.42 456.05C1963.71 456.05 2010.26 469.052 2044.07 495.057C2078.14 521.061 2102.32 555.388 2116.62 598.035Z" fill="#0097B2"/>
<path d="M978.839 529.158V1063H820.663V990.503H818.466C796.498 1032.24 742.674 1076.18 662.488 1076.18C495.525 1076.18 464.769 966.337 464.769 823.54V529.158H629.535V790.587C629.535 852.1 630.633 931.187 715.213 931.187C800.891 931.187 814.073 864.182 814.073 794.981V529.158H978.839ZM1097.71 1063V232.579H1262.48V1063H1097.71ZM1383.05 1063V232.579H1547.81V1063H1383.05ZM2643.71 818.035V463.851H2735.76V1063H2643.71V961.582H2637.47C2623.42 992.007 2601.58 1017.88 2571.93 1039.21C2542.29 1060.27 2504.84 1070.8 2459.59 1070.8C2422.15 1070.8 2388.86 1062.61 2359.73 1046.23C2330.61 1029.58 2307.72 1004.62 2291.08 971.333C2274.44 937.787 2266.12 895.53 2266.12 844.56V463.851H2358.17V838.319C2358.17 882.007 2370.4 916.853 2394.84 942.858C2419.55 968.863 2451.01 981.865 2489.24 981.865C2512.12 981.865 2535.4 976.014 2559.06 964.312C2582.99 952.61 2603.01 934.667 2619.13 910.482C2635.51 886.298 2643.71 855.482 2643.71 818.035ZM2904.37 1063V463.851H2996.43V1063H2904.37ZM2951.18 363.993C2933.24 363.993 2917.76 357.882 2904.76 345.659C2892.02 333.437 2885.65 318.745 2885.65 301.581C2885.65 284.418 2892.02 269.726 2904.76 257.503C2917.76 245.281 2933.24 239.17 2951.18 239.17C2969.12 239.17 2984.47 245.281 2997.21 257.503C3010.21 269.726 3016.71 284.418 3016.71 301.581C3016.71 318.745 3010.21 333.437 2997.21 345.659C2984.47 357.882 2969.12 363.993 2951.18 363.993ZM3425.6 463.851V541.865H3115.11V463.851H3425.6ZM3205.6 320.305H3297.66V891.369C3297.66 917.373 3301.43 936.877 3308.97 949.879C3316.77 962.622 3326.66 971.203 3338.62 975.624C3350.84 979.785 3363.71 981.865 3377.23 981.865C3387.38 981.865 3395.7 981.345 3402.2 980.305C3408.7 979.005 3413.9 977.965 3417.8 977.184L3436.53 1059.88C3430.28 1062.22 3421.57 1064.56 3410.39 1066.9C3399.21 1069.5 3385.04 1070.8 3367.87 1070.8C3341.87 1070.8 3316.38 1065.21 3291.42 1054.03C3266.71 1042.85 3246.17 1025.81 3229.79 1002.93C3213.66 980.045 3205.6 951.18 3205.6 916.333V320.305ZM3808.85 1075.48C3751.12 1075.48 3701.32 1062.74 3659.45 1037.26C3617.84 1011.51 3585.73 975.624 3563.1 929.596C3540.74 883.307 3529.56 829.477 3529.56 768.106C3529.56 706.735 3540.74 652.645 3563.1 605.837C3585.73 558.768 3617.19 522.102 3657.5 495.837C3698.07 469.312 3745.4 456.05 3799.49 456.05C3830.69 456.05 3861.51 461.25 3891.93 471.652C3922.36 482.054 3950.05 498.957 3975.02 522.362C3999.98 545.506 4019.88 576.191 4034.7 614.418C4049.52 652.645 4056.93 699.714 4056.93 755.624V794.631H3595.09V715.057H3963.32C3963.32 681.25 3956.56 651.085 3943.03 624.56C3929.77 598.035 3910.79 577.102 3886.08 561.759C3861.64 546.416 3832.77 538.745 3799.49 538.745C3762.82 538.745 3731.09 547.846 3704.31 566.05C3677.78 583.993 3657.37 607.397 3643.07 636.262C3628.77 665.128 3621.61 696.073 3621.61 729.099V782.149C3621.61 827.397 3629.42 865.754 3645.02 897.22C3660.88 928.426 3682.86 952.22 3710.94 968.603C3739.03 984.726 3771.66 992.787 3808.85 992.787C3833.03 992.787 3854.88 989.407 3874.38 982.645C3894.14 975.624 3911.18 965.222 3925.48 951.44C3939.78 937.397 3950.83 919.974 3958.64 899.17L4047.57 924.135C4038.21 954.3 4022.48 980.825 4000.37 1003.71C3978.27 1026.33 3950.96 1044.02 3918.46 1056.76C3885.95 1069.24 3849.42 1075.48 3808.85 1075.48Z" fill="#1A0202"/>
<circle cx="4201.53" cy="983.104" r="82.383" fill="#0097B2"/>
</svg>
